<svg width="24" height="24" viewBox="0 0 24 24" fill="none" xmlns="http://www.w3.org/2000/svg">
<path fill-rule="evenodd" clip-rule="evenodd" d="M16.5 7.5C16.5 9.98528 14.4853 12 12 12C9.51472 12 7.5 9.98528 7.5 7.5C7.5 5.01472 9.51472 3 12 3C14.4853 3 16.5 5.01472 16.5 7.5ZM14.5 7.5C14.5 8.88071 13.3807 10 12 10C10.6193 10 9.5 8.88071 9.5 7.5C9.5 6.11929 10.6193 5 12 5C13.3807 5 14.5 6.11929 14.5 7.5Z" fill="#3959CC"/>
<path fill-rule="evenodd" clip-rule="evenodd" d="M21 19C21 19.5368 21 19.9295 20.826 20.2169C20.3516 21 18.5843 21 12 21C5.41567 21 3.64838 21 3.17403 20.2169C3 19.9295 3 19.5368 3 19C3 17 5 14 12 14C19 14 21 17 21 19ZM17.1538 18.9694C18.014 18.9481 18.5964 18.9127 18.9918 18.8679C18.95 18.5195 18.7322 17.9373 17.9487 17.3675C17.0273 16.6974 15.2406 16 12 16C8.75943 16 6.97265 16.6974 6.05134 17.3675C5.26781 17.9373 5.04997 18.5195 5.00824 18.8679C5.40358 18.9127 5.98604 18.9481 6.84624 18.9694C8.08118 18.9999 9.73905 19 12 19C14.261 19 15.9188 18.9999 17.1538 18.9694ZM5.01174 19.4988C5.01174 19.4988 5.0115 19.4963 5.0107 19.4917C5.01111 19.495 5.01174 19.4988 5.01174 19.4988Z" fill="#3959CC"/>
</svg>
