<svg width="24" height="24" viewBox="0 0 24 24" fill="none" xmlns="http://www.w3.org/2000/svg">
<path d="M16.609 14.716C16.4443 14.7161 16.2832 14.6655 16.1463 14.5708C16.0093 14.4761 15.9025 14.3414 15.8394 14.1839C15.7764 14.0263 15.7598 13.8529 15.7919 13.6856C15.8241 13.5184 15.9033 13.3647 16.0198 13.2441C16.1363 13.1234 16.2847 13.0413 16.4462 13.008C16.6078 12.9747 16.7752 12.9917 16.9274 13.057C17.0796 13.1222 17.2097 13.2327 17.3013 13.3745C17.3928 13.5163 17.4417 13.683 17.4417 13.8535C17.4415 14.0822 17.3537 14.3013 17.1976 14.463C17.0415 14.6247 16.8298 14.7157 16.609 14.716ZM7.40384 14.716C7.23911 14.7161 7.07807 14.6655 6.94109 14.5708C6.8041 14.4761 6.69733 14.3414 6.63426 14.1839C6.57119 14.0263 6.55467 13.8529 6.58677 13.6856C6.61888 13.5184 6.69817 13.3647 6.81463 13.2441C6.93109 13.1234 7.07948 13.0413 7.24104 13.008C7.4026 12.9747 7.57007 12.9917 7.72227 13.057C7.87447 13.1222 8.00457 13.2327 8.09611 13.3745C8.18765 13.5163 8.23653 13.683 8.23656 13.8535C8.23636 14.0822 8.14857 14.3014 7.99245 14.4631C7.83634 14.6248 7.62466 14.7157 7.40384 14.716ZM16.9077 9.52209L18.572 6.53751C18.5948 6.49674 18.6096 6.45173 18.6155 6.40505C18.6215 6.35836 18.6185 6.31092 18.6068 6.26543C18.595 6.21994 18.5747 6.17729 18.5471 6.13991C18.5194 6.10254 18.4849 6.07117 18.4455 6.0476C18.4062 6.02404 18.3627 6.00873 18.3176 6.00255C18.2725 5.99638 18.2267 5.99946 18.1827 6.01162C18.1388 6.02379 18.0976 6.04479 18.0615 6.07343C18.0254 6.10208 17.9951 6.1378 17.9724 6.17857L16.287 9.20085C14.9982 8.59185 13.5507 8.25273 12.0063 8.25273C10.4618 8.25273 9.01452 8.59233 7.72572 9.20085L6.0405 6.17857C6.01777 6.13779 5.9875 6.10205 5.95142 6.07338C5.91535 6.04472 5.87418 6.02369 5.83025 6.0115C5.78633 5.9993 5.74052 5.99619 5.69543 6.00233C5.65034 6.00847 5.60686 6.02374 5.56748 6.04728C5.52809 6.07081 5.49357 6.10215 5.46588 6.1395C5.4382 6.17685 5.41789 6.21948 5.40611 6.26496C5.39434 6.31043 5.39133 6.35787 5.39726 6.40455C5.40319 6.45123 5.41794 6.49624 5.44067 6.53702L7.10518 9.52209C4.24714 11.1315 2.29229 14.1272 2.00635 17.6665H22.0065C21.7202 14.1272 19.7656 11.1315 16.9077 9.52209Z" fill="#3959CC"/>
</svg>
