<svg width="24" height="24" viewBox="0 0 24 24" fill="none" xmlns="http://www.w3.org/2000/svg">
<path d="M7.29289 12.2929C6.90237 12.6834 6.90237 13.3166 7.29289 13.7071C7.68342 14.0976 8.31658 14.0976 8.70711 13.7071L7.29289 12.2929ZM12 9L12.7071 8.29289C12.3166 7.90237 11.6834 7.90237 11.2929 8.29289L12 9ZM15.2929 13.7071C15.6834 14.0976 16.3166 14.0976 16.7071 13.7071C17.0976 13.3166 17.0976 12.6834 16.7071 12.2929L15.2929 13.7071ZM21 12C21 16.9706 16.9706 21 12 21V23C18.0751 23 23 18.0751 23 12H21ZM12 21C7.02944 21 3 16.9706 3 12H1C1 18.0751 5.92487 23 12 23V21ZM3 12C3 7.02944 7.02944 3 12 3V1C5.92487 1 1 5.92487 1 12H3ZM12 3C16.9706 3 21 7.02944 21 12H23C23 5.92487 18.0751 1 12 1V3ZM8.70711 13.7071L12.7071 9.70711L11.2929 8.29289L7.29289 12.2929L8.70711 13.7071ZM11.2929 9.70711L15.2929 13.7071L16.7071 12.2929L12.7071 8.29289L11.2929 9.70711Z" fill="#3959CC"/>
</svg>
