<svg width="24" height="24" viewBox="0 0 24 24" fill="none" xmlns="http://www.w3.org/2000/svg">
<path fill-rule="evenodd" clip-rule="evenodd" d="M9 2H15C15.5523 2 16 2.44772 16 3V8H18.8572C19.3416 8 19.7564 8.34728 19.8416 8.82421L21.9844 20.8242C22.0365 21.1156 21.9568 21.415 21.7668 21.642C21.5767 21.8689 21.296 22 21 22H3.00001C2.70403 22 2.42327 21.8689 2.23326 21.642C2.04326 21.415 1.96355 21.1156 2.01558 20.8242L4.15844 8.82421C4.2436 8.34728 4.65839 8 5.14287 8H8V3C8 2.44772 8.44772 2 9 2ZM10 4V8H14V4H10ZM10 10H14V13C14 13.5523 14.4477 14 15 14C15.5523 14 16 13.5523 16 13V10H18.0199L19.8056 20H4.1944L5.98011 10H8V13C8 13.5523 8.44772 14 9 14C9.55228 14 10 13.5523 10 13V10Z" fill="#3959CC"/>
</svg>
