<svg width="24" height="24" viewBox="0 0 24 24" fill="none" xmlns="http://www.w3.org/2000/svg">
<path fill-rule="evenodd" clip-rule="evenodd" d="M11 4C10.4477 4 10 4.44772 10 5C10 5.55228 10.4477 6 11 6H13.3175L14.1141 8.03595C14.1034 8.05652 14.0933 8.07761 14.0838 8.09919L12.8147 11H8.0371L7.57044 10H8C8.55228 10 9 9.55228 9 9C9 8.44772 8.55228 8 8 8H6.02163C6.00696 7.99968 5.99226 7.99967 5.97755 8H4C3.44772 8 3 8.44772 3 9C3 9.55228 3.44772 10 4 10H5.36338L6.33258 12.0769C6.06276 12.0264 5.78446 12 5.5 12C3.01472 12 1 14.0147 1 16.5C1 18.9853 3.01472 21 5.5 21C7.64158 21 9.43376 19.504 9.88849 17.5H11.5C11.8973 17.5 12.2569 17.2648 12.4162 16.9008L14.2946 12.6072C14.3906 12.4818 14.4575 12.3331 14.4854 12.1711L15.1436 10.6667L15.9698 12.7782C14.7808 13.5881 14 14.9529 14 16.5C14 18.9853 16.0147 21 18.5 21C20.9853 21 23 18.9853 23 16.5C23 14.0147 20.9853 12 18.5 12C18.2731 12 18.0501 12.0168 17.8322 12.0492L14.9312 4.6356C14.7812 4.25226 14.4116 4 14 4H11ZM11.9397 13H8.97044L10.1371 15.5H10.846L11.9397 13ZM16.7338 14.7307L17.5688 16.8644C17.77 17.3787 18.3501 17.6325 18.8644 17.4312C19.3787 17.23 19.6325 16.6499 19.4312 16.1356L18.5963 14.0018C19.9324 14.0524 21 15.1515 21 16.5C21 17.8807 19.8807 19 18.5 19C17.1193 19 16 17.8807 16 16.5C16 15.8088 16.2805 15.1832 16.7338 14.7307ZM7.79198 15.5H5.5C4.94772 15.5 4.5 15.9477 4.5 16.5C4.5 17.0523 4.94772 17.5 5.5 17.5H7.79197C7.40619 18.383 6.52516 19 5.5 19C4.11929 19 3 17.8807 3 16.5C3 15.1193 4.11929 14 5.5 14C6.52516 14 7.40621 14.6171 7.79198 15.5Z" fill="#3959CC"/>
</svg>
