<svg width="24" height="24" viewBox="0 0 24 24" fill="none" xmlns="http://www.w3.org/2000/svg">
<path d="M12 7C13.11 7 14 6.1 14 5C14 4.62 13.9 4.27 13.71 3.97L12 1L11.145 2.485L10.29 3.97C10.1 4.27 10 4.62 10 5C10 6.1 10.9 7 12 7ZM18 9H13V6H11V9H6C4.34 9 3 10.34 3 12V21C3 21.55 3.45 22 4 22H20C20.55 22 21 21.55 21 21V12C21 10.34 19.66 9 18 9ZM19 20H5V17C5.9 16.99 6.76 16.63 7.4 15.99L8.49 14.92L9.56 15.99C10.87 17.3 13.15 17.29 14.45 15.99L15.53 14.92L16.6 15.99C17.24 16.63 18.1 16.99 19 17V20ZM19 15.5C18.49 15.49 18.01 15.3 17.65 14.93L15.52 12.8L13.38 14.93C12.64 15.67 11.35 15.67 10.61 14.93L8.48 12.8L6.34 14.93C5.99 15.29 5.51 15.49 5 15.5V12C5 11.45 5.45 11 6 11H18C18.55 11 19 11.45 19 12V15.5Z" fill="#3959CC"/>
<path d="M13 6.73283C12.7064 6.90264 12.3651 7 12 7C11.6364 7 11.2946 6.90166 11 6.73026C10.4033 6.38314 10 5.73638 10 5C10 4.62 10.1 4.27 10.29 3.97L11.145 2.485L12 1L13.71 3.97C13.9 4.27 14 4.62 14 5C14 5.73821 13.5992 6.38635 13 6.73283Z" fill="#3959CC"/>
</svg>
