<svg width="24" height="24" viewBox="0 0 24 24" fill="none" xmlns="http://www.w3.org/2000/svg">
<path fill-rule="evenodd" clip-rule="evenodd" d="M12 2C12.3901 2 12.7735 2.09203 13.1113 2.26758L20.8887 6.26855C21.2261 6.4439 21.5071 6.69541 21.7021 6.99902C21.8971 7.30259 21.9995 7.64742 22 7.99805V15.999C21.9996 16.3497 21.8971 16.6944 21.7021 16.998L21.625 17.1094C21.4361 17.3636 21.184 17.576 20.8887 17.7295L13.1113 21.7295C12.8049 21.8887 12.4608 21.9787 12.1084 21.9941C12.0728 21.998 12.0366 22 12 22C11.963 22 11.9265 21.998 11.8906 21.9941C11.5385 21.9786 11.1949 21.8886 10.8887 21.7295L3.11133 17.7295C2.81596 17.576 2.56393 17.3636 2.375 17.1094L2.29785 16.998C2.10289 16.6944 2.0004 16.3497 2 15.999V7.99805C2.00047 7.64742 2.1029 7.30259 2.29785 6.99902C2.46846 6.73341 2.705 6.50776 2.9873 6.33789L3.11133 6.26855L10.8887 2.26758C11.2265 2.09203 11.6099 2 12 2ZM4 15.9297C4.00819 15.936 4.01772 15.946 4.0332 15.9541L11 19.5371V11.6133C10.9604 11.596 10.9207 11.578 10.8818 11.5586L4 8.11719V15.9297ZM13.1182 11.5586C13.0792 11.5781 13.0397 11.596 13 11.6133V19.5371L19.9658 15.9541C19.9814 15.946 19.9918 15.936 20 15.9297V8.11719L13.1182 11.5586ZM15.6016 5.79688C15.568 5.82211 15.5335 5.8468 15.4961 5.86816L10.1172 8.94043L11.7764 9.77051C11.917 9.8408 12.0829 9.84077 12.2236 9.77051L17.8525 6.95508L15.6016 5.79688ZM12 4C11.9229 4 11.8573 4.01924 11.8115 4.04297L11.8037 4.04688L6.14551 6.95508L7.96777 7.86621L13.4883 4.71094L12.1963 4.04688L12.1885 4.04297C12.1427 4.01924 12.0771 4 12 4Z" fill="#3959CC"/>
</svg>
