<svg width="24" height="24" viewBox="0 0 24 24" fill="none" xmlns="http://www.w3.org/2000/svg">
<path d="M10.5 14.25C10.5 14.9404 9.94036 15.5 9.25 15.5C8.55964 15.5 8 14.9404 8 14.25C8 13.5596 8.55964 13 9.25 13C9.94036 13 10.5 13.5596 10.5 14.25Z" fill="#3959CC"/>
<path d="M14.75 15.5C15.4404 15.5 16 14.9404 16 14.25C16 13.5596 15.4404 13 14.75 13C14.0596 13 13.5 13.5596 13.5 14.25C13.5 14.9404 14.0596 15.5 14.75 15.5Z" fill="#3959CC"/>
<path fill-rule="evenodd" clip-rule="evenodd" d="M12 22C17.5228 22 22 17.5228 22 12C22 6.47715 17.5228 2 12 2C6.47715 2 2 6.47715 2 12C2 17.5228 6.47715 22 12 22ZM12 20C16.4183 20 20 16.4183 20 12C20 7.58172 16.4183 4 12 4C8.97196 4 6.33685 5.68232 4.97834 8.16328C5.55961 8.92658 6.84356 9.52937 8.4745 9.69246C9.65025 9.81004 10.8146 9.67687 11.7449 9.33423C10.6308 8.47669 9.81236 7.52131 9.16795 6.5547C8.8616 6.09517 8.98577 5.4743 9.4453 5.16795C9.90483 4.8616 10.5257 4.98577 10.8321 5.4453C12.0242 7.23345 13.9718 9.08045 18.2169 10.0238C18.7561 10.1436 19.096 10.6778 18.9762 11.2169C18.8564 11.7561 18.3222 12.096 17.7831 11.9762C16.1786 11.6196 14.8439 11.1383 13.723 10.5719C12.212 11.5631 10.1286 11.8678 8.2755 11.6825C6.83294 11.5383 5.31083 11.072 4.20349 10.1992C4.07035 10.778 4 11.3808 4 12C4 16.4183 7.58172 20 12 20Z" fill="#3959CC"/>
</svg>
