<svg width="24" height="24" viewBox="0 0 24 24" fill="none" xmlns="http://www.w3.org/2000/svg">
<path d="M11.6313 10.5304C11.1084 10.9486 10.6468 11.4403 10.2621 11.9897L7.46484 9.19239L5.34345 11.3138C3.78135 12.8759 3.78135 15.4085 5.34345 16.9706C6.41079 18.038 7.93125 18.376 9.28562 17.9848C9.47899 18.64 9.76566 19.2552 10.1302 19.815C8.02917 20.5386 5.6063 20.0619 3.92923 18.3848C1.58609 16.0417 1.58609 12.2427 3.92923 9.89956L9.58609 4.24271C11.9292 1.89957 15.7282 1.89957 18.0714 4.24271C19.6353 5.80664 20.1554 8.01912 19.6316 10.0144C19.057 9.66504 18.4281 9.39608 17.7605 9.22317C17.9945 7.96995 17.6267 6.62649 16.6572 5.65692C15.0951 4.09483 12.5624 4.09483 11.0003 5.65692L8.87905 7.77817L11.6313 10.5304Z" fill="#3959CC"/>
<path fill-rule="evenodd" clip-rule="evenodd" d="M22 16C22 12.6863 19.3137 10 16 10C12.6863 10 10 12.6863 10 16C10 19.3137 12.6863 22 16 22C19.3137 22 22 19.3137 22 16ZM12 16C12 14.1362 13.2748 12.5701 15 12.126V19.874C13.2748 19.4299 12 17.8638 12 16ZM17 19.874C18.7252 19.4299 20 17.8638 20 16C20 14.1362 18.7252 12.5701 17 12.126V19.874Z" fill="#3959CC"/>
</svg>
