<svg width="24" height="24" viewBox="0 0 24 24" fill="none" xmlns="http://www.w3.org/2000/svg">
<path fill-rule="evenodd" clip-rule="evenodd" d="M3 2C2.44772 2 2 2.44772 2 3C2 3.55228 2.44772 4 3 4L5.25831 4L6.03742 6.57108L7.91966 13.8177L6.1746 16.4353C6.12425 16.5087 6.08345 16.5892 6.05399 16.675C6.00717 16.811 5.99122 16.9534 6.00422 17.0924C6.01614 17.2225 6.05297 17.3454 6.10991 17.4562C6.22941 17.6889 6.43747 17.8686 6.68957 17.9509C6.7956 17.9856 6.90526 18.0016 7.01404 18H18C18.5523 18 19 17.5523 19 17C19 16.4477 18.5523 16 18 16H8.86849L9.53498 15.0003H19.0003C19.4557 15.0003 19.8536 14.6925 19.9681 14.2517L21.9681 6.55166C22.046 6.25206 21.9807 5.93331 21.7913 5.68846C21.6019 5.44361 21.3098 5.30026 21.0003 5.30026H7.74214L6.96092 2.72223C6.9475 2.67574 6.9308 2.63064 6.91109 2.5872C6.84343 2.4375 6.74183 2.31098 6.61848 2.21415C6.4483 2.08003 6.2335 2 6 2H3ZM9.77371 13.0003L8.29319 7.30026H19.7073L18.2268 13.0003H9.77371Z" fill="#3959CC"/>
<path d="M7.5 22C8.32843 22 9 21.3284 9 20.5C9 19.6716 8.32843 19 7.5 19C6.67157 19 6 19.6716 6 20.5C6 21.3284 6.67157 22 7.5 22Z" fill="#3959CC"/>
<path d="M18 20.5C18 21.3284 17.3284 22 16.5 22C15.6716 22 15 21.3284 15 20.5C15 19.6716 15.6716 19 16.5 19C17.3284 19 18 19.6716 18 20.5Z" fill="#3959CC"/>
</svg>
