<svg width="24" height="24" viewBox="0 0 24 24" fill="none" xmlns="http://www.w3.org/2000/svg">
<path fill-rule="evenodd" clip-rule="evenodd" d="M2 5C2 3.89543 2.89543 3 4 3H20C21.1046 3 22 3.89543 22 5V17C22 18.1046 21.1046 19 20 19H11.5L8.5 22C7.5 23 6 22.5 6 21V19H4C2.89543 19 2 18.1046 2 17V5ZM6 9C6 8.44772 6.44772 8 7 8H17C17.5523 8 18 8.44772 18 9C18 9.55228 17.5523 10 17 10H7C6.44771 10 6 9.55228 6 9ZM6 13C6 12.4477 6.44772 12 7 12H14C14.5523 12 15 12.4477 15 13C15 13.5523 14.5523 14 14 14H7C6.44772 14 6 13.5523 6 13Z" fill="#3959CC"/>
</svg>
