<svg width="24" height="24" viewBox="0 0 24 24" fill="none" xmlns="http://www.w3.org/2000/svg">
<path d="M8 10C7.44772 10 7 10.4477 7 11C7 11.5523 7.44772 12 8 12C8.55228 12 9 11.5523 9 11C9 10.4477 8.55228 10 8 10Z" fill="#3959CC"/>
<path d="M12 10C11.4477 10 11 10.4477 11 11C11 11.5523 11.4477 12 12 12C12.5523 12 13 11.5523 13 11C13 10.4477 12.5523 10 12 10Z" fill="#3959CC"/>
<path d="M15 11C15 10.4477 15.4477 10 16 10C16.5523 10 17 10.4477 17 11C17 11.5523 16.5523 12 16 12C15.4477 12 15 11.5523 15 11Z" fill="#3959CC"/>
<path fill-rule="evenodd" clip-rule="evenodd" d="M2 17C2 18.1046 2.89543 19 4 19H6V21C6 22.5 7.5 23 8.5 22L11.5 19H20C21.1046 19 22 18.1046 22 17V5C22 3.89543 21.1046 3 20 3H4C2.89543 3 2 3.89543 2 5V17ZM8 19.6716V17H4V5H20V17H10.6716L8 19.6716Z" fill="#3959CC"/>
</svg>
