<svg width="24" height="24" viewBox="0 0 24 24" fill="none" xmlns="http://www.w3.org/2000/svg">
<mask id="path-1-inside-1_1_4602" fill="white">
<path fill-rule="evenodd" clip-rule="evenodd" d="M2 5C2 3.89543 2.89543 3 4 3H20C21.1046 3 22 3.89543 22 5V17C22 18.1046 21.1046 19 20 19H11.5L8.5 22C7.5 23 6 22.5 6 21V19H4C2.89543 19 2 18.1046 2 17V5ZM6 9C6 8.44772 6.44772 8 7 8H17C17.5523 8 18 8.44772 18 9C18 9.55228 17.5523 10 17 10H7C6.44771 10 6 9.55228 6 9ZM6 13C6 12.4477 6.44772 12 7 12H14C14.5523 12 15 12.4477 15 13C15 13.5523 14.5523 14 14 14H7C6.44772 14 6 13.5523 6 13Z"/>
</mask>
<path fill-rule="evenodd" clip-rule="evenodd" d="M2 5C2 3.89543 2.89543 3 4 3H20C21.1046 3 22 3.89543 22 5V17C22 18.1046 21.1046 19 20 19H11.5L8.5 22C7.5 23 6 22.5 6 21V19H4C2.89543 19 2 18.1046 2 17V5ZM6 9C6 8.44772 6.44772 8 7 8H17C17.5523 8 18 8.44772 18 9C18 9.55228 17.5523 10 17 10H7C6.44771 10 6 9.55228 6 9ZM6 13C6 12.4477 6.44772 12 7 12H14C14.5523 12 15 12.4477 15 13C15 13.5523 14.5523 14 14 14H7C6.44772 14 6 13.5523 6 13Z" fill="#3D5FCF"/>
<path d="M11.5 19V17H10.6716L10.0858 17.5858L11.5 19ZM6 19H8V17H6V19ZM4 1C1.79086 1 0 2.79086 0 5H4V1ZM20 1H4V5H20V1ZM24 5C24 2.79086 22.2091 1 20 1V5H24ZM24 17V5H20V17H24ZM20 21C22.2091 21 24 19.2091 24 17H20V21ZM11.5 21H20V17H11.5V21ZM9.91421 23.4142L12.9142 20.4142L10.0858 17.5858L7.08579 20.5858L9.91421 23.4142ZM4 21C4 22.4739 4.79417 23.7932 6.17275 24.3102C7.49881 24.8074 8.93239 24.396 9.91421 23.4142L7.08579 20.5858C7.06761 20.604 7.25119 20.4426 7.57725 20.5648C7.72911 20.6218 7.85361 20.7261 7.93059 20.8454C8.00703 20.9639 8 21.0376 8 21H4ZM4 19V21H8V19H4ZM4 21H6V17H4V21ZM0 17C0 19.2091 1.79086 21 4 21V17H4H0ZM0 5V17H4V5H0ZM7 6C5.34315 6 4 7.34315 4 9H8C8 9.55228 7.55228 10 7 10V6ZM17 6H7V10H17V6ZM20 9C20 7.34315 18.6569 6 17 6V10C16.4477 10 16 9.55228 16 9H20ZM17 12C18.6569 12 20 10.6569 20 9H16C16 8.44771 16.4477 8 17 8V12ZM7 12H17V8H7V12ZM4 9C4 10.6569 5.34314 12 7 12V8C7.55228 8 8 8.44772 8 9H4ZM7 10C5.34315 10 4 11.3431 4 13H8C8 13.5523 7.55229 14 7 14V10ZM14 10H7V14H14V10ZM17 13C17 11.3431 15.6569 10 14 10V14C13.4477 14 13 13.5523 13 13H17ZM14 16C15.6569 16 17 14.6569 17 13H13C13 12.4477 13.4477 12 14 12V16ZM7 16H14V12H7V16ZM4 13C4 14.6569 5.34315 16 7 16V12C7.55229 12 8 12.4477 8 13H4Z" fill="#3D5FCF" mask="url(#path-1-inside-1_1_4602)"/>
</svg>
