<svg width="24" height="24" viewBox="0 0 24 24" fill="none" xmlns="http://www.w3.org/2000/svg">
<path fill-rule="evenodd" clip-rule="evenodd" d="M7.00109 14.047C7.0075 14.1856 7.04212 14.3168 7.09933 14.435C7.64993 15.6637 8.34766 16.5698 9.20485 17.1651C10.0771 17.7709 11.0359 18 12.0002 18C12.9646 18 13.9234 17.7709 14.7956 17.1651C15.6583 16.5661 16.3594 15.6521 16.9117 14.4116C16.9213 14.3903 16.9301 14.3687 16.9383 14.3467C17.0156 14.1381 17.0187 13.9182 16.9596 13.7176C16.9455 13.6697 16.928 13.6234 16.9072 13.5788C16.7801 13.3054 16.533 13.0991 16.2336 13.0274C16.149 13.007 16.0633 12.9981 15.9788 13H8.02173C7.95398 12.9985 7.88558 13.0039 7.81752 13.0166C7.58328 13.0598 7.37763 13.1846 7.23119 13.3605C7.08683 13.5338 7 13.7568 7 14L7 14.0033C7.00004 14.0179 7.0004 14.0324 7.00109 14.047ZM14.2292 15H9.7713C9.96206 15.2193 10.1548 15.3898 10.3456 15.5224C10.8234 15.8541 11.3646 16 12.0002 16C12.6359 16 13.1771 15.8541 13.6549 15.5224C13.8457 15.3898 14.0384 15.2193 14.2292 15Z" fill="#3959CC"/>
<path d="M9.18546 10.3908C9.47456 10.8614 10.0904 11.0085 10.561 10.7194C11.0315 10.4303 11.1787 9.81448 10.8896 9.34391C10.5944 8.86343 10.2207 8.48748 9.75543 8.25363C9.28919 8.01928 8.80965 7.96716 8.3689 8.00572C7.92816 8.04428 7.46495 8.17888 7.04649 8.49063C6.62893 8.80171 6.32619 9.23685 6.11892 9.76128C5.91592 10.2749 6.16774 10.8558 6.68136 11.0588C7.19499 11.2618 7.77593 11.01 7.97892 10.4964C8.07986 10.241 8.18183 10.1388 8.24136 10.0945C8.29998 10.0508 8.38624 10.0118 8.54321 9.99811C8.70019 9.98437 8.7919 10.0078 8.85722 10.0406C8.92355 10.0739 9.04171 10.1569 9.18546 10.3908Z" fill="#3959CC"/>
<path d="M17.3182 11.0588C16.8046 11.2618 16.2236 11.01 16.0206 10.4964C15.9197 10.241 15.8177 10.1388 15.7582 10.0944C15.6996 10.0508 15.6133 10.0118 15.4563 9.99808C15.2994 9.98435 15.2077 10.0077 15.1423 10.0406C15.076 10.0739 14.9578 10.1568 14.8141 10.3908C14.525 10.8614 13.9091 11.0085 13.4386 10.7194C12.968 10.4303 12.8209 9.81445 13.11 9.34388C13.4052 8.8634 13.7789 8.48745 14.2441 8.2536C14.7104 8.01925 15.1899 7.96713 15.6306 8.00569C16.0714 8.04425 16.5346 8.17885 16.9531 8.49061C17.3706 8.80169 17.6734 9.23682 17.8806 9.76126C18.0836 10.2749 17.8318 10.8558 17.3182 11.0588Z" fill="#3959CC"/>
<path fill-rule="evenodd" clip-rule="evenodd" d="M12 22C17.5228 22 22 17.5228 22 12C22 6.47715 17.5228 2 12 2C6.47715 2 2 6.47715 2 12C2 17.5228 6.47715 22 12 22ZM12 20C16.4183 20 20 16.4183 20 12C20 7.58172 16.4183 4 12 4C7.58172 4 4 7.58172 4 12C4 16.4183 7.58172 20 12 20Z" fill="#3959CC"/>
</svg>
