<svg width="24" height="24" viewBox="0 0 24 24" fill="none" xmlns="http://www.w3.org/2000/svg">
<path d="M13.9452 11.8322C13.4857 11.5258 13.3615 10.9049 13.6678 10.4454C13.9742 9.98588 14.5951 9.8617 15.0546 10.1681L16.5546 11.1681C17.0141 11.4744 17.1383 12.0953 16.8319 12.5548C16.5256 13.0143 15.9047 13.1385 15.4452 12.8322L13.9452 11.8322Z" fill="#3959CC"/>
<path d="M10.3322 10.4454C10.6385 10.9049 10.5143 11.5258 10.0548 11.8322L8.55481 12.8322C8.09528 13.1385 7.47441 13.0143 7.16806 12.5548C6.8617 12.0953 6.98588 11.4744 7.44541 11.1681L8.94541 10.1681C9.40493 9.8617 10.0258 9.98588 10.3322 10.4454Z" fill="#3959CC"/>
<path fill-rule="evenodd" clip-rule="evenodd" d="M9.39465 17.4472C9.60868 17.0191 9.79296 16.7553 9.9333 16.6068C10.0343 16.6991 10.1513 16.8153 10.2931 16.9571L10.3112 16.9752C10.4853 17.1493 10.7028 17.3669 10.9139 17.5396C11.0248 17.6304 11.1623 17.7326 11.3171 17.816C11.4609 17.8934 11.7018 18 12.0002 18C12.2986 18 12.5395 17.8934 12.6833 17.816C12.8381 17.7326 12.9756 17.6304 13.0866 17.5396C13.2977 17.3669 13.5151 17.1493 13.6893 16.9752L13.7073 16.9571C13.8491 16.8153 13.9661 16.6991 14.0671 16.6068C14.2075 16.7553 14.3918 17.0191 14.6058 17.4472C14.8528 17.9412 15.4535 18.1414 15.9474 17.8944C16.4414 17.6474 16.6416 17.0468 16.3946 16.5528C16.1211 16.0057 15.8143 15.5248 15.4573 15.1679C15.0983 14.8089 14.609 14.5 14.0002 14.5C13.7018 14.5 13.4609 14.6066 13.3171 14.684C13.1623 14.7674 13.0248 14.8696 12.9139 14.9604C12.7028 15.1331 12.4853 15.3506 12.3112 15.5248L12.2931 15.5429C12.1816 15.6544 12.0854 15.7502 12.0002 15.8309C11.9151 15.7502 11.8189 15.6544 11.7073 15.5429L11.6893 15.5248C11.5152 15.3507 11.2977 15.1331 11.0866 14.9604C10.9756 14.8696 10.8381 14.7674 10.6833 14.684C10.5395 14.6066 10.2986 14.5 10.0002 14.5C9.39146 14.5 8.90211 14.8089 8.54311 15.1679C8.18616 15.5248 7.87932 16.0057 7.60579 16.5528C7.3588 17.0468 7.55903 17.6474 8.05301 17.8944C8.54698 18.1414 9.14766 17.9412 9.39465 17.4472ZM10.069 16.4899C10.072 16.4887 10.0735 16.4879 10.0735 16.4878C10.0735 16.4877 10.073 16.4879 10.072 16.4884L10.069 16.4899Z" fill="#3959CC"/>
<path fill-rule="evenodd" clip-rule="evenodd" d="M14.5 1C15.0523 1 15.5 1.44772 15.5 2V2.62961C16.0221 2.82469 16.5235 3.06216 17 3.33782V2C17 1.44772 17.4477 1 18 1C18.5523 1 19 1.44772 19 2V4.85857C20.8514 6.67349 22 9.20261 22 12C22 17.5228 17.5228 22 12 22C6.47715 22 2 17.5228 2 12C2 6.47715 6.47715 2 12 2C12.5098 2 13.0107 2.03815 13.5 2.11175V2C13.5 1.44772 13.9477 1 14.5 1ZM17 5.75463V8C17 8.55229 17.4477 9 18 9C18.5142 9 18.9377 8.61192 18.9937 8.11269C19.6348 9.26357 20 10.5891 20 12C20 16.4183 16.4183 20 12 20C7.58172 20 4 16.4183 4 12C4 7.58172 7.58172 4 12 4C12.5127 4 13.0141 4.04823 13.5 4.1404V7C13.5 7.55228 13.9477 8 14.5 8C15.0523 8 15.5 7.55228 15.5 7V4.80423C16.0363 5.06558 16.539 5.38512 17 5.75463Z" fill="#3959CC"/>
</svg>
