<svg width="24" height="24" viewBox="0 0 24 24" fill="none" xmlns="http://www.w3.org/2000/svg">
<path d="M14.1835 11.9487C13.6596 11.7741 13.3764 11.2077 13.551 10.6838C13.7257 10.1599 14.292 9.8767 14.816 10.0513L16.316 10.5513C16.8399 10.726 17.1231 11.2923 16.9484 11.8163C16.7738 12.3402 16.2074 12.6234 15.6835 12.4487L14.1835 11.9487Z" fill="#3959CC"/>
<path d="M10.449 10.6838C10.6236 11.2077 10.3404 11.7741 9.8165 11.9487L8.3165 12.4487C7.79256 12.6234 7.22624 12.3402 7.05159 11.8163C6.87694 11.2923 7.1601 10.726 7.68404 10.5513L9.18404 10.0513C9.70799 9.8767 10.2743 10.1599 10.449 10.6838Z" fill="#3959CC"/>
<path d="M9.87166 17.4285C10.3009 17.2568 11.1701 17 12.0003 17C12.8305 17 13.6997 17.2568 14.1289 17.4285C14.6417 17.6336 15.2236 17.3842 15.4287 16.8714C15.6339 16.3586 15.3844 15.7766 14.8717 15.5715C14.3009 15.3432 13.1701 15 12.0003 15C10.8305 15 9.69968 15.3432 9.12888 15.5715C8.61609 15.7766 8.36668 16.3586 8.57179 16.8714C8.7769 17.3842 9.35887 17.6336 9.87166 17.4285Z" fill="#3959CC"/>
<path fill-rule="evenodd" clip-rule="evenodd" d="M22 12C22 17.5228 17.5228 22 12 22C6.47715 22 2 17.5228 2 12C2 6.47715 6.47715 2 12 2C17.5228 2 22 6.47715 22 12ZM20 12C20 16.4183 16.4183 20 12 20C7.58172 20 4 16.4183 4 12C4 7.58172 7.58172 4 12 4C16.4183 4 20 7.58172 20 12Z" fill="#3959CC"/>
</svg>
