<svg width="24" height="24" viewBox="0 0 24 24" fill="none" xmlns="http://www.w3.org/2000/svg">
<path d="M9.25 10.5C9.94036 10.5 10.5 9.94036 10.5 9.25C10.5 8.55964 9.94036 8 9.25 8C8.55964 8 8 8.55964 8 9.25C8 9.94036 8.55964 10.5 9.25 10.5Z" fill="#3959CC"/>
<path d="M16 9.25C16 9.94036 15.4404 10.5 14.75 10.5C14.0596 10.5 13.5 9.94036 13.5 9.25C13.5 8.55964 14.0596 8 14.75 8C15.4404 8 16 8.55964 16 9.25Z" fill="#3959CC"/>
<path d="M8.94895 13.6838C8.77431 13.1599 8.20799 12.8767 7.68404 13.0513C7.1601 13.226 6.87694 13.7923 7.05159 14.3163C7.3997 15.3606 8.20249 16.1535 9.07757 16.6726C9.95727 17.1944 11.007 17.5 12.0003 17.5C12.9935 17.5 14.0433 17.1944 14.923 16.6726C15.798 16.1535 16.6008 15.3606 16.949 14.3163C17.1236 13.7923 16.8404 13.226 16.3165 13.0513C15.7926 12.8767 15.2262 13.1599 15.0516 13.6838C14.8997 14.1395 14.5025 14.5966 13.9026 14.9525C13.3073 15.3056 12.607 15.5 12.0003 15.5C11.3935 15.5 10.6933 15.3056 10.098 14.9525C9.49805 14.5966 9.10085 14.1395 8.94895 13.6838Z" fill="#3959CC"/>
<path fill-rule="evenodd" clip-rule="evenodd" d="M22 12C22 17.5228 17.5228 22 12 22C6.47715 22 2 17.5228 2 12C2 6.47715 6.47715 2 12 2C17.5228 2 22 6.47715 22 12ZM20 12C20 16.4183 16.4183 20 12 20C7.58172 20 4 16.4183 4 12C4 7.58172 7.58172 4 12 4C16.4183 4 20 7.58172 20 12Z" fill="#3959CC"/>
</svg>
