<svg width="24" height="24" viewBox="0 0 24 24" fill="none" xmlns="http://www.w3.org/2000/svg">
<path d="M8.29289 16.2071C7.90237 15.8166 7.90237 15.1834 8.29289 14.7929L8.99994 15.4999C8.29289 14.7929 8.29254 14.7932 8.29289 14.7929L8.29432 14.7915L8.29585 14.7899L8.29922 14.7866L8.30713 14.7789L8.32778 14.7592C8.34368 14.7443 8.36387 14.7259 8.38837 14.7045C8.43735 14.6616 8.5037 14.6066 8.5875 14.5437C8.75496 14.4182 8.99328 14.2603 9.30279 14.1056C9.92507 13.7944 10.8272 13.5 12 13.5C13.1728 13.5 14.0749 13.7944 14.6972 14.1056C15.0067 14.2603 15.245 14.4182 15.4125 14.5437C15.4963 14.6066 15.5627 14.6616 15.6116 14.7045C15.6361 14.7259 15.6563 14.7443 15.6722 14.7592L15.6929 14.7789L15.7008 14.7866L15.7041 14.7899L15.7057 14.7915L15.7064 14.7922C15.7068 14.7925 15.7071 14.7929 15 15.5L15.7064 14.7922C16.0969 15.1827 16.0976 15.8166 15.7071 16.2071C15.3199 16.5943 14.6943 16.5976 14.303 16.2171L14.2946 16.2096C14.2811 16.1978 14.2537 16.1747 14.2125 16.1438C14.13 16.0818 13.9933 15.9897 13.8028 15.8944C13.4251 15.7056 12.8272 15.5 12 15.5C11.1728 15.5 10.5749 15.7056 10.1972 15.8944C10.0067 15.9897 9.87004 16.0818 9.7875 16.1438C9.7463 16.1747 9.7189 16.1978 9.70538 16.2096L9.697 16.2171C9.30573 16.5976 8.68007 16.5943 8.29289 16.2071Z" fill="#3959CC"/>
<path d="M10.5 10.25C10.5 10.9404 9.94036 11.5 9.25 11.5C8.55964 11.5 8 10.9404 8 10.25C8 9.55964 8.55964 9 9.25 9C9.94036 9 10.5 9.55964 10.5 10.25Z" fill="#3959CC"/>
<path d="M14.75 11.5C15.4404 11.5 16 10.9404 16 10.25C16 9.55964 15.4404 9 14.75 9C14.0596 9 13.5 9.55964 13.5 10.25C13.5 10.9404 14.0596 11.5 14.75 11.5Z" fill="#3959CC"/>
<path fill-rule="evenodd" clip-rule="evenodd" d="M22 12C22 17.5228 17.5228 22 12 22C6.47715 22 2 17.5228 2 12C2 6.47715 6.47715 2 12 2C17.5228 2 22 6.47715 22 12ZM20 12C20 16.4183 16.4183 20 12 20C7.58172 20 4 16.4183 4 12C4 7.58172 7.58172 4 12 4C16.4183 4 20 7.58172 20 12Z" fill="#3959CC"/>
</svg>
