<svg width="24" height="24" viewBox="0 0 24 24" fill="none" xmlns="http://www.w3.org/2000/svg">
<path fill-rule="evenodd" clip-rule="evenodd" d="M9.42534 2.1142C11.4862 1.01229 14.4343 0.781245 16.3965 2.51263C16.4037 2.51892 16.4107 2.52535 16.4176 2.53191C17.6244 3.68131 18.0655 5.0457 18.1243 6.14757C18.1534 6.69353 18.0899 7.19385 17.9659 7.58885C17.9046 7.78395 17.8202 7.97992 17.7046 8.14762C17.6887 8.1707 17.6699 8.19664 17.648 8.22419C17.6493 8.2743 17.6499 8.32457 17.6499 8.37502C17.6499 11.5892 15.1141 14.125 11.8999 14.125C8.68569 14.125 6.1499 11.5892 6.1499 8.37502C6.1499 8.33421 6.15031 8.29352 6.15112 8.25295L6.1407 8.24002C6.01201 8.07795 5.93185 7.89077 5.87897 7.73108C5.77063 7.40389 5.71468 6.99866 5.70076 6.58792C5.67324 5.77621 5.80416 4.72882 6.23998 3.91944C6.25382 3.89372 6.26916 3.86884 6.2859 3.84491C6.67687 3.2864 7.13222 2.81431 7.70501 2.50337C8.22364 2.22183 8.795 2.096 9.42534 2.1142ZM10.0295 6.87277C12.0205 8.37941 14.4679 8.72756 16.1395 8.68186C15.9875 10.9187 14.1824 12.625 11.8999 12.625C9.54488 12.625 7.69807 10.8086 7.65083 8.46706C7.75649 8.42644 7.85743 8.38125 7.95144 8.33558C8.27341 8.17919 8.60612 7.97086 8.9188 7.75132C9.3136 7.47412 9.70166 7.16119 10.0295 6.87277ZM15.3936 3.62812C14.0191 2.42632 11.7054 2.52294 9.97611 3.52408C9.84355 3.60082 9.69068 3.63514 9.53804 3.62242C9.06312 3.58284 8.71269 3.66311 8.42065 3.82165C8.12711 3.981 7.84072 4.24776 7.54134 4.66748C7.29069 5.1584 7.17797 5.89023 7.1999 6.5371C7.20612 6.72068 7.22275 6.88036 7.24463 7.0107C7.26132 7.003 7.27848 6.99487 7.29609 6.98632C7.52099 6.87708 7.78204 6.71666 8.05686 6.5237C8.60694 6.13747 9.14891 5.66577 9.47 5.34468C9.75309 5.06159 10.2086 5.05076 10.5048 5.32006C12.3597 7.00631 14.9827 7.2873 16.5283 7.15959L16.5348 7.1393C16.5982 6.93742 16.6473 6.61899 16.6264 6.22745C16.5853 5.45735 16.2786 4.47643 15.3936 3.62812Z" fill="#3959CC"/>
<path d="M4.75819 17.4323C4.02455 18.3913 3.75 19.7942 3.75 21.5527C3.75 21.9669 3.41421 22.3027 3 22.3027C2.58579 22.3027 2.25 21.9669 2.25 21.5527C2.25 19.7019 2.52545 17.8822 3.56681 16.5209C4.64172 15.1157 6.40321 14.3574 9 14.3574C9.19925 14.3574 9.39031 14.4367 9.53102 14.5778L12 17.0532L14.469 14.5778C14.6097 14.4367 14.8007 14.3574 15 14.3574C17.5986 14.3574 19.3369 15.117 20.3988 16.525C21.4221 17.8818 21.6989 19.6967 21.7497 21.532C21.7612 21.946 21.4348 22.291 21.0208 22.3024C20.6067 22.3139 20.2618 21.9876 20.2503 21.5735C20.2011 19.7994 19.9279 18.3917 19.2012 17.4282C18.7519 16.8324 18.0794 16.345 17.0259 16.0784L17.9534 17.7257C18.0854 17.96 18.0818 18.247 17.944 18.478L15.944 21.8295C15.7317 22.1852 15.2713 22.3015 14.9156 22.0892C14.5599 21.877 14.4436 21.4166 14.6559 21.0609L16.4331 18.0827L15.2357 15.9562L13.6001 21.875H10.6001L8.81738 16.039L7.66667 18.0827L9.44385 21.0609C9.65611 21.4166 9.53983 21.877 9.18413 22.0892C8.82843 22.3015 8.36802 22.1852 8.15576 21.8295L6.15576 18.478C6.01796 18.247 6.01434 17.96 6.14628 17.7257L7.09049 16.0487C5.95577 16.3082 5.2331 16.8114 4.75819 17.4323Z" fill="#3959CC"/>
</svg>
