<svg width="24" height="24" viewBox="0 0 24 24" fill="none" xmlns="http://www.w3.org/2000/svg">
<path d="M2 9C2 5.5188 4.37922 3 7.5 3C8.85081 3 9.95708 3.677 10.8007 4.45035C11.2467 4.8592 11.647 5.32021 12 5.77618C12.353 5.32021 12.7533 4.8592 13.1993 4.45035C14.0429 3.677 15.1492 3 16.5 3C19.6208 3 22 5.5188 22 9C22 11.397 20.3943 13.8903 18.5535 15.9215C16.6718 17.9979 14.3396 19.8149 12.4961 20.8682C12.1887 21.0439 11.8113 21.0439 11.5039 20.8682C9.66045 19.8149 7.32824 17.9979 5.44651 15.9215C4.83105 15.2424 4.24185 14.5116 3.73017 13.75H6.5C6.84415 13.75 7.14414 13.5158 7.22761 13.1819L7.91867 10.4176L9.26456 17.1471C9.33189 17.4837 9.61922 17.7317 9.9621 17.749C10.305 17.7664 10.6159 17.5487 10.7168 17.2206L12.0923 12.7502L12.3036 13.2785C12.4175 13.5633 12.6933 13.75 13 13.75H17.5C17.9142 13.75 18.25 13.4142 18.25 13C18.25 12.5858 17.9142 12.25 17.5 12.25H13.5078L12.6964 10.2215C12.5783 9.92627 12.2869 9.7376 11.9693 9.75063C11.6516 9.76367 11.3767 9.97557 11.2832 10.2794L10.1544 13.9479L8.73544 6.85292C8.66663 6.50891 8.36856 6.25856 8.01784 6.25021C7.66712 6.24187 7.35748 6.47776 7.27239 6.8181L5.91442 12.25H2.85375C2.32647 11.1812 2 10.0808 2 9Z" fill="#3959CC"/>
</svg>
