<svg width="24" height="24" viewBox="0 0 24 24" fill="none" xmlns="http://www.w3.org/2000/svg">
<path fill-rule="evenodd" clip-rule="evenodd" d="M2 5.25C2 4.00736 2.89543 3 4 3H20C21.1046 3 22 4.00736 22 5.25V18.75C22 19.9926 21.1046 21 20 21H4C2.89543 21 2 19.9926 2 18.75V5.25ZM4 5.25C4 5.12284 4.0409 5.03985 4.07066 5H19.9293C19.9591 5.03985 20 5.12284 20 5.25V18.75C20 18.8772 19.9591 18.9602 19.9293 19H4.07066C4.0409 18.9602 4 18.8772 4 18.75V14H6.5C6.95887 14 7.35885 13.6877 7.47014 13.2425L7.89157 11.5568L9.01942 17.1961C9.10993 17.6487 9.49841 17.9805 9.95956 17.9992C10.4207 18.0178 10.8347 17.7185 10.9615 17.2747L12.0746 13.379C12.2274 13.7525 12.592 14 13 14H17.5C18.0523 14 18.5 13.5523 18.5 13C18.5 12.4477 18.0523 12 17.5 12H13.7208L12.9487 9.68378C12.81 9.26783 12.4166 8.99071 11.9783 9.00024C11.5399 9.00976 11.1589 9.30371 11.0385 9.72528L10.1716 12.7592L8.98058 6.80389C8.88885 6.34521 8.49141 6.01141 8.02379 6.00029C7.55617 5.98916 7.1433 6.30368 7.02986 6.75747L5.71922 12H4V5.25Z" fill="#3959CC"/>
</svg>
