<svg width="24" height="24" viewBox="0 0 24 24" fill="none" xmlns="http://www.w3.org/2000/svg">
<path d="M21.7071 2.29265C21.7287 2.31427 21.7492 2.33677 21.7686 2.36008C21.91 2.52949 21.9866 2.73467 21.9984 2.94284C21.9995 2.96174 22 2.98072 22 2.99976V7.99976C22 8.55204 21.5523 8.99976 21 8.99976C20.4477 8.99976 20 8.55204 20 7.99976V5.41406L15.7071 9.70696C15.3166 10.0975 14.6834 10.0975 14.2929 9.70696C13.9024 9.31643 13.9024 8.68327 14.2929 8.29274L18.5859 3.99976L16 3.99976C15.4477 3.99976 15 3.55204 15 2.99976C15 2.44747 15.4477 1.99976 16 1.99976H21C21.0626 1.99976 21.1247 2.00563 21.1854 2.01709C21.3455 2.04714 21.4997 2.1165 21.6325 2.22516C21.6583 2.24629 21.6833 2.26881 21.7071 2.29265Z" fill="#3959CC"/>
<path d="M2.29289 21.7071C2.27128 21.6855 2.25075 21.663 2.23136 21.6397C2.09001 21.4703 2.01343 21.2651 2.00162 21.0569C2.00054 21.038 2 21.019 2 21V16C2 15.4477 2.44772 15 3 15C3.55229 15 4 15.4477 4 16L4 18.5857L8.29289 14.2928C8.68342 13.9023 9.31658 13.9023 9.70711 14.2928C10.0976 14.6833 10.0976 15.3165 9.70711 15.707L5.41412 20H8C8.55228 20 9 20.4477 9 21C9 21.5523 8.55228 22 8 22H3C2.93735 22 2.87531 21.9941 2.81461 21.9827C2.6545 21.9526 2.50031 21.8833 2.36754 21.7746C2.34166 21.7535 2.31673 21.7309 2.29289 21.7071Z" fill="#3959CC"/>
</svg>
