<svg width="24" height="24" viewBox="0 0 24 24" fill="none" xmlns="http://www.w3.org/2000/svg">
<path fill-rule="evenodd" clip-rule="evenodd" d="M7.5 5C5.62078 5 4 6.4812 4 9C4 10.603 5.14426 12.6097 6.92849 14.5785C8.5025 16.3153 10.4226 17.856 12 18.8356C13.5774 17.856 15.4975 16.3153 17.0715 14.5785C18.8557 12.6097 20 10.603 20 9C20 6.4812 18.3792 5 16.5 5C15.8508 5 15.2071 5.323 14.5507 5.92465C13.8952 6.52557 13.3255 7.31452 12.8321 8.0547C12.6466 8.3329 12.3344 8.5 12 8.5C11.6656 8.5 11.3534 8.3329 11.1679 8.0547C10.6745 7.31452 10.1048 6.52557 9.44928 5.92465C8.79292 5.323 8.14919 5 7.5 5ZM2 9C2 5.5188 4.37922 3 7.5 3C8.85081 3 9.95708 3.677 10.8007 4.45035C11.2467 4.8592 11.647 5.32021 12 5.77618C12.353 5.32021 12.7533 4.8592 13.1993 4.45035C14.0429 3.677 15.1492 3 16.5 3C19.6208 3 22 5.5188 22 9C22 11.397 20.3943 13.8903 18.5535 15.9215C16.6718 17.9979 14.3396 19.8149 12.4961 20.8682C12.1887 21.0439 11.8113 21.0439 11.5039 20.8682C9.66045 19.8149 7.32824 17.9979 5.44651 15.9215C3.60574 13.8903 2 11.397 2 9Z" fill="#3959CC"/>
</svg>
