<svg width="24" height="24" viewBox="0 0 24 24" fill="none" xmlns="http://www.w3.org/2000/svg">
<path d="M7.5 3C4.37922 3 2 5.5188 2 9C2 11.397 3.60574 13.8903 5.44651 15.9215C7.32824 17.9979 9.66045 19.8149 11.5039 20.8682C11.8113 21.0439 12.1887 21.0439 12.4961 20.8682C13.3362 20.3882 14.2779 19.7495 15.2321 19H13.1111C11.5963 19 10 17.8499 10 16C10 14.1501 11.5963 13 13.1111 13H20.7415C21.5014 11.7012 22 10.3356 22 9C22 5.5188 19.6208 3 16.5 3C15.1492 3 14.0429 3.677 13.1993 4.45035C12.7533 4.8592 12.353 5.32021 12 5.77618C11.647 5.32021 11.2467 4.8592 10.8007 4.45035C9.95708 3.677 8.85081 3 7.5 3Z" fill="#3959CC"/>
<path d="M12 16C12 15.4477 12.4975 15 13.1111 15H20.8889C21.5025 15 22 15.4477 22 16C22 16.5523 21.5025 17 20.8889 17H13.1111C12.4975 17 12 16.5523 12 16Z" fill="#3959CC"/>
</svg>
