<svg width="24" height="24" viewBox="0 0 24 24" fill="none" xmlns="http://www.w3.org/2000/svg">
<path d="M18 12C18 11.4477 17.5523 11 17 11C16.4477 11 16 11.4477 16 12V15.0002H13C12.4477 15.0002 12 15.448 12 16.0002C12 16.5525 12.4477 17.0002 13 17.0002H16V20C16 20.5523 16.4477 21 17 21C17.5523 21 18 20.5523 18 20V17.0002H21C21.5523 17.0002 22 16.5525 22 16.0002C22 15.448 21.5523 15.0002 21 15.0002H18V12Z" fill="#3959CC"/>
<path d="M4 9C4 6.4812 5.62078 5 7.5 5C8.14919 5 8.79292 5.323 9.44928 5.92465C10.1048 6.52557 10.6745 7.31452 11.1679 8.0547C11.3534 8.3329 11.6656 8.5 12 8.5C12.3344 8.5 12.6466 8.3329 12.8321 8.0547C13.3255 7.31452 13.8952 6.52557 14.5507 5.92465C15.2071 5.323 15.8508 5 16.5 5C18.3792 5 20 6.4812 20 9C20 9.50661 19.8857 10.0535 19.673 10.6269C20.2958 10.9373 20.8569 11.3527 21.3333 11.85C21.7497 10.9079 22 9.94646 22 9C22 5.5188 19.6208 3 16.5 3C15.1492 3 14.0429 3.677 13.1993 4.45035C12.7533 4.8592 12.353 5.32021 12 5.77618C11.647 5.32021 11.2467 4.8592 10.8007 4.45035C9.95708 3.677 8.85081 3 7.5 3C4.37922 3 2 5.5188 2 9C2 11.397 3.60574 13.8903 5.44651 15.9215C7.32824 17.9979 9.66045 19.8149 11.5039 20.8682C11.8113 21.0439 12.1887 21.0439 12.4961 20.8682C12.6809 20.7626 12.8706 20.6494 13.0643 20.5289C12.4408 19.9867 11.9304 19.3177 11.5731 18.5623C10.085 17.5814 8.36302 16.1614 6.92849 14.5785C5.14426 12.6097 4 10.603 4 9Z" fill="#3959CC"/>
</svg>
