<svg width="24" height="24" viewBox="0 0 24 24" fill="none" xmlns="http://www.w3.org/2000/svg">
<path fill-rule="evenodd" clip-rule="evenodd" d="M18 8C18 10.973 15.8377 13.441 13 13.917V16H16C16.5523 16 17 16.4477 17 17C17 17.5523 16.5523 18 16 18H13V21C13 21.5523 12.5523 22 12 22C11.4477 22 11 21.5523 11 21V18H8C7.44772 18 7 17.5523 7 17C7 16.4477 7.44772 16 8 16H11V13.917C8.16229 13.441 6 10.973 6 8C6 4.68629 8.68629 2 12 2C15.3137 2 18 4.68629 18 8ZM12 12C14.2091 12 16 10.2091 16 8C16 5.79086 14.2091 4 12 4C9.79086 4 8 5.79086 8 8C8 10.2091 9.79086 12 12 12Z" fill="#3959CC"/>
</svg>
