<svg width="24" height="24" viewBox="0 0 24 24" fill="none" xmlns="http://www.w3.org/2000/svg">
<path d="M12 6C13.1046 6 14 5.10457 14 4C14 2.89543 13.1046 2 12 2C10.8954 2 10 2.89543 10 4C10 5.10457 10.8954 6 12 6Z" fill="#3959CC"/>
<path d="M10 10.8421L7.86394 14.5039C7.58566 14.9809 6.97334 15.1421 6.49629 14.8638C6.01924 14.5855 5.8581 13.9732 6.13638 13.4961L9.63638 7.49613C9.81559 7.18891 10.1445 7 10.5002 7H13.5002C13.8558 7 14.1847 7.18891 14.3639 7.49613L17.8639 13.4961C18.1422 13.9732 17.9811 14.5855 17.504 14.8638C17.027 15.1421 16.4147 14.9809 16.1364 14.5039L14 10.8415V11.882L16.4472 16.7764C16.5247 16.9314 16.5164 17.1155 16.4253 17.2629C16.3342 17.4103 16.1733 17.5 16 17.5H14.5V21C14.5 21.5523 14.0523 22 13.5 22C12.9477 22 12.5 21.5523 12.5 21V17.5H11.5V21C11.5 21.5523 11.0523 22 10.5 22C9.94772 22 9.5 21.5523 9.5 21V17.5H8C7.82671 17.5 7.66578 17.4103 7.57468 17.2629C7.48357 17.1155 7.47529 16.9314 7.55279 16.7764L10 11.882V10.8421Z" fill="#3959CC"/>
</svg>
