<svg width="24" height="24" viewBox="0 0 24 24" fill="none" xmlns="http://www.w3.org/2000/svg">
<path fill-rule="evenodd" clip-rule="evenodd" d="M10.8293 7C10.4175 8.16519 9.30622 9 8 9C6.69378 9 5.58254 8.16519 5.17071 7H4C3.44772 7 3 6.55228 3 6C3 5.44772 3.44772 5 4 5H5.17071C5.58254 3.83481 6.69378 3 8 3C9.30622 3 10.4175 3.83481 10.8293 5H20C20.5523 5 21 5.44772 21 6C21 6.55228 20.5523 7 20 7H10.8293ZM9 6C9 6.55228 8.55228 7 8 7C7.44772 7 7 6.55228 7 6C7 5.44772 7.44772 5 8 5C8.55228 5 9 5.44772 9 6Z" fill="#3959CC"/>
<path fill-rule="evenodd" clip-rule="evenodd" d="M20 11H18.8293C18.4175 9.83481 17.3062 9 16 9C14.6938 9 13.5825 9.83481 13.1707 11H4C3.44772 11 3 11.4477 3 12C3 12.5523 3.44772 13 4 13H13.1707C13.5825 14.1652 14.6938 15 16 15C17.3062 15 18.4175 14.1652 18.8293 13H20C20.5523 13 21 12.5523 21 12C21 11.4477 20.5523 11 20 11ZM16 13C16.5523 13 17 12.5523 17 12C17 11.4477 16.5523 11 16 11C15.4477 11 15 11.4477 15 12C15 12.5523 15.4477 13 16 13Z" fill="#3959CC"/>
<path fill-rule="evenodd" clip-rule="evenodd" d="M12.8293 17H20C20.5523 17 21 17.4477 21 18C21 18.5523 20.5523 19 20 19H12.8293C12.4175 20.1652 11.3062 21 10 21C8.69378 21 7.58254 20.1652 7.17071 19H4C3.44772 19 3 18.5523 3 18C3 17.4477 3.44772 17 4 17H7.17071C7.58254 15.8348 8.69378 15 10 15C11.3062 15 12.4175 15.8348 12.8293 17ZM11 18C11 18.5523 10.5523 19 10 19C9.44772 19 9 18.5523 9 18C9 17.4477 9.44772 17 10 17C10.5523 17 11 17.4477 11 18Z" fill="#3959CC"/>
</svg>
