<svg width="24" height="24" viewBox="0 0 24 24" fill="none" xmlns="http://www.w3.org/2000/svg">
<path fill-rule="evenodd" clip-rule="evenodd" d="M9 4C8.44772 4 8 4.44772 8 5V12C8 12.5523 7.55228 13 7 13C6.60684 13 6.37203 13.083 6.24969 13.1809C6.16997 13.2446 6 13.4207 6 14C6 14.1168 6.04401 14.3418 6.19545 14.6897C6.34104 15.0242 6.55756 15.4086 6.82951 15.8241C7.3732 16.6548 8.08799 17.5338 8.74617 18.2714C8.90965 18.4547 9 18.6916 9 18.9372V20H15V19C15 18.7836 15.0702 18.5731 15.2 18.4C15.8538 17.5283 16.3094 16.4517 16.6006 15.4267C16.8926 14.3987 17 13.4915 17 13C17 12.7016 16.7815 12.2189 16.1183 11.7597C15.4813 11.3187 14.557 11 13.5 11H11C10.4477 11 10 10.5523 10 10V5C10 4.44772 9.55228 4 9 4ZM6 5C6 3.34315 7.34315 2 9 2C10.6569 2 12 3.34315 12 5V9H13.5C14.943 9 16.2687 9.43127 17.2567 10.1153C18.2185 10.7811 19 11.7984 19 13C19 13.7085 18.8574 14.8013 18.5244 15.9733C18.2177 17.053 17.7332 18.258 17 19.3218V20C17 21.1046 16.1046 22 15 22H9C7.89543 22 7 21.1046 7 20V19.3148C6.37313 18.594 5.69995 17.7504 5.15607 16.9194C4.84709 16.4473 4.56722 15.9602 4.36164 15.4879C4.16192 15.0291 4 14.512 4 14C4 12.9793 4.33003 12.1554 5.00031 11.6191C5.31173 11.37 5.65701 11.2157 6 11.1234V5Z" fill="#3959CC"/>
</svg>
