<svg width="24" height="24" viewBox="0 0 24 24" fill="none" xmlns="http://www.w3.org/2000/svg">
<path fill-rule="evenodd" clip-rule="evenodd" d="M20 10C20 9.44772 19.5523 9 19 9H12C11.4477 9 11 8.55228 11 8C11 7.60684 10.917 7.37203 10.8191 7.24969C10.7554 7.16997 10.5793 7 10 7C9.88319 7 9.65821 7.04401 9.3103 7.19545C8.97582 7.34104 8.59142 7.55756 8.1759 7.82951C7.34519 8.3732 6.46622 9.08799 5.72855 9.74617C5.54533 9.90965 5.30836 10 5.0628 10H4V16H5C5.21637 16 5.4269 16.0702 5.6 16.2C6.47168 16.8538 7.54831 17.3094 8.57328 17.6006C9.60126 17.8926 10.5085 18 11 18C11.2984 18 11.7811 17.7815 12.2403 17.1183C12.6813 16.4813 13 15.557 13 14.5V12C13 11.4477 13.4477 11 14 11H19C19.5523 11 20 10.5523 20 10ZM19 7C20.6569 7 22 8.34315 22 10C22 11.6569 20.6569 13 19 13H15V14.5C15 15.943 14.5687 17.2687 13.8847 18.2567C13.2189 19.2185 12.2016 20 11 20C10.2915 20 9.19874 19.8574 8.02672 19.5244C6.94699 19.2177 5.74202 18.7332 4.67821 18H4C2.89543 18 2 17.1046 2 16V10C2 8.89543 2.89543 8 4 8H4.68519C5.40599 7.37313 6.24964 6.69995 7.08065 6.15607C7.55273 5.84709 8.0398 5.56722 8.51209 5.36164C8.97093 5.16192 9.48802 5 10 5C11.0207 5 11.8446 5.33003 12.3809 6.00031C12.63 6.31173 12.7843 6.65701 12.8766 7H19Z" fill="#3959CC"/>
</svg>
