<svg width="24" height="24" viewBox="0 0 24 24" fill="none" xmlns="http://www.w3.org/2000/svg">
<path fill-rule="evenodd" clip-rule="evenodd" d="M4 10C4 9.44772 4.44772 9 5 9H12C12.5523 9 13 8.55228 13 8C13 7.60684 13.083 7.37203 13.1809 7.24969C13.2446 7.16997 13.4207 7 14 7C14.1168 7 14.3418 7.04401 14.6897 7.19545C15.0242 7.34104 15.4086 7.55756 15.8241 7.82951C16.6548 8.3732 17.5338 9.08799 18.2714 9.74617C18.4547 9.90965 18.6916 10 18.9372 10H20V16H19C18.7836 16 18.5731 16.0702 18.4 16.2C17.5283 16.8538 16.4517 17.3094 15.4267 17.6006C14.3987 17.8926 13.4915 18 13 18C12.7016 18 12.2189 17.7815 11.7597 17.1183C11.3187 16.4813 11 15.557 11 14.5V12C11 11.4477 10.5523 11 10 11H5C4.44772 11 4 10.5523 4 10ZM5 7C3.34315 7 2 8.34315 2 10C2 11.6569 3.34315 13 5 13H9V14.5C9 15.943 9.43127 17.2687 10.1153 18.2567C10.7811 19.2185 11.7984 20 13 20C13.7085 20 14.8013 19.8574 15.9733 19.5244C17.053 19.2177 18.258 18.7332 19.3218 18H20C21.1046 18 22 17.1046 22 16V10C22 8.89543 21.1046 8 20 8H19.3148C18.594 7.37313 17.7504 6.69995 16.9194 6.15607C16.4473 5.84709 15.9602 5.56722 15.4879 5.36164C15.0291 5.16192 14.512 5 14 5C12.9793 5 12.1554 5.33003 11.6191 6.00031C11.37 6.31173 11.2157 6.65701 11.1234 7H5Z" fill="#3959CC"/>
</svg>
