<svg width="24" height="24" viewBox="0 0 24 24" fill="none" xmlns="http://www.w3.org/2000/svg">
<path fill-rule="evenodd" clip-rule="evenodd" d="M2.3073 3.27877C2.64371 2.95015 3.15309 2.71794 3.64398 2.55388C4.18122 2.37435 4.84043 2.22995 5.57813 2.14878C7.05288 1.98651 8.9064 2.06995 10.81 2.6907C12.5604 3.26148 14.5791 3.50921 16.4152 3.52876C18.2539 3.54833 19.8089 3.33836 20.6648 3.05757C20.7177 3.03874 20.7727 3.02425 20.8293 3.01451C20.9541 2.99274 21.079 2.99541 21.1984 3.01967C21.3353 3.04722 21.462 3.10273 21.5725 3.17999C21.6965 3.26642 21.8018 3.38141 21.8772 3.51939C21.9309 3.61736 21.9688 3.72532 21.9872 3.83978C21.9973 3.90119 22.0014 3.96259 22 4.02331V13.9769C22.0016 14.0457 21.996 14.1138 21.9838 14.1804C21.9553 14.3364 21.8907 14.4799 21.7988 14.6017C21.7216 14.7044 21.6241 14.793 21.5097 14.8605C21.4414 14.9011 21.3679 14.9337 21.2904 14.9572C20.1721 15.3256 18.3549 15.6426 16.364 15.6705C14.3576 15.6986 12.0737 15.435 10.0939 14.5551C8.53748 13.8633 7.06449 13.9083 5.89398 14.2028C5.02484 14.4214 4.36715 14.7656 4 15.0079L4 21C4 21.5523 3.55229 22 3 22C2.44772 22 2 21.5523 2 21L2 4C2 3.77718 2.07287 3.57139 2.19609 3.40515C2.22959 3.35995 2.26681 3.31767 2.3073 3.27877ZM20 13.2431V5.26779C18.9709 5.44817 17.7161 5.54272 16.3939 5.52864C14.4163 5.50759 12.185 5.24271 10.19 4.59216C8.59361 4.0716 7.03046 4.00105 5.79688 4.13678C5.18041 4.20461 4.66254 4.32222 4.2779 4.45076C4.16733 4.48771 4.07542 4.52303 4 4.555L4 12.7452C4.42006 12.5603 4.89346 12.3922 5.40603 12.2632C6.91885 11.8826 8.86253 11.8192 10.9061 12.7275C12.5263 13.4475 14.4924 13.6966 16.336 13.6707C17.7747 13.6505 19.0772 13.4641 20 13.2431Z" fill="#3959CC"/>
</svg>
