<svg width="24" height="24" viewBox="0 0 24 24" fill="none" xmlns="http://www.w3.org/2000/svg">
<path fill-rule="evenodd" clip-rule="evenodd" d="M13.2656 6.21788C12.8962 6.62839 12.8962 7.29396 13.2656 7.70447C13.6351 8.11498 14.2341 8.11498 14.6036 7.70447L16.5539 5.53747V12.9999C16.5539 13.0332 16.5553 13.0662 16.558 13.0987C14.5249 13.5318 13 15.3378 13 17.5C13 19.9853 15.0147 22 17.5 22C19.9853 22 22 19.9853 22 17.5C22 15.3377 20.475 13.5317 18.4419 13.0987C18.4446 13.0662 18.446 13.0332 18.446 12.9999V5.53788L20.3959 7.70447C20.7654 8.11498 21.3644 8.11498 21.7338 7.70447C22.1033 7.29396 22.1033 6.62839 21.7338 6.21788L18.1706 2.25872C18.1679 2.25576 18.1653 2.25281 18.1626 2.24988C17.7927 1.84612 17.1982 1.84836 16.8308 2.25661L13.2656 6.21788ZM20 17.5C20 18.8807 18.8807 20 17.5 20C16.1193 20 15 18.8807 15 17.5C15 16.1193 16.1193 15 17.5 15C18.8807 15 20 16.1193 20 17.5Z" fill="#3959CC"/>
<path fill-rule="evenodd" clip-rule="evenodd" d="M11 6.49999C11 8.64371 9.501 10.4373 7.494 10.8898C7.49796 10.926 7.5 10.9628 7.5 11L7.5 16H9.5C10.0523 16 10.5 16.4477 10.5 17C10.5 17.5523 10.0523 18 9.5 18H7.5V21C7.5 21.5523 7.05229 22 6.5 22C5.94772 22 5.5 21.5523 5.5 21L5.5 18H3.5C2.94772 18 2.5 17.5523 2.5 17C2.5 16.4477 2.94772 16 3.5 16H5.5L5.5 11C5.5 10.9628 5.50204 10.926 5.506 10.8898C3.499 10.4373 2 8.64371 2 6.49999C2 4.01471 4.01472 1.99999 6.5 1.99999C8.98528 1.99999 11 4.01471 11 6.49999ZM9 6.49999C9 7.8807 7.88071 8.99999 6.5 8.99999C5.11929 8.99999 4 7.8807 4 6.49999C4 5.11928 5.11929 3.99999 6.5 3.99999C7.88071 3.99999 9 5.11928 9 6.49999Z" fill="#3959CC"/>
</svg>
