<svg width="24" height="24" viewBox="0 0 24 24" fill="none" xmlns="http://www.w3.org/2000/svg">
<path d="M9 5C9 6.10457 8.10457 7 7 7C5.89543 7 5 6.10457 5 5C5 3.89543 5.89543 3 7 3C8.10457 3 9 3.89543 9 5Z" fill="#3959CC"/>
<path d="M19 5C19 6.10457 18.1046 7 17 7C15.8954 7 15 6.10457 15 5C15 3.89543 15.8954 3 17 3C18.1046 3 19 3.89543 19 5Z" fill="#3959CC"/>
<path d="M3.5 11C3.5 9.61929 4.61929 8.5 6 8.5H8C9.38071 8.5 10.5 9.61929 10.5 11V16C10.5 16.2761 10.2761 16.5 10 16.5H8.5V21C8.5 21.2761 8.27614 21.5 8 21.5H6C5.72386 21.5 5.5 21.2761 5.5 21V16.5H4C3.72386 16.5 3.5 16.2761 3.5 16V11Z" fill="#3959CC"/>
<path d="M14.078 10.8439C14.3824 9.47439 15.5971 8.5 17 8.5C18.4029 8.5 19.6176 9.47439 19.922 10.8439L21.4881 17.8915C21.521 18.0396 21.4849 18.1946 21.39 18.3129C21.2951 18.4312 21.1517 18.5 21 18.5H18.5V21C18.5 21.2761 18.2761 21.5 18 21.5H16C15.7239 21.5 15.5 21.2761 15.5 21V18.5H13C12.8483 18.5 12.7049 18.4312 12.61 18.3129C12.5151 18.1946 12.479 18.0396 12.5119 17.8915L14.078 10.8439Z" fill="#3959CC"/>
</svg>
