<svg width="24" height="24" viewBox="0 0 24 24" fill="none" xmlns="http://www.w3.org/2000/svg">
<path d="M10.5 13.25C10.5 13.9404 9.94036 14.5 9.25 14.5C8.55964 14.5 8 13.9404 8 13.25C8 12.5596 8.55964 12 9.25 12C9.94036 12 10.5 12.5596 10.5 13.25Z" fill="#3959CC"/>
<path d="M14.75 14.5C15.4404 14.5 16 13.9404 16 13.25C16 12.5596 15.4404 12 14.75 12C14.0596 12 13.5 12.5596 13.5 13.25C13.5 13.9404 14.0596 14.5 14.75 14.5Z" fill="#3959CC"/>
<path fill-rule="evenodd" clip-rule="evenodd" d="M20.8598 12.5909C20.9519 12.0745 21 11.5429 21 11C21 6.02944 16.9706 2 12 2C7.02944 2 3 6.02944 3 11C3 11.5429 3.04807 12.0745 3.14018 12.591C3.22601 13.8559 3.25644 15.3007 3.1787 16.6276C3.1234 17.5712 3.01517 18.4215 2.84671 19.092C2.6672 19.8064 2.46093 20.1419 2.33795 20.2505C2.02639 20.5258 1.91763 20.9651 2.06479 21.3539C2.21194 21.7427 2.58431 21.9999 3.00004 21.9999L3.03083 21.9999C3.77801 22 4.92073 22.0001 6.14536 21.5679C7.1455 21.2149 8.16302 20.5893 9.09601 19.5212C10.0071 19.8316 10.9839 20 12 20C13.0161 20 13.9929 19.8316 14.904 19.5212C15.837 20.5893 16.8545 21.2149 17.8546 21.5679C19.0793 22.0001 20.222 22 20.9692 21.9999L21 21.9999C21.4157 21.9999 21.7881 21.7427 21.9352 21.3539C22.0824 20.9651 21.9736 20.5258 21.6621 20.2505C21.5391 20.1419 21.3328 19.8064 21.1533 19.092C20.9848 18.4215 20.8766 17.5712 20.8213 16.6276C20.7436 15.3007 20.774 13.8559 20.8598 12.5909ZM18.9998 10.9442C18.9514 11.3695 18.9081 11.8385 18.8728 12.3354C18.2494 15.5627 15.4093 18 12 18C8.59069 18 5.75064 15.5627 5.12724 12.3354C5.09191 11.8385 5.04858 11.3695 5.00022 10.9442C5.00367 10.5018 5.04816 10.0692 5.13007 9.64996C6.08501 10.4143 7.36861 10.824 8.57867 10.9526C10.1896 11.1239 12.0173 10.8395 13.3372 9.89892C14.3031 10.3346 15.4433 10.7042 16.801 10.98C17.3422 11.09 17.8701 10.7404 17.98 10.1992C18.09 9.65795 17.7404 9.13006 17.1992 9.02009C13.4939 8.26727 11.8204 6.79918 10.8081 5.4109C10.4827 4.96465 9.85715 4.86667 9.4109 5.19206C8.96465 5.51745 8.86667 6.14299 9.19206 6.58924C9.73123 7.32867 10.4032 8.05479 11.2932 8.71291C10.5713 8.96371 9.68936 9.05943 8.7901 8.96383C7.38675 8.81464 6.32491 8.24695 5.90184 7.56058C7.10331 5.43491 9.38409 4 12 4C15.8474 4 18.9698 7.10391 18.9998 10.9442ZM18.8317 16.8592C18.2473 17.54 17.5628 18.1325 16.8011 18.6138C17.3849 19.1678 17.9725 19.4886 18.5203 19.6819C18.7832 19.7747 19.0425 19.8405 19.297 19.887C19.2669 19.7841 19.2392 19.6813 19.2136 19.5794C19.0108 18.7723 18.893 17.8278 18.8317 16.8592ZM4.78642 19.5794C4.9892 18.7723 5.10702 17.8278 5.16828 16.8592C5.75273 17.54 6.43718 18.1325 7.19887 18.6138C6.61515 19.1678 6.02752 19.4886 5.47972 19.6819C5.21679 19.7747 4.95748 19.8405 4.70304 19.887C4.73311 19.7841 4.76079 19.6813 4.78642 19.5794Z" fill="#3959CC"/>
</svg>
