<svg width="24" height="24" viewBox="0 0 24 24" fill="none" xmlns="http://www.w3.org/2000/svg">
<path fill-rule="evenodd" clip-rule="evenodd" d="M16.134 7.57684C15.0697 6.56365 13.7244 6.04427 12.2174 6.04427C9.55244 6.04427 7.29616 7.84079 6.48731 10.2674L6.48702 10.2671V10.2674C6.28267 10.8804 6.16347 11.536 6.16347 12.2171C6.16347 12.8983 6.27416 13.5539 6.48702 14.1669L6.48691 14.167H6.48731C7.29616 16.5936 9.55244 18.3901 12.2174 18.3901C13.5964 18.3901 14.7627 18.0156 15.6821 17.4028V17.4022C16.7549 16.6785 17.4786 15.6142 17.7255 14.3541H12.2168V10.5142H21.8379C21.9401 11.1357 21.9997 11.7743 21.9997 12.4469C21.9997 15.5545 20.8929 18.1769 18.9688 19.9563L18.9692 19.9567C17.2834 21.5148 14.976 22.4343 12.2174 22.4343C8.22422 22.4343 4.77594 20.1355 3.09863 16.7979V16.7976L3.09834 16.7978C2.40017 15.4185 2 13.8689 2 12.2171C2 10.5654 2.40017 9.01579 3.09834 7.63647H3.09867L3.09863 7.63644C4.77594 4.29885 8.22422 2 12.2174 2C14.976 2 17.2834 3.0132 19.0458 4.66496L16.134 7.57684Z" fill="#3D5FCF"/>
</svg>
