<svg width="24" height="24" viewBox="0 0 24 24" fill="none" xmlns="http://www.w3.org/2000/svg">
<path d="M9.6578 9.204C9.1638 9.204 8.7998 8.775 8.7998 8.203C8.7998 7.969 8.8518 7.592 9.7748 7.111C10.7108 6.63 11.3478 6.5 12.0498 6.5C14.2728 6.5 15.5078 7.956 15.5078 9.542C15.5078 10.8796 14.7295 11.5426 14.0281 12.1401L14.0258 12.142C13.2179 12.8345 13.1817 12.983 13.0436 13.5484L13.0378 13.572C12.9728 13.858 12.8818 14.235 12.0108 14.235C11.0618 14.235 10.9838 13.715 10.9838 13.351C10.9838 12.207 11.8288 11.531 12.1408 11.284C13.1678 10.452 13.4538 10.218 13.4538 9.607C13.4538 8.866 12.8168 8.385 11.9198 8.385C11.4518 8.385 10.8668 8.515 10.3728 8.879C10.0868 9.1 9.9438 9.204 9.6578 9.204Z" fill="#3959CC"/>
<path d="M10.7368 16.107C10.7368 15.418 11.2958 14.859 11.9978 14.859C12.6738 14.859 13.2458 15.405 13.2458 16.107C13.2458 16.822 12.6608 17.368 11.9978 17.368C11.3088 17.368 10.7368 16.822 10.7368 16.107Z" fill="#3959CC"/>
<path fill-rule="evenodd" clip-rule="evenodd" d="M22 12C22 17.5228 17.5228 22 12 22C6.47715 22 2 17.5228 2 12C2 6.47715 6.47715 2 12 2C17.5228 2 22 6.47715 22 12ZM20 12C20 16.4183 16.4183 20 12 20C7.58172 20 4 16.4183 4 12C4 7.58172 7.58172 4 12 4C16.4183 4 20 7.58172 20 12Z" fill="#3959CC"/>
</svg>
