<svg width="24" height="24" viewBox="0 0 24 24" fill="none" xmlns="http://www.w3.org/2000/svg">
<path fill-rule="evenodd" clip-rule="evenodd" d="M3.71992 2.3C3.31992 1.9 2.71992 1.9 2.31992 2.3C1.91992 2.7 1.91992 3.3 2.31992 3.7L4.91992 6.3C3.21992 7.7 1.81992 9.5 1.11992 11.7C1.01992 11.9 1.01992 12.1 1.11992 12.3C2.71992 16.8 7.01992 20 12.0199 20C13.9199 20 15.7199 19.5 17.3199 18.7L20.3199 21.7C20.5199 21.9 20.8199 22 21.0199 22C21.2199 22 21.5199 21.9 21.7199 21.7C22.1199 21.3 22.1199 20.7 21.7199 20.3L3.71992 2.3ZM12.0199 17C9.21992 17 7.01992 14.8 7.01992 12C7.01992 11 7.31992 10 7.81992 9.3L9.31992 10.8C9.11992 11.1 9.01992 11.5 9.01992 12C9.01992 13.7 10.3199 15 12.0199 15C12.5199 15 12.9199 14.9 13.3199 14.7L14.8199 16.2C14.0199 16.7 13.0199 17 12.0199 17Z" fill="#3959CC"/>
<path d="M22.92 11.6999C21.42 7.1999 17.12 3.8999 12.02 3.8999C10.62 3.8999 9.32002 4.1999 8.02002 4.5999L10.62 7.1999C10.693 7.18531 10.7638 7.17072 10.8331 7.15644C11.2389 7.07285 11.593 6.9999 12.02 6.9999C14.82 6.9999 17.02 9.1999 17.02 11.9999C17.02 12.427 16.9471 12.7811 16.8635 13.1868C16.8492 13.2561 16.8346 13.327 16.82 13.3999L20.22 16.7999C21.42 15.5999 22.42 14.0999 23.02 12.3999C23.02 12.0999 23.02 11.8999 22.92 11.6999Z" fill="#3959CC"/>
<path d="M12.52 9L15.02 11.5C14.82 10.3 13.72 9.2 12.52 9Z" fill="#3959CC"/>
</svg>
