<svg width="24" height="24" viewBox="0 0 24 24" fill="none" xmlns="http://www.w3.org/2000/svg">
<path fill-rule="evenodd" clip-rule="evenodd" d="M3.70711 2.29289C3.31658 1.90237 2.68342 1.90237 2.29289 2.29289C1.90237 2.68342 1.90237 3.31658 2.29289 3.70711L4.91345 6.32766C3.18345 7.70155 1.83856 9.566 1.0999 11.6999C0.999902 11.8999 0.999902 12.0999 1.0999 12.2999C2.6999 16.7999 6.9999 19.9999 11.9999 19.9999C13.9406 19.9999 15.7006 19.5178 17.2797 18.6939L20.2929 21.7071C20.6834 22.0976 21.3166 22.0976 21.7071 21.7071C22.0976 21.3166 22.0976 20.6834 21.7071 20.2929L3.70711 2.29289ZM15.8418 17.256L14.744 16.1582C13.9522 16.6899 12.9983 16.9999 12 16.9999C9.2 16.9999 7 14.7999 7 11.9999C7 11.0016 7.31003 10.0477 7.84167 9.25588L6.37354 7.78775C4.94702 8.85057 3.80726 10.2708 3.0999 11.9999C4.4999 15.5999 7.8999 18.0999 11.9999 18.0999C13.3557 18.0999 14.6605 17.7944 15.8418 17.256ZM13.2828 14.697L9.30287 10.7171C9.11149 11.1001 9 11.5277 9 11.9999C9 13.6999 10.3 14.9999 12 14.9999C12.4722 14.9999 12.8998 14.8884 13.2828 14.697Z" fill="#3959CC"/>
<path d="M12.5 8.9999C13.8 9.1999 14.8 10.1999 15 11.4999L16.8 13.2999C16.9 12.8999 17 12.3999 17 11.8999C17 9.0999 14.8 6.8999 12 6.8999C11.5729 6.8999 11.2188 6.97285 10.8131 7.05644C10.7438 7.07072 10.6729 7.08531 10.6 7.0999L12.5 8.9999Z" fill="#3959CC"/>
<path d="M22.8999 11.6999C21.3999 7.1999 17.0999 3.8999 11.9999 3.8999C10.5999 3.8999 9.2999 4.1999 7.9999 4.5999L9.5999 6.1999C10.3999 5.9999 11.1999 5.8999 11.9999 5.8999C16.0999 5.8999 19.4999 8.3999 20.8999 11.9999C20.3999 13.2999 19.6999 14.3999 18.6999 15.2999L20.0999 16.6999C21.2999 15.4999 22.2999 13.9999 22.8999 12.2999C22.9999 12.0999 22.9999 11.8999 22.8999 11.6999Z" fill="#3959CC"/>
</svg>
