<svg width="24" height="24" viewBox="0 0 24 24" fill="none" xmlns="http://www.w3.org/2000/svg">
<path fill-rule="evenodd" clip-rule="evenodd" d="M15.4752 2.64641C15.8658 2.25588 16.4989 2.25588 16.8895 2.64641L21.1321 6.88905C21.5226 7.27957 21.5226 7.91274 21.1321 8.30326C20.7416 8.69379 20.1084 8.69379 19.7179 8.30326L19.3643 7.94972L17.1271 10.187L19.4254 12.4854C19.816 12.8759 19.816 13.5091 19.4254 13.8996C19.0349 14.2901 18.4018 14.2901 18.0112 13.8996L17.3041 13.1925L10.515 19.9815C9.92099 20.5756 9.01906 20.7351 8.25734 20.3808L6.14704 19.3992L4.22224 21.324C3.83172 21.7146 3.19855 21.7146 2.80803 21.324C2.41751 20.9335 2.41751 20.3003 2.80803 19.9098L4.73302 17.9848L3.75182 15.8753C3.39754 15.1135 3.55703 14.2116 4.15105 13.6176L10.94 6.82861L10.2331 6.12141C9.84254 5.73089 9.84254 5.09772 10.2331 4.7072C10.6236 4.31668 11.2568 4.31668 11.6473 4.7072L13.5915 6.65146L15.8288 4.41418L15.4752 4.06062C15.0847 3.6701 15.0847 3.03693 15.4752 2.64641ZM17.95 6.53563L17.2429 5.82852L15.1501 7.92136L15.8572 8.62846L17.95 6.53563ZM15.8898 11.7784L12.3542 8.24283L10.7632 9.83386L12.5308 11.6015C12.8237 11.8943 12.8237 12.3692 12.5308 12.6621C12.2379 12.955 11.763 12.955 11.4701 12.6621L9.70253 10.8945L8.64198 11.9551L10.4097 13.7228C10.7026 14.0157 10.7026 14.4906 10.4097 14.7834C10.1168 15.0763 9.64192 15.0763 9.34903 14.7834L7.58132 13.0157L5.56527 15.0318L6.68766 17.4449L9.1008 18.5673L15.8898 11.7784Z" fill="#3959CC"/>
</svg>
