<svg width="24" height="24" viewBox="0 0 24 24" fill="none" xmlns="http://www.w3.org/2000/svg">
<path d="M12 5.99988C10.8954 5.99988 10 5.10445 10 3.99988C10 2.89531 10.8954 1.99988 12 1.99988C13.1046 1.99988 14 2.89531 14 3.99988C14 5.10445 13.1046 5.99988 12 5.99988Z" fill="#3959CC"/>
<path d="M12 13.9999C10.8954 13.9999 10 13.1044 10 11.9999C10 10.8953 10.8954 9.99988 12 9.99988C13.1046 9.99988 14 10.8953 14 11.9999C14 13.1044 13.1046 13.9999 12 13.9999Z" fill="#3959CC"/>
<path d="M10 19.9999C10 21.1044 10.8954 21.9999 12 21.9999C13.1046 21.9999 14 21.1044 14 19.9999C14 18.8953 13.1046 17.9999 12 17.9999C10.8954 17.9999 10 18.8953 10 19.9999Z" fill="#3959CC"/>
</svg>
