<svg width="24" height="24" viewBox="0 0 24 24" fill="none" xmlns="http://www.w3.org/2000/svg">
<path d="M13 3C13 2.44772 12.5523 2 12 2C11.4477 2 11 2.44772 11 3V4C11 4.55228 11.4477 5 12 5C12.5523 5 13 4.55228 13 4V3Z" fill="#3959CC"/>
<path d="M19.4142 5.70688L18.7071 6.41399C18.3166 6.80451 17.6834 6.80451 17.2929 6.41399C16.9024 6.02346 16.9024 5.3903 17.2929 4.99977L18 4.29267C18.3905 3.90214 19.0237 3.90214 19.4142 4.29267C19.8047 4.68319 19.8047 5.31636 19.4142 5.70688Z" fill="#3959CC"/>
<path d="M4.29289 4.29304C4.68342 3.90252 5.31658 3.90252 5.70711 4.29304L6.41421 5.00015C6.80474 5.39068 6.80474 6.02384 6.41421 6.41436C6.02369 6.80489 5.39052 6.80489 5 6.41436L4.29289 5.70726C3.90237 5.31673 3.90237 4.68357 4.29289 4.29304Z" fill="#3959CC"/>
<path fill-rule="evenodd" clip-rule="evenodd" d="M8.5 18C8.5 18.3701 8.7011 18.6933 9 18.8662V20C9 21.1046 9.89543 22 11 22H13C14.1046 22 15 21.1046 15 20V18.8662C15.2989 18.6933 15.5 18.3701 15.5 18C15.5 17.7907 15.4962 17.6147 15.4929 17.4596C15.4866 17.1677 15.482 16.9494 15.5069 16.7207C15.5375 16.4403 15.6039 16.3103 15.7071 16.2071C16.2661 15.6481 16.7252 15.0493 17.0388 14.3436C17.3544 13.6336 17.5 12.8667 17.5 12C17.5 9.59789 15.6914 6.5 12 6.5C8.30865 6.5 6.5 9.59789 6.5 12C6.5 12.8667 6.64563 13.6336 6.96119 14.3436C7.27482 15.0493 7.73386 15.6481 8.29289 16.2071C8.39613 16.3103 8.46247 16.4403 8.49307 16.7207C8.51803 16.9494 8.51336 17.1676 8.5071 17.4595C8.50377 17.6147 8.5 17.7906 8.5 18ZM12 8.5C9.69135 8.5 8.5 10.4021 8.5 12C8.5 12.6333 8.60437 13.1164 8.78881 13.5314C8.97518 13.9507 9.26614 14.3519 9.70711 14.7929C10.2363 15.3221 10.42 15.9422 10.4813 16.5037C10.4984 16.6608 10.5065 16.8298 10.5096 17H13.4904C13.4935 16.8298 13.5016 16.6608 13.5187 16.5037C13.58 15.9422 13.7637 15.3221 14.2929 14.7929C14.7339 14.3519 15.0248 13.9507 15.2112 13.5314C15.3956 13.1164 15.5 12.6333 15.5 12C15.5 10.4021 14.3086 8.5 12 8.5ZM11 20V19H13V20H11Z" fill="#3959CC"/>
<path d="M3 11C2.44772 11 2 11.4477 2 12C2 12.5523 2.44772 13 3 13H4C4.55228 13 5 12.5523 5 12C5 11.4477 4.55228 11 4 11H3Z" fill="#3959CC"/>
<path d="M19 12C19 11.4477 19.4477 11 20 11H21C21.5523 11 22 11.4477 22 12C22 12.5523 21.5523 13 21 13H20C19.4477 13 19 12.5523 19 12Z" fill="#3959CC"/>
</svg>
