<svg width="24" height="24" viewBox="0 0 24 24" fill="none" xmlns="http://www.w3.org/2000/svg">
<path fill-rule="evenodd" clip-rule="evenodd" d="M8.5 18.8662C8.2011 18.6933 8 18.3701 8 18C8 16.7734 7.59436 15.4955 7.09382 14.4229C6.95988 14.1359 6.79596 13.8254 6.60672 13.4669L6.52154 13.3054C6.30184 12.8884 6.05989 12.4226 5.83764 11.9272C5.3953 10.9415 5 9.77415 5 8.5C5 5.50569 7.39147 2 12 2C16.6085 2 19 5.50569 19 8.5C19 9.77415 18.6047 10.9415 18.1624 11.9272C17.9401 12.4226 17.6982 12.8884 17.4785 13.3054L17.3933 13.4669C17.2041 13.8253 17.0401 14.1359 16.9062 14.4229C16.4056 15.4955 16 16.7734 16 18C16 18.3701 15.7989 18.6933 15.5 18.8662V20C15.5 21.1046 14.6046 22 13.5 22H10.5C9.39543 22 8.5 21.1046 8.5 20V18.8662ZM7 8.5C7 6.49431 8.60853 4 12 4C15.3915 4 17 6.49431 17 8.5C17 9.36871 16.7286 10.2371 16.3376 11.1085C16.1432 11.5417 15.9268 11.9598 15.709 12.3731L15.6263 12.5298C15.44 12.8827 15.2503 13.2419 15.0938 13.5771C14.6445 14.5399 14.2194 15.7334 14.0631 17H9.9369C9.7806 15.7334 9.35549 14.5399 8.90618 13.5771C8.74973 13.2419 8.56001 12.8827 8.37364 12.5298L8.29096 12.3731C8.07316 11.9598 7.85677 11.5417 7.66236 11.1085C7.27137 10.2371 7 9.36871 7 8.5ZM10.5 19V20H13.5V19H10.5Z" fill="#3959CC"/>
</svg>
