<svg width="24" height="24" viewBox="0 0 24 24" fill="none" xmlns="http://www.w3.org/2000/svg">
<path fill-rule="evenodd" clip-rule="evenodd" d="M5.6571 9.34308C6.04762 8.95256 6.68079 8.95256 7.07131 9.34308C7.46184 9.73361 7.46184 10.3668 7.07131 10.7573L5.6571 12.1715C4.095 13.7336 4.095 16.2663 5.6571 17.8284C7.2192 19.3905 9.75186 19.3905 11.314 17.8284L12.7282 16.4142C13.1187 16.0236 13.7519 16.0236 14.1424 16.4142C14.5329 16.8047 14.5329 17.4378 14.1424 17.8284L12.7282 19.2426C10.385 21.5857 6.58603 21.5857 4.24288 19.2426C1.89974 16.8994 1.89974 13.1004 4.24289 10.7573L5.6571 9.34308ZM16.2637 12.8786C15.8732 13.2691 15.8732 13.9023 16.2637 14.2928C16.6542 14.6834 17.2874 14.6834 17.6779 14.2928L19.0921 12.8786C21.4353 10.5355 21.4353 6.73648 19.0921 4.39334C16.749 2.05019 12.95 2.05019 10.6068 4.39334L9.19263 5.80755C8.80211 6.19808 8.80211 6.83124 9.19263 7.22176C9.58316 7.61229 10.2163 7.61229 10.6068 7.22176L12.0211 5.80755C13.5832 4.24545 16.1158 4.24545 17.6779 5.80755C19.24 7.36965 19.24 9.90231 17.6779 11.4644L16.2637 12.8786ZM9.19263 12.8786C8.80211 13.2691 8.80211 13.9023 9.19263 14.2928C9.58316 14.6834 10.2163 14.6834 10.6068 14.2928L14.1424 10.7573C14.5329 10.3668 14.5329 9.73361 14.1424 9.34308C13.7519 8.95256 13.1187 8.95256 12.7282 9.34308L9.19263 12.8786Z" fill="#3959CC"/>
</svg>
