<svg width="24" height="24" viewBox="0 0 24 24" fill="none" xmlns="http://www.w3.org/2000/svg">
<path d="M12 6C13.1046 6 14 5.10457 14 4C14 2.89543 13.1046 2 12 2C10.8954 2 10 2.89543 10 4C10 5.10457 10.8954 6 12 6Z" fill="#3959CC"/>
<path d="M14.5005 10.6005L16.0772 14.3846C16.2896 14.8944 16.8751 15.1355 17.3849 14.9231C17.8947 14.7107 18.1358 14.1252 17.9233 13.6154L15.4233 7.61538C15.2681 7.24274 14.904 7 14.5003 7H9.50026C9.09656 7 8.73245 7.24274 8.57718 7.61538L6.07718 13.6154C5.86477 14.1252 6.10584 14.7107 6.61565 14.9231C7.12545 15.1355 7.71092 14.8944 7.92334 14.3846L9.50049 10.5995V21C9.50049 21.5523 9.9482 22 10.5005 22C11.0528 22 11.5005 21.5523 11.5005 21V16H12.5V21C12.5 21.5523 12.9477 22 13.5 22C14.0523 22 14.5 21.5523 14.5 21L14.5005 10.6005Z" fill="#3959CC"/>
</svg>
