<svg width="24" height="24" viewBox="0 0 24 24" fill="none" xmlns="http://www.w3.org/2000/svg">
<path d="M8.75 13.5C9.44036 13.5 10 12.9404 10 12.25C10 11.5596 9.44036 11 8.75 11C8.05964 11 7.5 11.5596 7.5 12.25C7.5 12.9404 8.05964 13.5 8.75 13.5Z" fill="#3959CC"/>
<path d="M16.5 12.25C16.5 12.9404 15.9404 13.5 15.25 13.5C14.5596 13.5 14 12.9404 14 12.25C14 11.5596 14.5596 11 15.25 11C15.9404 11 16.5 11.5596 16.5 12.25Z" fill="#3959CC"/>
<path fill-rule="evenodd" clip-rule="evenodd" d="M2.62135 8.52217C4.03411 4.71386 7.70013 2 12 2C17.5228 2 22 6.47715 22 12C22 17.5228 17.5228 22 12 22C6.47715 22 2 17.5228 2 12C2 10.8885 2.18135 9.81928 2.51609 8.82043C2.53535 8.71422 2.57139 8.61385 2.62135 8.52217ZM20 12C20 16.4183 16.4183 20 12 20C7.58172 20 4 16.4183 4 12C4 11.3165 4.08572 10.653 4.24699 10.0197C4.94444 10.0369 5.89794 10.0285 6.91912 9.78535C8.25367 9.4676 9.71402 8.76307 11.1572 7.30526C12.3323 8.0806 13.3813 8.7273 14.5815 9.18453C15.99 9.72109 17.5546 9.98074 19.7477 9.999C19.9124 10.6385 20 11.309 20 12ZM18.9167 7.97751C17.3474 7.90813 16.2504 7.6801 15.2935 7.31555C14.1054 6.86293 13.0755 6.18188 11.5547 5.16799C11.1339 4.88745 10.5699 4.96526 10.2407 5.34925C8.87647 6.94091 7.56033 7.57677 6.45588 7.83973C5.9505 7.96006 5.4898 8.00602 5.05898 8.01955C6.43942 5.61757 9.03081 4 12 4C14.9518 4 17.5303 5.59871 18.9167 7.97751Z" fill="#3959CC"/>
</svg>
