<svg width="24" height="24" viewBox="0 0 24 24" fill="none" xmlns="http://www.w3.org/2000/svg">
<path fill-rule="evenodd" clip-rule="evenodd" d="M2.3448 2.24455C2.5638 2.05462 2.85444 1.96906 3.14142 2.01006L9.98824 2.98817L15.8356 2.01361C15.9228 1.99908 16.0115 1.99617 16.0995 2.00497L21.0995 2.50497C21.6107 2.55609 22 2.98626 22 3.50001V21C22 21.2996 21.8657 21.5834 21.634 21.7733C21.4023 21.9633 21.0977 22.0393 20.8039 21.9806L15.9836 21.0165L10.1644 21.9864C10.0632 22.0033 9.9601 22.0045 9.85858 21.99L2.85858 20.99C2.36593 20.9196 2 20.4977 2 20V3.00001C2 2.71012 2.1258 2.43449 2.3448 2.24455ZM15 4.18047L10.1644 4.9864C10.11 4.99547 10.055 5 10 5V19.9862L15 19.1529V4.18047ZM17 4.10499V19.1802L20 19.7802V4.40499L17 4.10499ZM4 4.15302L8.03695 4.72972C8.01288 4.81569 8 4.90634 8 5V19.7041L4 19.1327V4.15302Z" fill="#3959CC"/>
</svg>
