<svg width="24" height="24" viewBox="0 0 24 24" fill="none" xmlns="http://www.w3.org/2000/svg">
<g clip-path="url(#clip0_3414_179)">
<path fill-rule="evenodd" clip-rule="evenodd" d="M10.3935 15.0208L4.51482 20.8994C4.12429 21.29 3.49113 21.29 3.1006 20.8994C2.71008 20.5089 2.71008 19.8757 3.1006 19.4852L8.97928 13.6065C8.19823 12.8255 8.19823 11.5592 8.97928 10.7781L10.3842 9.37316C10.271 8.69227 10.2799 7.99592 10.3855 7.3271C10.6502 5.6508 11.528 3.98676 12.8684 2.64639C14.2088 1.30601 15.8728 0.428179 17.5491 0.163499C19.223 -0.100803 21.0694 0.240743 22.4143 1.58572C23.7593 2.93071 24.1009 4.77704 23.8366 6.45095C23.5719 8.12725 22.6941 9.79129 21.3537 11.1317C20.0133 12.472 18.3493 13.3499 16.673 13.6146C16.0041 13.7202 15.3078 13.729 14.6268 13.6158L13.2219 15.0208C12.4409 15.8018 11.1745 15.8018 10.3935 15.0208ZM12.4361 9.40647L14.5936 11.564C16.2036 12.0079 18.3168 11.3401 19.9395 9.71745C22.0874 7.56957 22.5622 4.56203 21.0001 2.99994C19.9411 1.94091 18.2177 1.81812 16.5483 2.51814L17.985 3.95488C18.2779 4.24777 18.2779 4.72264 17.985 5.01554C17.6921 5.30843 17.2172 5.30843 16.9244 5.01554L15.1927 3.28389C14.8775 3.51178 14.5722 3.77098 14.2826 4.0606C14.2505 4.09267 14.2188 4.12494 14.1875 4.15738L15.985 5.95488C16.2779 6.24777 16.2779 6.72265 15.985 7.01554C15.6921 7.30843 15.2172 7.30843 14.9243 7.01554L13.2532 5.34439C12.397 6.70131 12.1024 8.19609 12.4361 9.40647Z" fill="#3959CC"/>
</g>
<defs>
<clipPath id="clip0_3414_179">
<rect width="24" height="24" fill="white"/>
</clipPath>
</defs>
</svg>
