<svg width="24" height="24" viewBox="0 0 24 24" fill="none" xmlns="http://www.w3.org/2000/svg">
<path fill-rule="evenodd" clip-rule="evenodd" d="M7 3C7 2.44772 7.44772 2 8 2C8.55228 2 9 2.44772 9 3C9 3.55228 8.55228 4 8 4C7.44772 4 7 3.55228 7 3ZM10.8293 4C10.9398 3.68722 11 3.35064 11 3C11 1.34315 9.65685 0 8 0C6.34315 0 5 1.34315 5 3C5 3.35064 5.06015 3.68722 5.17071 4H3C1.89543 4 1 4.89543 1 6V15C1 17.2091 2.79086 19 5 19H7.25V20C7.25 21.5188 8.48122 22.75 10 22.75H15.5C17.0188 22.75 18.25 21.5188 18.25 20V12.5C18.25 11.8096 18.8096 11.25 19.5 11.25C20.1904 11.25 20.75 11.8096 20.75 12.5V22C20.75 22.4142 21.0858 22.75 21.5 22.75C21.9142 22.75 22.25 22.4142 22.25 22V12.5C22.25 10.9812 21.0188 9.75 19.5 9.75C17.9812 9.75 16.75 10.9812 16.75 12.5V20C16.75 20.6904 16.1904 21.25 15.5 21.25H10C9.30964 21.25 8.75 20.6904 8.75 20V19H11C13.2091 19 15 17.2091 15 15L15 6C15 4.89543 14.1046 4 13 4H10.8293ZM8 6H3L3 7.5H8C8.82843 7.5 9.5 8.17157 9.5 9V10.8994C9.87907 11.0349 10.2999 11.0115 10.6646 10.8292C11.3957 10.4636 12.2395 10.416 13 10.6863L13 6L8 6ZM3 14V9H8V14H3Z" fill="#3959CC"/>
</svg>
