<svg width="24" height="24" viewBox="0 0 24 24" fill="none" xmlns="http://www.w3.org/2000/svg">
<path fill-rule="evenodd" clip-rule="evenodd" d="M12 16C14.1374 16 16.1673 15.6326 17.7376 14.9596C18.1734 14.7728 18.6026 14.5502 19 14.2855V15C19 16.6569 15.866 18 12 18C8.13401 18 5 16.6569 5 15V14.2855C5.39742 14.5502 5.8266 14.7728 6.26241 14.9596C7.83271 15.6326 9.86264 16 12 16ZM3 11C3 9.90946 3.52418 9.0378 4.1266 8.42739C4.72054 7.82558 5.48082 7.37536 6.26241 7.04039C7.83271 6.3674 9.86264 6 12 6C14.1374 6 16.1673 6.3674 17.7376 7.04039C18.5192 7.37536 19.2795 7.82558 19.8734 8.42739C20.4758 9.0378 21 9.90946 21 11V15C21 16.0905 20.4758 16.9622 19.8734 17.5726C19.2795 18.1744 18.5192 18.6246 17.7376 18.9596C16.1673 19.6326 14.1374 20 12 20C9.86264 20 7.83271 19.6326 6.26241 18.9596C5.48082 18.6246 4.72054 18.1744 4.1266 17.5726C3.52418 16.9622 3 16.0905 3 15V11ZM6.78242 9C8.06417 8.38625 9.92683 8 12 8C12.7588 8 13.4893 8.05174 14.1735 8.14743L7.06125 13.126C5.78804 12.5828 5 11.8308 5 11C5 10.2316 5.67399 9.53076 6.78242 9ZM8.8774 13.6857L16.1609 8.58728C16.5452 8.7092 16.8993 8.84758 17.2176 9C18.326 9.53076 19 10.2316 19 11C19 12.6569 15.866 14 12 14C10.8779 14 9.81744 13.8868 8.8774 13.6857Z" fill="#3959CC"/>
</svg>
