<svg width="24" height="24" viewBox="0 0 24 24" fill="none" xmlns="http://www.w3.org/2000/svg">
<path fill-rule="evenodd" clip-rule="evenodd" d="M15 3C15.5523 3 16 3.44772 16 4H12C12 3.44772 12.4477 3 13 3H15ZM10 4C10 5.10457 10.8954 6 12 6H13V7H9.75V6C9.75 5.58579 9.41421 5.25 9 5.25C8.58579 5.25 8.25 5.58579 8.25 6V7H2C1.44772 7 1 7.44772 1 8C1 8.55228 1.44772 9 2 9H8.25V10C8.25 10.4142 8.58579 10.75 9 10.75C9.41421 10.75 9.75 10.4142 9.75 10V9H13V10C10.7909 10 9 11.7909 9 14V21C9 22.1046 9.89543 23 11 23H17C18.1046 23 19 22.1046 19 21V14C19 11.7909 17.2091 10 15 10V9V7V6H16C17.1046 6 18 5.10457 18 4C18 2.34315 16.6569 1 15 1H13C11.3431 1 10 2.34315 10 4ZM13 12C11.8954 12 11 12.8954 11 14V21H17V14C17 12.8954 16.1046 12 15 12H13Z" fill="#3959CC"/>
</svg>
