<svg width="24" height="24" viewBox="0 0 24 24" fill="none" xmlns="http://www.w3.org/2000/svg">
<path d="M8 8C7.44772 8 7 8.44772 7 9C7 9.55228 7.44772 10 8 10C8.55228 10 9 9.55228 9 9C9 8.44772 8.55228 8 8 8Z" fill="#3959CC"/>
<path d="M8 12C7.44772 12 7 12.4477 7 13C7 13.5523 7.44772 14 8 14C8.55228 14 9 13.5523 9 13C9 12.4477 8.55228 12 8 12Z" fill="#3959CC"/>
<path d="M8 16C7.44772 16 7 16.4477 7 17C7 17.5523 7.44772 18 8 18C8.55228 18 9 17.5523 9 17C9 16.4477 8.55228 16 8 16Z" fill="#3959CC"/>
<path d="M11 13C11 12.4477 11.4477 12 12 12H16C16.5523 12 17 12.4477 17 13C17 13.5523 16.5523 14 16 14H12C11.4477 14 11 13.5523 11 13Z" fill="#3959CC"/>
<path d="M11 17C11 16.4477 11.4477 16 12 16H16C16.5523 16 17 16.4477 17 17C17 17.5523 16.5523 18 16 18H12C11.4477 18 11 17.5523 11 17Z" fill="#3959CC"/>
<path d="M12 8C11.4477 8 11 8.44772 11 9C11 9.55228 11.4477 10 12 10H16C16.5523 10 17 9.55228 17 9C17 8.44772 16.5523 8 16 8H12Z" fill="#3959CC"/>
<path fill-rule="evenodd" clip-rule="evenodd" d="M6 3.5C6 2.39543 6.89543 1.5 8 1.5H16C17.1046 1.5 18 2.39543 18 3.5H19C20.1046 3.5 21 4.39543 21 5.5V20C21 21.1046 20.1046 22 19 22H5C3.89543 22 3 21.1046 3 20V5.5C3 4.39543 3.89543 3.5 5 3.5H6ZM6.26756 5.5H5L5 20H19V5.5H17.7324C17.3866 6.0978 16.7403 6.5 16 6.5H8C7.25972 6.5 6.61337 6.0978 6.26756 5.5ZM16 3.5H8V4.5H16V3.5Z" fill="#3959CC"/>
</svg>
