<svg width="24" height="24" viewBox="0 0 24 24" fill="none" xmlns="http://www.w3.org/2000/svg">
<path fill-rule="evenodd" clip-rule="evenodd" d="M8.3934 17.0208L2.51472 22.8995C2.1242 23.29 1.49103 23.29 1.10051 22.8995C0.709986 22.509 0.709986 21.8758 1.10051 21.4853L6.97919 15.6066C6.19814 14.8255 6.19814 13.5592 6.97919 12.7782L8.38414 11.3732C8.27094 10.6923 8.27982 9.99597 8.38543 9.32715C8.6501 7.65085 9.52794 5.98681 10.8683 4.64644C12.2087 3.30606 13.8727 2.42823 15.549 2.16355C17.2229 1.89925 19.0693 2.24079 20.4143 3.58577C21.7592 4.93076 22.1008 6.77709 21.8365 8.451C21.5718 10.1273 20.694 11.7913 19.3536 13.1317C18.0132 14.4721 16.3492 15.3499 14.6729 15.6146C14.004 15.7202 13.3077 15.7291 12.6268 15.6159L11.2218 17.0208C10.4408 17.8019 9.17445 17.8019 8.3934 17.0208ZM10.436 11.4065L12.5935 13.5641C14.2035 14.0079 16.3168 13.3401 17.9394 11.7175C20.0873 9.56962 20.5621 6.56209 19 4.99999C17.941 3.94096 16.2176 3.81817 14.5482 4.51819L15.9849 5.95493C16.2778 6.24782 16.2778 6.72269 15.9849 7.01559C15.692 7.30848 15.2172 7.30848 14.9243 7.01559L13.1926 5.28394C12.8774 5.51183 12.5721 5.77103 12.2825 6.06065C12.2505 6.09272 12.2188 6.12499 12.1874 6.15744L13.9849 7.95493C14.2778 8.24782 14.2778 8.7227 13.9849 9.01559C13.692 9.30848 13.2172 9.30848 12.9243 9.01559L11.2531 7.34444C10.3969 8.70136 10.1023 10.1961 10.436 11.4065Z" fill="#3959CC"/>
</svg>
