<svg width="24" height="24" viewBox="0 0 24 24" fill="none" xmlns="http://www.w3.org/2000/svg">
<path fill-rule="evenodd" clip-rule="evenodd" d="M12 4.5C12 5.60457 12.8954 6.5 14 6.5H15V7.5H11.75V6.5C11.75 6.08579 11.4142 5.75 11 5.75C10.5858 5.75 10.25 6.08579 10.25 6.5V7.5H4C3.44772 7.5 3 7.94772 3 8.5C3 9.05228 3.44772 9.5 4 9.5H10.25V10.5C10.25 10.9142 10.5858 11.25 11 11.25C11.4142 11.25 11.75 10.9142 11.75 10.5V9.5H15V10.5C12.7909 10.5 11 12.2909 11 14.5L11 20.5C11 21.6046 11.8954 22.5 13 22.5H19C20.1046 22.5 21 21.6046 21 20.5V14.5C21 12.2909 19.2091 10.5 17 10.5V6.5H18C19.1046 6.5 20 5.60457 20 4.5C20 2.84315 18.6569 1.5 17 1.5H15C13.3431 1.5 12 2.84315 12 4.5ZM17 3.5C17.5523 3.5 18 3.94772 18 4.5H14C14 3.94772 14.4477 3.5 15 3.5H17ZM15 12.5C13.8954 12.5 13 13.3954 13 14.5V20.5H19V14.5C19 13.3954 18.1046 12.5 17 12.5H15Z" fill="#3959CC"/>
</svg>
