<svg width="24" height="24" viewBox="0 0 24 24" fill="none" xmlns="http://www.w3.org/2000/svg">
<path fill-rule="evenodd" clip-rule="evenodd" d="M5 4C5 2.89543 5.89543 2 7 2H12C13.1046 2 14 2.89543 14 4V7C15.6569 7 17 8.34315 17 10V13H20.5C21.0593 13 21.5931 13.2342 21.9718 13.6458C22.3505 14.0574 22.5395 14.6087 22.4931 15.1661L21.9931 21.1661C21.9067 22.2027 21.0402 23 20 23H14C13.264 23 12.6148 22.6008 12.2676 22H4C2.89543 22 2 21.1046 2 20V10C2 8.34314 3.34315 7 5 7V4ZM12 4V7H7V4H12ZM5 9H14C14.5523 9 15 9.44772 15 10V11H4V10C4 9.44771 4.44772 9 5 9ZM4 13V14.5H7.25C7.66421 14.5 8 14.1642 8 13.75C8 13.3358 7.66421 13 7.25 13H4ZM4 16.5V18H7.25C7.66421 18 8 17.6642 8 17.25C8 16.8358 7.66421 16.5 7.25 16.5H4ZM20 21L20.5 15H13.5L14 21H20Z" fill="#3959CC"/>
</svg>
