<svg width="24" height="24" viewBox="0 0 24 24" fill="none" xmlns="http://www.w3.org/2000/svg">
<path fill-rule="evenodd" clip-rule="evenodd" d="M3.72456 4.97051C2.65763 5.2564 2.02446 6.35307 2.31034 7.42L5.33648 18.7137C5.62236 19.7806 6.71904 20.4138 7.78597 20.1279L14.4595 18.3397C14.8147 18.2446 15.1352 18.0538 15.3873 17.7902C15.5566 17.9217 15.7693 18 16.0002 18C16.5525 18 17.0002 17.5522 17.0002 17C17.0002 16.6749 16.8452 16.3861 16.605 16.2035L17.1355 15.5026C17.3088 15.8 17.6312 16 18.0002 16C18.5525 16 19.0002 15.5522 19.0002 15C19.0002 14.5337 18.6811 14.1419 18.2493 14.0312L19.1938 12.7836C19.5663 12.2915 19.6907 11.655 19.531 11.0588L17.4677 3.35859C17.1819 2.29166 16.0852 1.65849 15.0182 1.94438L3.72456 4.97051ZM7.26833 18.1961L13.9419 16.4079L17.5992 11.5765L15.5359 3.87623L4.2422 6.90236L7.26833 18.1961ZM22.0002 17C22.5525 17 23.0002 16.5522 23.0002 16C23.0002 15.4477 22.5525 15 22.0002 15C21.4479 15 21.0002 15.4477 21.0002 16C21.0002 16.5522 21.4479 17 22.0002 17ZM19.0002 19C19.5525 19 20.0002 18.5522 20.0002 18C20.0002 17.4477 19.5525 17 19.0002 17C18.4479 17 18.0002 17.4477 18.0002 18C18.0002 18.5522 18.4479 19 19.0002 19ZM17.0002 20C17.0002 20.5522 16.5525 21 16.0002 21C15.4479 21 15.0002 20.5522 15.0002 20C15.0002 19.4477 15.4479 19 16.0002 19C16.5525 19 17.0002 19.4477 17.0002 20ZM19.0002 23C19.5525 23 20.0002 22.5522 20.0002 22C20.0002 21.4477 19.5525 21 19.0002 21C18.4479 21 18.0002 21.4477 18.0002 22C18.0002 22.5522 18.4479 23 19.0002 23ZM23.0002 20C23.0002 20.5522 22.5525 21 22.0002 21C21.4479 21 21.0002 20.5522 21.0002 20C21.0002 19.4477 21.4479 19 22.0002 19C22.5525 19 23.0002 19.4477 23.0002 20Z" fill="#3959CC"/>
</svg>
