<svg width="24" height="24" viewBox="0 0 24 24" fill="none" xmlns="http://www.w3.org/2000/svg">
<path fill-rule="evenodd" clip-rule="evenodd" d="M12 4.59998L14 4.59998C15.1046 4.59998 16 5.49541 16 6.59998L16 14.6C16 16.8091 14.2091 18.6 12 18.6H10V19C10 19.5523 10.4477 20 11 20H16C16.5523 20 17 19.5523 17 19V14.5C17 13.1193 18.1193 12 19.5 12C20.8807 12 22 13.1193 22 14.5V21C22 21.5523 21.5523 22 21 22C20.4477 22 20 21.5523 20 21V14.5C20 14.2239 19.7761 14 19.5 14C19.2239 14 19 14.2239 19 14.5V19C19 20.6569 17.6569 22 16 22H11C9.34315 22 8 20.6569 8 19V18.6H6C3.79086 18.6 2 16.8091 2 14.6V6.59998C2 5.49541 2.89543 4.59998 4 4.59998H6C6 2.94312 7.34315 1.59998 9 1.59998C10.6569 1.59998 12 2.94312 12 4.59998ZM14 14L14 6.59998L4 6.59998V8.25H6C6.41421 8.25 6.75 8.58579 6.75 9C6.75 9.41421 6.41421 9.75 6 9.75H4V11.25H6C6.41421 11.25 6.75 11.5858 6.75 12C6.75 12.4142 6.41421 12.75 6 12.75H4V14H14ZM10 4.59998C10 4.04769 9.55228 3.59998 9 3.59998C8.44772 3.59998 8 4.04769 8 4.59998H10Z" fill="#3959CC"/>
</svg>
