<svg width="24" height="24" viewBox="0 0 24 24" fill="none" xmlns="http://www.w3.org/2000/svg">
<path fill-rule="evenodd" clip-rule="evenodd" d="M3.48286 5.09478C2.41593 5.38066 1.78276 6.47734 2.06864 7.54427L5.09478 18.838C5.38066 19.9049 6.47734 20.5381 7.54427 20.2522L14.2178 18.464C14.573 18.3688 14.8935 18.1781 15.1456 17.9144C15.3149 18.0459 15.5276 18.1242 15.7585 18.1242C16.3108 18.1242 16.7585 17.6765 16.7585 17.1242C16.7585 16.7992 16.6035 16.5104 16.3633 16.3278L16.8938 15.6269C17.0671 15.9243 17.3895 16.1242 17.7585 16.1242C18.3108 16.1242 18.7585 15.6765 18.7585 15.1242C18.7585 14.658 18.4394 14.2662 18.0076 14.1555L18.9521 12.9079C19.3246 12.4158 19.449 11.7793 19.2893 11.1831L17.226 3.48286C16.9402 2.41593 15.8435 1.78276 14.7765 2.06864L3.48286 5.09478ZM7.02663 18.3203L13.7002 16.5321L17.3575 11.7007L15.2942 4.0005L4.0005 7.02663L7.02663 18.3203Z" fill="#3959CC"/>
<path d="M21.7585 17.1242C22.3108 17.1242 22.7585 16.6765 22.7585 16.1242C22.7585 15.5719 22.3108 15.1242 21.7585 15.1242C21.2062 15.1242 20.7585 15.5719 20.7585 16.1242C20.7585 16.6765 21.2062 17.1242 21.7585 17.1242Z" fill="#3959CC"/>
<path d="M18.7585 19.1242C19.3108 19.1242 19.7585 18.6765 19.7585 18.1242C19.7585 17.5719 19.3108 17.1242 18.7585 17.1242C18.2062 17.1242 17.7585 17.5719 17.7585 18.1242C17.7585 18.6765 18.2062 19.1242 18.7585 19.1242Z" fill="#3959CC"/>
<path d="M16.7585 20.1242C16.7585 20.6765 16.3108 21.1242 15.7585 21.1242C15.2062 21.1242 14.7585 20.6765 14.7585 20.1242C14.7585 19.5719 15.2062 19.1242 15.7585 19.1242C16.3108 19.1242 16.7585 19.5719 16.7585 20.1242Z" fill="#3959CC"/>
<path d="M18.7585 23.1242C19.3108 23.1242 19.7585 22.6765 19.7585 22.1242C19.7585 21.5719 19.3108 21.1242 18.7585 21.1242C18.2062 21.1242 17.7585 21.5719 17.7585 22.1242C17.7585 22.6765 18.2062 23.1242 18.7585 23.1242Z" fill="#3959CC"/>
<path d="M22.7585 20.1242C22.7585 20.6765 22.3108 21.1242 21.7585 21.1242C21.2062 21.1242 20.7585 20.6765 20.7585 20.1242C20.7585 19.5719 21.2062 19.1242 21.7585 19.1242C22.3108 19.1242 22.7585 19.5719 22.7585 20.1242Z" fill="#3959CC"/>
</svg>
