<svg width="24" height="24" viewBox="0 0 24 24" fill="none" xmlns="http://www.w3.org/2000/svg">
<path fill-rule="evenodd" clip-rule="evenodd" d="M3.41848 18.4069L5.5398 20.5282L8.2897 18.4748L5.47188 15.657L3.41848 18.4069ZM6.37875 14.4425L9.50416 17.5679L11.1234 16.3588L20.389 7.09315L16.8535 3.55762L7.58788 12.8232L6.37875 14.4425ZM6.73643 22.1307C5.94022 22.7252 4.82824 22.645 4.12559 21.9424L2.00426 19.8211C1.30161 19.1184 1.22141 18.0064 1.81596 17.2102L5.98536 11.6266C6.04282 11.5497 6.10575 11.4769 6.17367 11.409L15.4393 2.1434C16.2203 1.36235 17.4867 1.36236 18.2677 2.1434L21.8033 5.67894C22.5843 6.45998 22.5843 7.72631 21.8033 8.50736L12.5376 17.773C12.4697 17.8409 12.397 17.9038 12.32 17.9613L6.73643 22.1307ZM12.977 10.9948C13.3675 11.3853 13.3675 12.0185 12.977 12.409L10.477 14.909C10.0864 15.2995 9.45327 15.2995 9.06275 14.909C8.67222 14.5185 8.67222 13.8853 9.06275 13.4948L11.5627 10.9948C11.9533 10.6043 12.5864 10.6043 12.977 10.9948Z" fill="#3959CC"/>
</svg>
