<svg width="24" height="24" viewBox="0 0 24 24" fill="none" xmlns="http://www.w3.org/2000/svg">
<path fill-rule="evenodd" clip-rule="evenodd" d="M3.70711 2.29289C3.31658 1.90237 2.68342 1.90237 2.29289 2.29289C1.90237 2.68342 1.90237 3.31658 2.29289 3.70711L3.62154 5.03576C2.69794 5.21265 2 6.02482 2 7V17C2 18.1046 2.89543 19 4 19H17.5858L20.2929 21.7071C20.6834 22.0976 21.3166 22.0976 21.7071 21.7071C22.0976 21.3166 22.0976 20.6834 21.7071 20.2929L3.70711 2.29289ZM15.5858 17L12.9367 14.3509C12.7946 14.7301 12.4288 15 12 15H6C5.44772 15 5 14.5523 5 14C5 13.4477 5.44772 13 6 13H11.5858L5.58579 7H4V17H15.5858Z" fill="#3959CC"/>
<path d="M20 16.5858V7H10.4142L8.41421 5H20C21.1046 5 22 5.89543 22 7V17C22 17.4466 21.8536 17.8591 21.6062 18.1919L20 16.5858Z" fill="#3959CC"/>
<path d="M17.5 11.5002V13H15.5V11.5002H14V9.50024H15.5V8H17.5V9.50024H19V11.5002H17.5Z" fill="#3959CC"/>
</svg>
