<svg width="24" height="24" viewBox="0 0 24 24" fill="none" xmlns="http://www.w3.org/2000/svg">
<path fill-rule="evenodd" clip-rule="evenodd" d="M15.5551 20.2558C15.4265 21.2532 14.5772 22 13.5716 22H10.4287C9.42304 22 8.57377 21.2532 8.44514 20.2558L7.19627 10.5722C7.02179 9.21936 7.31351 7.84742 8.02334 6.68257L9.86528 3.65989C10.8395 2.06113 13.1607 2.06112 14.135 3.65989L15.9769 6.68257C16.6868 7.84741 16.9785 9.21937 16.804 10.5722L15.5551 20.2558ZM10.4287 20L9.17984 10.3164C9.06352 9.41451 9.258 8.49988 9.73122 7.72331L11.5732 4.70063C11.768 4.38088 12.2323 4.38088 12.4271 4.70063L14.2691 7.72331C14.7423 8.49987 14.9368 9.41451 14.8204 10.3164L13.5716 20H10.4287Z" fill="#3959CC"/>
</svg>
