<svg width="24" height="24" viewBox="0 0 24 24" fill="none" xmlns="http://www.w3.org/2000/svg">
<path fill-rule="evenodd" clip-rule="evenodd" d="M8.58579 16.94L2.70711 22.8187C2.31658 23.2092 1.68342 23.2092 1.29289 22.8187C0.902369 22.4281 0.902369 21.795 1.29289 21.4045L7.17157 15.5258C6.39052 14.7447 6.39052 13.4784 7.17157 12.6974L8.57652 11.2924C8.46332 10.6115 8.47221 9.91516 8.57781 9.24634C8.84249 7.57004 9.72032 5.906 11.0607 4.56563C12.4011 3.22525 14.0651 2.34742 15.7414 2.08274C17.4153 1.81844 19.2617 2.15998 20.6066 3.50496C21.9516 4.84995 22.2932 6.69628 22.0289 8.37019C21.7642 10.0465 20.8864 11.7105 19.546 13.0509C18.2056 14.3913 16.5416 15.2691 14.8653 15.5338C14.1964 15.6394 13.5001 15.6483 12.8191 15.5351L11.4142 16.94C10.6332 17.721 9.36683 17.721 8.58579 16.94ZM10.6284 11.3257L12.7859 13.4832C14.3959 13.9271 16.5091 13.2593 18.1318 11.6367C20.2796 9.48881 20.7545 6.48127 19.1924 4.91918C18.1334 3.86015 16.41 3.73735 14.7406 4.43738L16.1773 5.87412C16.4702 6.16701 16.4702 6.64188 16.1773 6.93478C15.8844 7.22767 15.4095 7.22767 15.1166 6.93478L13.385 5.20313C13.0698 5.43102 12.7645 5.69022 12.4749 5.97984C12.4428 6.01191 12.4111 6.04418 12.3798 6.07662L14.1773 7.87412C14.4702 8.16701 14.4702 8.64188 14.1773 8.93478C13.8844 9.22767 13.4095 9.22767 13.1166 8.93478L11.4455 7.26363C10.5892 8.62055 10.2946 10.1153 10.6284 11.3257Z" fill="#3959CC"/>
</svg>
