<svg width="24" height="24" viewBox="0 0 24 24" fill="none" xmlns="http://www.w3.org/2000/svg">
<path fill-rule="evenodd" clip-rule="evenodd" d="M8 9.41424L2.29289 3.70714C1.90237 3.31661 1.90237 2.68345 2.29289 2.29292C2.68342 1.9024 3.31658 1.9024 3.70711 2.29292L21.7071 20.2929C22.0976 20.6834 22.0976 21.3166 21.7071 21.7071C21.3166 22.0977 20.6834 22.0977 20.2929 21.7071L16.1922 17.6064C15.2759 18.2926 14.1859 18.7595 13 18.9291V20H15C15.5523 20 16 20.4477 16 21C16 21.5523 15.5523 22 15 22H9C8.44772 22 8 21.5523 8 21C8 20.4477 8.44772 20 9 20H11V18.9291C7.60771 18.4439 5 15.5265 5 12C5 11.4477 5.44772 11 6 11C6.55228 11 7 11.4477 7 12C7 14.7614 9.23858 17 12 17C13.0191 17 13.9669 16.6951 14.7574 16.1716L14.0319 15.4462C13.4364 15.7981 12.7418 16 12 16C9.79086 16 8 14.2091 8 12V9.41424ZM12.518 13.9323C12.3528 13.9764 12.1792 14 12 14C10.8954 14 10 13.1046 10 12V11.4142L12.518 13.9323Z" fill="#3959CC"/>
<path d="M14 6V10.5858L15.9627 12.5485C15.9873 12.3692 16 12.1861 16 12V6C16 3.79086 14.2091 2 12 2C10.2176 2 8.70754 3.16577 8.19061 4.77642L10 6.58582V6C10 4.89543 10.8954 4 12 4C13.1046 4 14 4.89543 14 6Z" fill="#3959CC"/>
<path d="M16.8042 13.3901L18.3544 14.9402C18.7688 14.0463 19 13.0501 19 12C19 11.4477 18.5523 11 18 11C17.4477 11 17 11.4477 17 12C17 12.4824 16.9317 12.9488 16.8042 13.3901Z" fill="#3959CC"/>
</svg>
