<svg width="24" height="24" viewBox="0 0 24 24" fill="none" xmlns="http://www.w3.org/2000/svg">
<path d="M21.9241 7.38278C21.8764 7.49805 21.8063 7.6062 21.7136 7.70055C21.7111 7.70308 21.7086 7.7056 21.7061 7.7081L17.7071 11.7071C17.3166 12.0976 16.6834 12.0976 16.2929 11.7071C15.9024 11.3166 15.9024 10.6834 16.2929 10.2929L18.5858 8H8.50362C7.79051 8.07561 6.67116 8.4477 5.73408 9.33762C4.80801 10.2171 4 11.6579 4 14V21C4 21.5523 3.55228 22 3 22C2.44772 22 2 21.5523 2 21V14C2 11.1421 3.01017 9.16626 4.35683 7.88738C5.67377 6.63673 7.25564 6.10571 8.36326 6.00417C8.39361 6.00139 8.42407 6 8.45455 6H18.5858L16.2929 3.70711C15.9024 3.31658 15.9024 2.68342 16.2929 2.29289C16.6834 1.90237 17.3166 1.90237 17.7071 2.29289L21.7058 6.2916C21.7099 6.29567 21.7139 6.29977 21.718 6.30391C21.906 6.49772 22 6.74886 22 7C22 7.13559 21.973 7.26488 21.9241 7.38278Z" fill="#3959CC"/>
</svg>
