<svg width="24" height="24" viewBox="0 0 24 24" fill="none" xmlns="http://www.w3.org/2000/svg">
<path d="M5.75 8C5.33579 8 5 8.33579 5 8.75C5 9.16421 5.33579 9.5 5.75 9.5H14.25C14.6642 9.5 15 9.16421 15 8.75C15 8.33579 14.6642 8 14.25 8H5.75Z" fill="#3959CC"/>
<path d="M11.5 12.75C11.5 12.3358 11.8358 12 12.25 12H18.25C18.6642 12 19 12.3358 19 12.75C19 13.1642 18.6642 13.5 18.25 13.5H12.25C11.8358 13.5 11.5 13.1642 11.5 12.75Z" fill="#3959CC"/>
<path d="M12.25 14.5C11.8358 14.5 11.5 14.8358 11.5 15.25C11.5 15.6642 11.8358 16 12.25 16H18.25C18.6642 16 19 15.6642 19 15.25C19 14.8358 18.6642 14.5 18.25 14.5H12.25Z" fill="#3959CC"/>
<path d="M16.5 8H19V10.5H16.5V8Z" fill="#3959CC"/>
<path fill-rule="evenodd" clip-rule="evenodd" d="M5 16V11H10V16H5ZM6.5 12.5H8.5V14.5H6.5V12.5Z" fill="#3959CC"/>
<path fill-rule="evenodd" clip-rule="evenodd" d="M2 7C2 5.89543 2.89543 5 4 5H20C21.1046 5 22 5.89543 22 7V17C22 18.1046 21.1046 19 20 19H4C2.89543 19 2 18.1046 2 17V7ZM4 7H20V17H4V7Z" fill="#3959CC"/>
</svg>
