<svg width="24" height="24" viewBox="0 0 24 24" fill="none" xmlns="http://www.w3.org/2000/svg">
<path fill-rule="evenodd" clip-rule="evenodd" d="M13.125 4.05423C15.1229 4.25523 16.5498 5.00643 17.468 6.16527C18.4957 7.46239 18.75 9.10687 18.75 10.5714V14.8925L20.7889 17.4168C21.0349 17.7214 21.0685 18.1228 20.8759 18.4565C20.6833 18.7902 20.2969 19 19.875 19H4.125C3.7031 19 3.31667 18.7902 3.12407 18.4565C2.93147 18.1228 2.96508 17.7214 3.21114 17.4168L5.25 14.8925V10.5714C5.25 9.10687 5.50428 7.46239 6.532 6.16527C7.45016 5.00643 8.87709 4.25523 10.875 4.05423V3C10.875 2.44772 11.3787 2 12 2C12.6213 2 13.125 2.44772 13.125 3V4.05423ZM8.37157 7.31688C7.74394 8.10903 7.5 9.25027 7.5 10.5714V15.2143C7.5 15.4235 7.42616 15.6275 7.28887 15.7975L6.31761 17H17.6824L16.7111 15.7975C16.5738 15.6275 16.5 15.4235 16.5 15.2143V10.5714C16.5 9.25027 16.2561 8.10903 15.6284 7.31688C15.0551 6.59332 14.0314 6 12 6C9.96863 6 8.94485 6.59332 8.37157 7.31688Z" fill="#3959CC"/>
<path d="M14 20V21C14 21.5523 13.5523 22 13 22H11C10.4477 22 10 21.5523 10 21V20H14Z" fill="#3959CC"/>
</svg>
