<svg width="24" height="24" viewBox="0 0 24 24" fill="none" xmlns="http://www.w3.org/2000/svg">
<path fill-rule="evenodd" clip-rule="evenodd" d="M7.8181 1.67239C8.26865 1.55975 9.63011 1.25 12 1.25C14.3699 1.25 15.7313 1.55975 16.1819 1.67239C16.3771 1.7212 16.5446 1.84644 16.6466 2.01994C16.7486 2.19344 16.7765 2.40065 16.7242 2.59498L16.4555 3.5932C17.6337 4.73493 18.0661 6.0822 18.1243 7.17246C18.1534 7.71842 18.0899 8.21874 17.9659 8.61374C17.9046 8.80884 17.8202 9.00481 17.7046 9.17251C17.6807 9.20725 17.6502 9.24844 17.6126 9.29189C17.2325 12.1268 14.8584 14.15 11.9 14.15C9.02445 14.15 6.69892 12.0331 6.20868 9.34283C6.18307 9.31606 6.16042 9.28974 6.1407 9.26491C6.01201 9.10284 5.93185 8.91566 5.87897 8.75597C5.77063 8.42878 5.71468 8.02355 5.70076 7.61281C5.67324 6.8011 5.80416 5.75371 6.23998 4.94433L6.24915 4.9278C6.59728 4.31856 7.02764 3.87187 7.53862 3.5712L7.27579 2.59498C7.22347 2.40065 7.25145 2.19344 7.35343 2.01994C7.45542 1.84644 7.62285 1.7212 7.8181 1.67239ZM8.93119 2.97378L9.27479 4.25H14.7252L15.0688 2.97378C14.4258 2.86627 13.4115 2.75 12 2.75C10.5885 2.75 9.57423 2.86627 8.93119 2.97378ZM15.3 5.75C15.5885 5.75 15.8465 5.58528 15.9714 5.33445C16.42 5.99639 16.596 6.68215 16.6264 7.25235C16.6473 7.64388 16.5982 7.96231 16.5348 8.16419L16.5277 8.18601C15.037 8.32302 12.8585 8.13012 11.0048 6.44495C10.7086 6.17565 10.2531 6.18649 9.97 6.46957C9.69599 6.74358 9.07031 7.17783 8.3795 7.55354C8.043 7.73655 7.71395 7.89305 7.4322 8.00163C7.36518 8.02746 7.30453 8.0491 7.25013 8.06714C7.22556 7.93134 7.20663 7.76066 7.1999 7.56199C7.17754 6.90232 7.29521 6.15429 7.55638 5.66352C7.68338 5.44274 7.81713 5.26771 7.9579 5.12852L7.97579 5.19498C8.06395 5.52244 8.36088 5.75 8.7 5.75H15.3ZM15.9931 9.71835C14.4317 9.75547 12.374 9.43455 10.5011 7.97989C10.0914 8.28807 9.58488 8.60547 9.09616 8.87126C8.72016 9.07576 8.33046 9.263 7.97158 9.4013C7.90815 9.42574 7.8428 9.44982 7.7762 9.4728C8.28588 11.2935 9.93241 12.65 11.9 12.65C13.9038 12.65 15.4852 11.4509 15.9931 9.71835Z" fill="#3959CC"/>
<path fill-rule="evenodd" clip-rule="evenodd" d="M15.6262 13.8499C15.9387 13.6702 16.3348 13.7382 16.5694 14.0119L17.1655 14.7073C18.8649 15.0659 20.0211 15.878 20.7424 17.0753C21.4687 18.281 21.6984 19.7895 21.7495 21.3756C21.7629 21.7896 21.4381 22.136 21.0241 22.1494C20.6101 22.1628 20.2637 21.838 20.2503 21.424C20.2015 19.9101 19.9812 18.7186 19.4575 17.8493C19.1255 17.2982 18.6481 16.8386 17.9277 16.5145C17.8644 16.7283 17.7122 17.0626 17.375 17.25L15.2859 18.5432C14.1748 19.2099 12.8135 19.0574 11.9757 18.12C11.1391 19.0556 9.74257 19.2203 8.61405 18.5432L8.60512 18.5378L6.56128 17.2725C6.23492 17.1289 6.05332 16.866 5.96474 16.6181C5.25053 16.9417 4.78015 17.3986 4.45835 17.9437C3.94903 18.8064 3.75 19.9924 3.75 21.4999C3.75 21.9141 3.41421 22.2499 3 22.2499C2.58579 22.2499 2.25 21.9141 2.25 21.4999C2.25 19.9074 2.45097 18.3934 3.16665 17.1811C3.86199 16.0033 4.98789 15.1998 6.62895 14.8304L7.33048 14.0119C7.56509 13.7382 7.96125 13.6702 8.27377 13.8499L11.95 15.9637L15.6262 13.8499ZM7.53497 16.1111C7.6553 16.0253 7.74753 15.9057 7.80027 15.7687L8.06488 15.46L10.8866 17.0825C10.5522 17.4818 9.96179 17.6003 9.38985 17.2593L7.53497 16.1111ZM13.0483 17.0624C13.3916 17.4929 13.9616 17.5863 14.5101 17.2593L16.3833 16.0997L15.835 15.46L13.0483 17.0624Z" fill="#3959CC"/>
<path d="M14.25 20.5C14.25 20.0858 14.5858 19.75 15 19.75H18C18.4142 19.75 18.75 20.0858 18.75 20.5C18.75 20.9142 18.4142 21.25 18 21.25H15C14.5858 21.25 14.25 20.9142 14.25 20.5Z" fill="#3959CC"/>
</svg>
