<svg width="24" height="24" viewBox="0 0 24 24" fill="none" xmlns="http://www.w3.org/2000/svg">
<path d="M10 12.25C10 12.9404 9.44036 13.5 8.75 13.5C8.05964 13.5 7.5 12.9404 7.5 12.25C7.5 11.5596 8.05964 11 8.75 11C9.44036 11 10 11.5596 10 12.25Z" fill="#3959CC"/>
<path d="M15.25 13.5C15.9404 13.5 16.5 12.9404 16.5 12.25C16.5 11.5596 15.9404 11 15.25 11C14.5596 11 14 11.5596 14 12.25C14 12.9404 14.5596 13.5 15.25 13.5Z" fill="#3959CC"/>
<path fill-rule="evenodd" clip-rule="evenodd" d="M12 2C7.70013 2 4.03411 4.71386 2.62135 8.52217C2.57139 8.61385 2.53535 8.71422 2.51609 8.82043C2.18135 9.81928 2 10.8885 2 12C2 17.5228 6.47715 22 12 22C17.5228 22 22 17.5228 22 12C22 6.47715 17.5228 2 12 2ZM17.8602 17.446C19.1879 16.0179 20 14.1038 20 12C20 11.309 19.9124 10.6385 19.7477 9.999C17.5546 9.98074 15.99 9.72109 14.5815 9.18453C13.3813 8.7273 12.3323 8.0806 11.1572 7.30526C9.71402 8.76307 8.25367 9.4676 6.91912 9.78535C5.89794 10.0285 4.94444 10.0369 4.24699 10.0197C4.08572 10.653 4 11.3165 4 12C4 16.4183 7.58172 20 12 20C13.5913 20 15.0741 19.5354 16.3202 18.7344L14.2929 16.7071C13.9024 16.3166 13.9024 15.6834 14.2929 15.2929C14.6834 14.9024 15.3166 14.9024 15.7071 15.2929L17.8602 17.446ZM15.2935 7.31555C16.2504 7.6801 17.3474 7.90813 18.9167 7.97751C17.5303 5.59871 14.9518 4 12 4C9.03081 4 6.43942 5.61757 5.05898 8.01955C5.4898 8.00602 5.9505 7.96006 6.45588 7.83973C7.56033 7.57677 8.87647 6.94091 10.2407 5.34925C10.5699 4.96526 11.1339 4.88745 11.5547 5.16799C13.0755 6.18188 14.1054 6.86293 15.2935 7.31555Z" fill="#3959CC"/>
</svg>
