<svg width="24" height="24" viewBox="0 0 24 24" fill="none" xmlns="http://www.w3.org/2000/svg">
<path fill-rule="evenodd" clip-rule="evenodd" d="M18.1078 2.30657L21.6936 5.89235C22.0841 6.28288 22.0841 6.91604 21.6936 7.30657L9.19282 19.8073C9.08571 19.9144 8.95566 19.9958 8.8125 20.0453L3.33159 21.9404C2.54305 22.2131 1.78705 21.4571 2.05971 20.6685L3.95483 15.1876C4.00433 15.0445 4.08571 14.9144 4.19282 14.8073L16.6936 2.30656C17.0841 1.91604 17.7173 1.91604 18.1078 2.30657ZM17.4007 4.42789L16.6162 5.21233C16.6478 5.2371 16.6783 5.26403 16.7074 5.29314L18.7074 7.29314C18.7364 7.32211 18.7632 7.35241 18.7878 7.38385L19.5722 6.59946L17.4007 4.42789ZM7.17975 14.6488L15.2124 6.61619C15.2371 6.64779 15.2641 6.67825 15.2932 6.70735L17.2932 8.70735C17.3221 8.73632 17.3524 8.76314 17.3839 8.78781L9.35133 16.8204L7.17975 14.6488ZM5.76761 16.0651L4.62211 19.378L7.93504 18.2325L5.76761 16.0651Z" fill="#3959CC"/>
</svg>
