<svg width="24" height="24" viewBox="0 0 24 24" fill="none" xmlns="http://www.w3.org/2000/svg">
<path fill-rule="evenodd" clip-rule="evenodd" d="M11 12C13.4853 12 15.5 9.98528 15.5 7.5C15.5 5.01472 13.4853 3 11 3C8.51472 3 6.5 5.01472 6.5 7.5C6.5 9.98528 8.51472 12 11 12ZM11 10C12.3807 10 13.5 8.88071 13.5 7.5C13.5 6.11929 12.3807 5 11 5C9.61929 5 8.5 6.11929 8.5 7.5C8.5 8.88071 9.61929 10 11 10Z" fill="#3959CC"/>
<path fill-rule="evenodd" clip-rule="evenodd" d="M10.2899 18.9999C8.38666 18.9996 6.94811 18.9965 5.84624 18.9693C4.98604 18.9481 4.40358 18.9127 4.00824 18.8679C4.04997 18.5195 4.26781 17.9373 5.05134 17.3674C5.88023 16.7646 7.40964 16.1396 10.068 16.0203C10.1678 15.3076 10.375 14.6292 10.6726 14.0022C3.93742 14.0943 2 17.0315 2 19C2 19.5368 2 19.9295 2.17403 20.2168C2.64838 21 4.41567 21 11 21L11.2547 21C10.8334 20.396 10.5049 19.7224 10.2899 18.9999ZM4.0107 19.4916C4.0115 19.4962 4.01179 19.4987 4.01174 19.4988C4.01173 19.4988 4.01183 19.4993 4.01174 19.4988L4.0107 19.4916Z" fill="#3959CC"/>
<path d="M17 12C17.5523 12 18 12.4477 18 13V16H21C21.5523 16 22 16.4477 22 17C22 17.5523 21.5523 18 21 18H18V21C18 21.5523 17.5523 22 17 22C16.4477 22 16 21.5523 16 21V18H13C12.4477 18 12 17.5523 12 17C12 16.4477 12.4477 16 13 16H16V13C16 12.4477 16.4477 12 17 12Z" fill="#3959CC"/>
</svg>
