<svg width="24" height="24" viewBox="0 0 24 24" fill="none" xmlns="http://www.w3.org/2000/svg">
<path fill-rule="evenodd" clip-rule="evenodd" d="M2 3C2 2.44772 2.44772 2 3 2H6.5C6.91421 2 7.25 2.33579 7.25 2.75C7.25 3.16421 6.91421 3.5 6.5 3.5H3.5V6.5C3.5 6.91421 3.16421 7.25 2.75 7.25C2.33579 7.25 2 6.91421 2 6.5V3Z" fill="#3959CC"/>
<path fill-rule="evenodd" clip-rule="evenodd" d="M21 2C21.5523 2 22 2.44772 22 3V6.5C22 6.91421 21.6642 7.25 21.25 7.25C20.8358 7.25 20.5 6.91421 20.5 6.5V3.5H17.5C17.0858 3.5 16.75 3.16421 16.75 2.75C16.75 2.33579 17.0858 2 17.5 2H21Z" fill="#3959CC"/>
<path fill-rule="evenodd" clip-rule="evenodd" d="M3 22C2.44772 22 2 21.5523 2 21V17.5C2 17.0858 2.33579 16.75 2.75 16.75C3.16421 16.75 3.5 17.0858 3.5 17.5V20.5H6.5C6.91421 20.5 7.25 20.8358 7.25 21.25C7.25 21.6642 6.91421 22 6.5 22H3Z" fill="#3959CC"/>
<path fill-rule="evenodd" clip-rule="evenodd" d="M22 21C22 21.5523 21.5523 22 21 22H17.5C17.0858 22 16.75 21.6642 16.75 21.25C16.75 20.8358 17.0858 20.5 17.5 20.5H20.5V17.5C20.5 17.0858 20.8358 16.75 21.25 16.75C21.6642 16.75 22 17.0858 22 17.5V21Z" fill="#3959CC"/>
<path fill-rule="evenodd" clip-rule="evenodd" d="M9.5 6.5H6.5V9.5H9.5V6.5ZM5 5V11H11V5H5Z" fill="#3959CC"/>
<path fill-rule="evenodd" clip-rule="evenodd" d="M17.5 6.5H14.5V9.5H17.5V6.5ZM13 5V11H19V5H13Z" fill="#3959CC"/>
<path fill-rule="evenodd" clip-rule="evenodd" d="M9.5 14.5H6.5V17.5H9.5V14.5ZM5 13V19H11V13H5Z" fill="#3959CC"/>
<path d="M13 13H14.5V14.5H13V13Z" fill="#3959CC"/>
<path d="M16 13H17.5V14.5H16V13Z" fill="#3959CC"/>
<path d="M13 14.5H14.5V16H13V14.5Z" fill="#3959CC"/>
<path d="M14.5 14.5H16V16H14.5V14.5Z" fill="#3959CC"/>
<path d="M17.5 14.5H19V16H17.5V14.5Z" fill="#3959CC"/>
<path d="M16 16H17.5V17.5H16V16Z" fill="#3959CC"/>
<path d="M13 17.5H14.5V19H13V17.5Z" fill="#3959CC"/>
<path d="M16 17.5H17.5V19H16V17.5Z" fill="#3959CC"/>
<path d="M17.5 17.5H19V19H17.5V17.5Z" fill="#3959CC"/>
</svg>
