<svg width="24" height="24" viewBox="0 0 24 24" fill="none" xmlns="http://www.w3.org/2000/svg">
<path fill-rule="evenodd" clip-rule="evenodd" d="M4 5C4 3.34315 5.34315 2 7 2C8.65685 2 10 3.34315 10 5C10 6.65685 8.65685 8 7 8C5.34315 8 4 6.65685 4 5ZM7 4C6.44772 4 6 4.44772 6 5C6 5.55228 6.44772 6 7 6C7.55228 6 8 5.55228 8 5C8 4.44772 7.55228 4 7 4Z" fill="#3959CC"/>
<path fill-rule="evenodd" clip-rule="evenodd" d="M13 5C13 3.34315 14.3431 2 16 2C17.6569 2 19 3.34315 19 5C19 6.65685 17.6569 8 16 8C14.3431 8 13 6.65685 13 5ZM16 4C15.4477 4 15 4.44772 15 5C15 5.55228 15.4477 6 16 6C16.5523 6 17 5.55228 17 5C17 4.44772 16.5523 4 16 4Z" fill="#3959CC"/>
<path fill-rule="evenodd" clip-rule="evenodd" d="M15 8.5C13.3431 8.5 12 9.84315 12 11.5H11C11 9.84315 9.65685 8.5 8 8.5H6C4.34315 8.5 3 9.84315 3 11.5H2.5C1.94772 11.5 1.5 11.9477 1.5 12.5C1.5 13.0523 1.94772 13.5 2.5 13.5H3V16C3 16.4888 3.35341 16.906 3.8356 16.9864L4.27959 17.0604L4.50154 21.0555C4.53098 21.5854 4.96927 22 5.5 22H8.5C9.03073 22 9.46902 21.5854 9.49846 21.0555L9.72041 17.0604L10.1644 16.9864C10.6466 16.906 11 16.4888 11 16V13.5H21.5C22.0523 13.5 22.5 13.0523 22.5 12.5C22.5 11.9477 22.0523 11.5 21.5 11.5H20C20 9.84315 18.6569 8.5 17 8.5H15ZM17 10.5C17.5523 10.5 18 10.9477 18 11.5H14C14 10.9477 14.4477 10.5 15 10.5H17ZM5 11.5C5 10.9477 5.44772 10.5 6 10.5H8C8.55228 10.5 9 10.9477 9 11.5V15.1529L8.60196 15.2192C8.14037 15.2961 7.79385 15.6829 7.76789 16.1501L7.55401 20H6.44599L6.23211 16.1501C6.20615 15.6829 5.85963 15.2961 5.39804 15.2192L5 15.1529V11.5Z" fill="#3959CC"/>
</svg>
