<svg width="24" height="24" viewBox="0 0 24 24" fill="none" xmlns="http://www.w3.org/2000/svg">
<path d="M21.7071 6.29289C22.0976 6.68342 22.0976 7.31658 21.7071 7.70711L17.7071 11.7071C17.3166 12.0976 16.6834 12.0976 16.2929 11.7071C15.9024 11.3166 15.9024 10.6834 16.2929 10.2929L18.5858 8L10 8C8.98534 8 7.44717 8.30014 6.19359 9.16662C4.9928 9.99661 4 11.3755 4 13.72C4 16.7913 5.11829 18.2728 6.29695 19.0428C7.55176 19.8626 9.06397 20 10 20H17C17.5523 20 18 20.4477 18 21C18 21.5523 17.5523 22 17 22H10C8.93603 22 6.94824 21.8574 5.20305 20.7172C3.38171 19.5272 2 17.3687 2 13.72C2 10.6885 3.34054 8.70739 5.05641 7.52138C6.71949 6.37186 8.68133 6 10 6L18.5858 6L16.2929 3.70711C15.9024 3.31658 15.9024 2.68342 16.2929 2.29289C16.6834 1.90237 17.3166 1.90237 17.7071 2.29289L21.7071 6.29289Z" fill="#3959CC"/>
</svg>
