<svg width="24" height="24" viewBox="0 0 24 24" fill="none" xmlns="http://www.w3.org/2000/svg">
<path fill-rule="evenodd" clip-rule="evenodd" d="M2.29289 6.29289C1.90237 6.68342 1.90237 7.31658 2.29289 7.70711L6.29289 11.7071C6.68342 12.0976 7.31658 12.0976 7.70711 11.7071C8.09763 11.3166 8.09763 10.6834 7.70711 10.2929L5.41421 8L14 8C15.0147 8 16.5528 8.30014 17.8064 9.16662C19.0072 9.99661 20 11.3755 20 13.72C20 16.7913 18.8817 18.2728 17.7031 19.0428C16.4482 19.8626 14.936 20 14 20L7 20C6.44771 20 6 20.4477 6 21C6 21.5523 6.44771 22 7 22L14 22C15.064 22 17.0518 21.8574 18.7969 20.7172C20.6183 19.5272 22 17.3687 22 13.72C22 10.6885 20.6595 8.70739 18.9436 7.52138C17.2805 6.37186 15.3187 6 14 6L5.41421 6L7.70711 3.70711C8.09763 3.31658 8.09763 2.68342 7.70711 2.29289C7.31658 1.90237 6.68342 1.90237 6.29289 2.29289L2.29289 6.29289Z" fill="#3959CC"/>
</svg>
