<svg width="24" height="24" viewBox="0 0 24 24" fill="none" xmlns="http://www.w3.org/2000/svg">
<path fill-rule="evenodd" clip-rule="evenodd" d="M21.9267 3.41911C22.0926 3.04591 22.0149 2.60934 21.7303 2.31634C21.4458 2.02334 21.0117 1.93279 20.6338 2.08761L2.6336 9.46186C2.26326 9.61358 2.01905 9.97149 2.01282 10.3716C2.00659 10.7718 2.23954 11.1371 2.60497 11.3003L9.23501 14.2608L12.0844 21.3844C12.2338 21.7576 12.5921 22.0052 12.9941 22.0128C13.396 22.0204 13.7634 21.7865 13.9267 21.4191L21.9267 3.41911ZM9.79255 12.3194L5.55396 10.4268L16.5392 5.92639L9.82516 12.2871C9.81399 12.2977 9.80312 12.3084 9.79255 12.3194ZM11.1859 13.7527L13.0614 18.4416L18.0248 7.27401L11.2006 13.739C11.1958 13.7436 11.1908 13.7482 11.1859 13.7527Z" fill="#3959CC"/>
</svg>
