<svg width="24" height="24" viewBox="0 0 24 24" fill="none" xmlns="http://www.w3.org/2000/svg">
<path fill-rule="evenodd" clip-rule="evenodd" d="M16.0002 12C16.0002 14.2091 14.2094 16 12.0002 16C9.79111 16 8.00024 14.2091 8.00024 12C8.00024 9.79086 9.79111 8 12.0002 8C14.2094 8 16.0002 9.79086 16.0002 12ZM14.0002 12C14.0002 13.1046 13.1048 14 12.0002 14C10.8957 14 10.0002 13.1046 10.0002 12C10.0002 10.8954 10.8957 10 12.0002 10C13.1048 10 14.0002 10.8954 14.0002 12Z" fill="#3959CC"/>
<path fill-rule="evenodd" clip-rule="evenodd" d="M10.5005 2C10.0589 2 9.66957 2.28967 9.54268 2.71265L8.97936 4.5904C8.29948 4.86785 7.66675 5.2359 7.09608 5.67925L5.18613 5.22773C4.75637 5.12614 4.31085 5.31846 4.09005 5.70091L2.59005 8.29898C2.36924 8.68143 2.42544 9.16343 2.72831 9.48481L4.0739 10.9127C4.02547 11.2686 4.00051 11.6316 4.00051 12C4.00051 12.3683 4.02547 12.7313 4.07388 13.0872L2.72831 14.5151C2.42544 14.8365 2.36924 15.3185 2.59005 15.7009L4.09005 18.299C4.31085 18.6814 4.75637 18.8738 5.18613 18.7722L7.09598 18.3207C7.66667 18.7641 8.29944 19.1321 8.97936 19.4096L9.54268 21.2873C9.66957 21.7103 10.0589 22 10.5005 22H13.5005C13.9421 22 14.3314 21.7103 14.4583 21.2873L15.0217 19.4096C15.7015 19.1321 16.3343 18.7641 16.9049 18.3207L18.8144 18.7721C19.2442 18.8737 19.6897 18.6814 19.9105 18.299L21.4105 15.7009C21.6313 15.3184 21.5751 14.8365 21.2722 14.5151L19.9271 13.0877C19.9755 12.7316 20.0005 12.3685 20.0005 12C20.0005 11.6315 19.9755 11.2684 19.9271 10.9123L21.2722 9.48492C21.5751 9.16353 21.6313 8.68154 21.4105 8.29909L19.9105 5.70102C19.6897 5.31857 19.2442 5.12624 18.8144 5.22784L16.9049 5.67925C16.3343 5.2359 15.7015 4.86785 15.0217 4.5904L14.4583 2.71265C14.3314 2.28967 13.9421 2 13.5005 2H10.5005ZM10.7519 5.64219L11.2445 4H12.7565L13.2491 5.64219C13.3428 5.95435 13.5827 6.20129 13.892 6.30394C14.6725 6.56298 15.3829 6.97857 15.9855 7.51439C16.2291 7.73095 16.5629 7.81523 16.88 7.74025L18.5504 7.34537L19.3064 8.65474L18.1304 9.90269C17.9072 10.1396 17.8132 10.4702 17.8785 10.7891C17.9584 11.1794 18.0005 11.5842 18.0005 12C18.0005 12.4157 17.9584 12.8206 17.8785 13.2109C17.8132 13.5298 17.9072 13.8604 18.1304 14.0973L19.3064 15.3452L18.5504 16.6546L16.8801 16.2597C16.5629 16.1848 16.2291 16.269 15.9855 16.4856C15.3829 17.0214 14.6725 17.437 13.892 17.6961C13.5827 17.7987 13.3428 18.0457 13.2491 18.3578L12.7565 20H11.2445L10.7519 18.3578C10.6582 18.0457 10.4183 17.7987 10.109 17.6961C9.32845 17.437 8.61806 17.0214 8.01542 16.4855C7.77186 16.269 7.43804 16.1847 7.12087 16.2597L5.45008 16.6546L4.69411 15.3453L5.87055 14.0969C6.09375 13.86 6.18773 13.5294 6.12247 13.2105C6.04261 12.8204 6.0005 12.4156 6.0005 12C6.0005 11.5844 6.04262 11.1796 6.12249 10.7894C6.18775 10.4705 6.09377 10.1399 5.87057 9.90303L4.69411 8.65464L5.45008 7.34526L7.12096 7.74026C7.43813 7.81524 7.77194 7.73096 8.0155 7.5144C8.61813 6.97857 9.32849 6.56298 10.109 6.30394C10.4183 6.20129 10.6582 5.95435 10.7519 5.64219Z" fill="#3959CC"/>
</svg>
