<svg width="24" height="24" viewBox="0 0 24 24" fill="none" xmlns="http://www.w3.org/2000/svg">
<path d="M14.2929 9.7072C14.2713 9.68558 14.2508 9.66308 14.2314 9.63977C14.09 9.47036 14.0134 9.26518 14.0016 9.05701C14.0005 9.03811 14 9.01913 14 9.00009L14 4.00009C14 3.44781 14.4477 3.00009 15 3.00009C15.5523 3.00009 16 3.44781 16 4.00009L16 6.58579L20.2929 2.29289C20.6834 1.90237 21.3166 1.90237 21.7071 2.29289C22.0976 2.68342 22.0976 3.31658 21.7071 3.70711L17.4141 8.00009L20 8.00009C20.5523 8.00009 21 8.44781 21 9.00009C21 9.55238 20.5523 10.0001 20 10.0001L15 10.0001C14.9374 10.0001 14.8753 9.99421 14.8146 9.98276C14.6545 9.95271 14.5003 9.88335 14.3675 9.77469C14.3417 9.75355 14.3167 9.73104 14.2929 9.7072Z" fill="#3959CC"/>
<path d="M9.70711 14.2929C9.72872 14.3145 9.74925 14.337 9.76864 14.3603C9.90999 14.5297 9.98657 14.7349 9.99838 14.9431C9.99946 14.962 10 14.981 10 15L10 20C10 20.5523 9.55228 21 9 21C8.44772 21 8 20.5523 8 20V17.4143L3.70711 21.7072C3.31658 22.0977 2.68342 22.0977 2.29289 21.7072C1.90237 21.3167 1.90237 20.6835 2.29289 20.293L6.58588 16H4C3.44772 16 3 15.5523 3 15C3 14.4477 3.44772 14 4 14H9C9.06265 14 9.12469 14.0059 9.18539 14.0173C9.3455 14.0474 9.49969 14.1167 9.63246 14.2254C9.65834 14.2465 9.68327 14.2691 9.70711 14.2929Z" fill="#3959CC"/>
</svg>
