<svg width="24" height="24" viewBox="0 0 24 24" fill="none" xmlns="http://www.w3.org/2000/svg">
<path d="M13.2884 9.26279C13.1574 9.65575 13.3697 10.0805 13.7627 10.2115L15.2627 10.7115C15.6557 10.8425 16.0804 10.6301 16.2114 10.2371C16.3424 9.84417 16.13 9.41943 15.737 9.28845L14.237 8.78845C13.8441 8.65746 13.4193 8.86983 13.2884 9.26279Z" fill="#3959CC"/>
<path d="M10.2375 10.2115C10.6304 10.0805 10.8428 9.65575 10.7118 9.26279C10.5808 8.86983 10.1561 8.65746 9.76311 8.78845L8.26311 9.28845C7.87015 9.41943 7.65778 9.84417 7.78877 10.2371C7.91976 10.6301 8.3445 10.8425 8.73745 10.7115L10.2375 10.2115Z" fill="#3959CC"/>
<path d="M11.0308 13.53C11.0305 13.5303 11.0307 13.5301 11.0308 13.53C10.7379 13.8229 10.2626 13.8232 9.96975 13.5303C9.67686 13.2374 9.67686 12.7626 9.96975 12.4697C10.2799 12.1595 11.0052 11.75 12.0001 11.75C12.9949 11.75 13.7202 12.1595 14.0304 12.4697C14.3233 12.7626 14.3233 13.2374 14.0304 13.5303C13.7375 13.8232 13.2626 13.8232 12.9697 13.5303C12.9698 13.5304 12.97 13.5306 12.9697 13.5303C12.9636 13.5252 12.8778 13.4531 12.7032 13.3815C12.5318 13.3112 12.2948 13.25 12.0001 13.25C11.7054 13.25 11.4684 13.3112 11.297 13.3815C11.1223 13.4531 11.0369 13.5249 11.0308 13.53Z" fill="#3959CC"/>
<path fill-rule="evenodd" clip-rule="evenodd" d="M8.75008 3C8.75008 2.58579 8.41429 2.25 8.00008 2.25C7.58587 2.25 7.25008 2.58579 7.25008 3V4.85821C5.86646 6.13704 5.00008 7.96734 5.00008 10C5.00008 12.7358 6.56947 15.105 8.85707 16.2564C6.52591 16.4492 4.89998 17.0461 3.8326 18.0732C2.74673 19.1182 2.35994 20.4912 2.25217 21.9445C2.22153 22.3576 2.53157 22.7173 2.94465 22.7479C3.35773 22.7786 3.71743 22.4685 3.74806 22.0555C3.84253 20.7816 4.16361 19.8364 4.87269 19.1541C5.51674 18.5343 6.57735 18.0381 8.36346 17.815C8.43757 18.04 8.55018 18.2956 8.7218 18.5527C9.25727 19.355 10.2651 20.0227 12.0001 20.0227C13.7351 20.0227 14.743 19.355 15.2784 18.5527C15.4502 18.2954 15.5628 18.0395 15.637 17.8144C17.4233 18.0343 18.4593 18.5129 19.0894 19.1197C19.7861 19.7908 20.1098 20.737 20.2544 22.0803C20.2988 22.4921 20.6686 22.79 21.0804 22.7457C21.4922 22.7014 21.7901 22.3316 21.7458 21.9197C21.587 20.4448 21.2029 19.0728 20.13 18.0394C19.072 17.0204 17.4674 16.4483 15.1431 16.2564C17.4307 15.1049 19.0001 12.7357 19.0001 10C19.0001 6.13401 15.8661 3 12.0001 3C11.7467 3 11.4965 3.01346 11.2501 3.03971V3C11.2501 2.58579 10.9143 2.25 10.5001 2.25C10.0859 2.25 9.75008 2.58579 9.75008 3V3.36945C9.40378 3.48693 9.06965 3.63077 8.75008 3.7986V3ZM14.4187 16.5709C13.6649 16.8485 12.8502 17 12.0001 17C11.15 17 10.3353 16.8485 9.58156 16.571C9.6669 16.6933 9.71451 16.8394 9.71635 16.9909L9.7164 16.9922C9.71662 16.997 9.71726 17.0088 9.71894 17.0265C9.72234 17.0621 9.72981 17.1199 9.74591 17.1922C9.77854 17.3389 9.84338 17.5311 9.96944 17.72C10.1924 18.0541 10.7014 18.5227 12.0001 18.5227C13.2988 18.5227 13.8078 18.0541 14.0308 17.72C14.1568 17.5311 14.2217 17.3389 14.2543 17.1922C14.2704 17.1199 14.2779 17.0621 14.2813 17.0265C14.283 17.0088 14.2836 16.997 14.2838 16.9922L14.2839 16.9909C14.2857 16.8394 14.3333 16.6933 14.4187 16.5709ZM9.75008 7V4.97979C9.3952 5.13909 9.06027 5.33492 8.75008 5.56248V8C8.75008 8.41421 8.41429 8.75 8.00008 8.75C7.58587 8.75 7.25008 8.41421 7.25008 8V7.2256C6.77333 8.04007 6.50008 8.98812 6.50008 10C6.50008 13.0376 8.96251 15.5 12.0001 15.5C15.0376 15.5 17.5001 13.0376 17.5001 10C17.5001 6.96243 15.0376 4.5 12.0001 4.5C11.7457 4.5 11.4953 4.51727 11.2501 4.55071V7C11.2501 7.41421 10.9143 7.75 10.5001 7.75C10.0859 7.75 9.75008 7.41421 9.75008 7Z" fill="#3959CC"/>
<path d="M21.6242 7.58405C21.3944 7.23941 20.9288 7.14628 20.5841 7.37604C20.2395 7.60581 20.1464 8.07146 20.3761 8.4161L21.0988 9.50008L20.3761 10.5841C20.2082 10.836 20.2082 11.1642 20.3761 11.4161L21.0988 12.5001L20.3761 13.5841C20.1464 13.9287 20.2395 14.3944 20.5841 14.6241C20.9288 14.8539 21.3944 14.7608 21.6242 14.4161L22.6242 12.9161C22.7921 12.6642 22.7921 12.336 22.6242 12.0841L21.9015 11.0001L22.6242 9.9161C22.7921 9.66418 22.7921 9.33598 22.6242 9.08405L21.6242 7.58405Z" fill="#3959CC"/>
<path d="M3.41603 7.37604C3.07138 7.14628 2.60573 7.23941 2.37596 7.58405L1.37596 9.08405C1.20801 9.33598 1.20801 9.66418 1.37596 9.9161L2.09861 11.0001L1.37596 12.0841C1.20801 12.336 1.20801 12.6642 1.37596 12.9161L2.37596 14.4161C2.60573 14.7608 3.07138 14.8539 3.41603 14.6241C3.76067 14.3944 3.8538 13.9287 3.62404 13.5841L2.90139 12.5001L3.62404 11.4161C3.79199 11.1642 3.79199 10.836 3.62404 10.5841L2.90139 9.50008L3.62404 8.4161C3.8538 8.07146 3.76067 7.60581 3.41603 7.37604Z" fill="#3959CC"/>
</svg>
