<svg width="24" height="24" viewBox="0 0 24 24" fill="none" xmlns="http://www.w3.org/2000/svg">
<path fill-rule="evenodd" clip-rule="evenodd" d="M18.47 9.40002H15.48L15.22 10.22C15.01 10.89 14.88 11.16 14.28 11.16C13.94 11.16 13.21 11.03 13.21 10.42C13.21 10.2194 13.2556 10.0918 13.3904 9.71476L13.41 9.66002L15.4324 4.09327C15.6716 3.43546 15.9136 2.77002 16.97 2.77002C18.05 2.77002 18.29 3.41002 18.54 4.10002L20.55 9.67002C20.71 10.1 20.75 10.22 20.75 10.43C20.75 11 20.05 11.16 19.68 11.16C19.07 11.16 18.96 10.9 18.74 10.22L18.47 9.40002ZM16.98 4.80002L15.99 7.84002H17.97L16.98 4.80002Z" fill="#3959CC"/>
<path d="M19.56 15.2902L15.84 19.2902H19.51C19.83 19.2902 20.39 19.3502 20.39 20.1402C20.39 20.7402 20.09 21.0002 19.51 21.0002H14.68C14.26 21.0002 13.29 21.0002 13.29 19.9902C13.29 19.3902 13.62 19.0302 13.99 18.6302L17.71 14.6402H14.26C14.04 14.6402 13.38 14.6402 13.38 13.7902C13.38 13.1802 13.67 12.9302 14.26 12.9302H18.88C19.28 12.9302 20.26 12.9302 20.26 13.9502C20.26 14.5321 19.9293 14.8902 19.5749 15.2741L19.56 15.2902Z" fill="#3959CC"/>
<path d="M6 18.5858L4.70711 17.2929C4.31658 16.9024 3.68342 16.9024 3.29289 17.2929C2.90237 17.6834 2.90237 18.3166 3.29289 18.7071L6.29289 21.7071C6.68342 22.0976 7.31658 22.0976 7.70711 21.7071L10.7071 18.7071C11.0976 18.3166 11.0976 17.6834 10.7071 17.2929C10.3166 16.9024 9.68342 16.9024 9.29289 17.2929L8 18.5858L8 4C8 3.44772 7.55229 3 7 3C6.44772 3 6 3.44772 6 4L6 18.5858Z" fill="#3959CC"/>
</svg>
