<svg width="24" height="24" viewBox="0 0 24 24" fill="none" xmlns="http://www.w3.org/2000/svg">
<path d="M1.39648 5.3689C3.50806 3.92983 6.03268 3.56081 8.25879 4.63062C10.0741 5.50307 11.361 7.1738 12 9.19995C12.639 7.1738 13.9259 5.50307 15.7412 4.63062C17.9673 3.56081 20.4919 3.92983 22.6035 5.3689C22.1885 8.02597 20.7563 10.3 18.5283 11.3708C16.7548 12.2232 14.7927 12.1595 13 11.3718V21.2859H11V11.3718C9.20735 12.1595 7.24517 12.2232 5.47168 11.3708C3.24371 10.3 1.81153 8.02597 1.39648 5.3689ZM7.56152 6.31421C6.27576 5.69631 4.80076 5.71337 3.39062 6.32983C3.86593 7.75205 4.73143 8.87792 5.87109 9.53003L6.16895 9.68726C7.45394 10.3048 8.92863 10.2887 10.3379 9.67358C9.82209 8.12913 8.84862 6.93279 7.56152 6.31421ZM20.6094 6.32983C19.1992 5.71337 17.7242 5.69631 16.4385 6.31421C15.1514 6.93279 14.1779 8.12913 13.6621 9.67358C15.0714 10.2887 16.5461 10.3048 17.8311 9.68726L18.1289 9.53003C19.2686 8.87792 20.1341 7.75205 20.6094 6.32983Z" fill="#3959CC"/>
</svg>
