<svg width="24" height="24" viewBox="0 0 24 24" fill="none" xmlns="http://www.w3.org/2000/svg">
<path fill-rule="evenodd" clip-rule="evenodd" d="M12 2C12.4032 2 12.767 2.24215 12.9226 2.61412L15.4502 8.65709L21.536 8.87604C21.9397 8.89056 22.2951 9.14659 22.4366 9.52498C22.5782 9.90336 22.4782 10.3298 22.1831 10.6057L17.5403 14.9481L18.8472 20.7814C18.9351 21.174 18.7792 21.5811 18.4515 21.8145C18.1237 22.0479 17.688 22.0622 17.3457 21.8507L12 18.5479L6.65433 21.8507C6.31204 22.0622 5.87634 22.0479 5.5486 21.8145C5.22087 21.5811 5.06495 21.174 5.1529 20.7814L6.45961 14.9481L1.81694 10.6057C1.52189 10.3298 1.42187 9.90335 1.56344 9.52497C1.70501 9.14659 2.06035 8.89056 2.46408 8.87604L8.54972 8.65709L11.0775 2.6141C11.2331 2.24213 11.5968 2 12 2ZM12 5.59141L10.1478 10.0193C9.99726 10.3793 9.65112 10.6188 9.26123 10.6328L4.93996 10.7883L8.24356 13.8782C8.50239 14.1203 8.61375 14.4813 8.53628 14.8271L7.62373 18.9008L11.4744 16.5217C11.7965 16.3227 12.2034 16.3227 12.5256 16.5217L16.3763 18.9008L15.4637 14.8271C15.3862 14.4813 15.4976 14.1203 15.7564 13.8782L19.0601 10.7883L14.7387 10.6328C14.3488 10.6188 14.0027 10.3793 13.8521 10.0193L12 5.59141Z" fill="#3959CC"/>
</svg>
