<svg width="24" height="24" viewBox="0 0 24 24" fill="none" xmlns="http://www.w3.org/2000/svg">
<path d="M12.9226 2.61412C12.767 2.24215 12.4032 2 12 2C11.5968 2 11.2331 2.24213 11.0775 2.6141L8.54972 8.65709L2.46408 8.87604C2.06035 8.89056 1.70501 9.14659 1.56344 9.52497C1.42187 9.90335 1.52189 10.3298 1.81694 10.6057L6.45961 14.9481L5.1529 20.7814C5.06495 21.174 5.22087 21.5811 5.5486 21.8145C5.87634 22.0479 6.31204 22.0622 6.65433 21.8507L12 18.5479L17.3457 21.8507C17.688 22.0622 18.1238 22.0479 18.4515 21.8145C18.7792 21.5811 18.9351 21.174 18.8472 20.7814L17.5403 14.9481L22.1831 10.6057C22.4782 10.3298 22.5782 9.90336 22.4366 9.52498C22.2951 9.14659 21.9397 8.89056 21.536 8.87604L15.4502 8.65709L12.9226 2.61412Z" fill="#3959CC"/>
</svg>
