<svg width="24" height="24" viewBox="0 0 24 24" fill="none" xmlns="http://www.w3.org/2000/svg">
<path fill-rule="evenodd" clip-rule="evenodd" d="M6 5C6 5.55228 5.55228 6 5 6L4 6L4 8C4 9.12345 4.31709 9.83495 4.76143 10.2692C5.20974 10.7073 5.92752 11 7 11C8.04949 11 8.7717 10.6891 9.23039 10.2304C9.68908 9.7717 10 9.04949 10 8V6H9C8.44772 6 8 5.55228 8 5C8 4.44772 8.44772 4 9 4H11C11.0345 4 11.0686 4.00175 11.1022 4.00516C11.6065 4.05637 12 4.48223 12 5V8C12 9.45051 11.5609 10.7283 10.6446 11.6446C9.94553 12.3437 9.03606 12.765 8 12.9255L8 14.2857C8 15.5356 8.36238 16.7204 9.07416 17.5737C9.76325 18.3998 10.8479 19 12.5 19C14.1521 19 15.2367 18.3998 15.9257 17.5737C16.526 16.8541 16.8778 15.8985 16.9733 14.867C15.2617 14.4138 14 12.8542 14 11C14 8.79086 15.7909 7 18 7C20.2091 7 22 8.79086 22 11C22 12.8715 20.7148 14.4428 18.9788 14.8794C18.8771 16.2975 18.4053 17.7235 17.4616 18.8548C16.3632 20.1716 14.6979 21 12.5 21C10.3021 21 8.63675 20.1716 7.53834 18.8548C6.46262 17.5653 6 15.893 6 14.2857L6 12.9301C4.97738 12.781 4.06781 12.3878 3.36357 11.6996C2.4329 10.7901 2 9.50154 2 8V5C2 4.72188 2.11354 4.47027 2.2968 4.28901C2.35235 4.23406 2.41431 4.18557 2.48146 4.14477C2.60517 4.06961 2.74648 4.02053 2.89776 4.00516C2.93137 4.00175 2.96548 4 3 4H5C5.55228 4 6 4.44772 6 5ZM18 13C19.1046 13 20 12.1046 20 11C20 9.89543 19.1046 9 18 9C16.8954 9 16 9.89543 16 11C16 12.1046 16.8954 13 18 13Z" fill="#3959CC"/>
</svg>
