<svg width="24" height="24" viewBox="0 0 24 24" fill="none" xmlns="http://www.w3.org/2000/svg">
<path d="M8.04854 8.07188L7.27006 8.90241C7.09658 9.0877 7 9.33209 7 9.58591V20.0002C7 20.5524 7.44772 21.0002 8 21.0002H16.6667C18.0424 21.0002 19.0088 20.4805 19.6784 19.6528C20.264 18.9291 20.5841 18.0046 20.8366 17.2751L20.8615 17.2035L20.8635 17.1977C21.147 16.3792 21.4267 15.3874 21.6366 14.4644C21.8417 13.5623 22 12.6407 22 12.0002C22 11.14 21.5638 10.3739 21.0159 9.84729C20.4656 9.31825 19.6865 8.91731 18.8333 8.91731L15.3615 8.91736L15.4786 8.60791C15.8295 7.67884 16.2524 6.54314 16.5281 5.74782C16.8995 4.67675 16.7105 3.53379 16.1243 2.78567C15.8262 2.40528 15.3705 2.06666 14.7812 2.0086C14.1685 1.94824 13.6185 2.21081 13.1995 2.63276C12.6705 3.16546 11.1815 4.74022 9.83863 6.16673C9.1641 6.88327 8.52198 7.56716 8.04854 8.07188Z" fill="#3959CC"/>
<path d="M2 10C2 9.44771 2.44772 9 3 9H4C4.55228 9 5 9.44772 5 10V20C5 20.5523 4.55228 21 4 21H3C2.44772 21 2 20.5523 2 20V10Z" fill="#3959CC"/>
</svg>
