<svg width="24" height="24" viewBox="0 0 24 24" fill="none" xmlns="http://www.w3.org/2000/svg">
<path fill-rule="evenodd" clip-rule="evenodd" d="M8.04854 8.07188L7.27006 8.90241C7.09658 9.0877 7 9.33209 7 9.58591V20.0002C7 20.5524 7.44838 21.0002 8.00067 21.0002H16.6667C18.0424 21.0002 19.0088 20.4805 19.6785 19.6528C20.264 18.929 20.5841 18.0045 20.8367 17.2751L20.8615 17.2034C21.1457 16.3839 21.4262 15.3896 21.6366 14.4644C21.8417 13.5623 22 12.6407 22 12.0002C22 11.14 21.5638 10.3739 21.0159 9.84729C20.4656 9.31825 19.6865 8.91731 18.8333 8.91731L15.3615 8.91735L15.4786 8.60791C15.8295 7.67884 16.2524 6.54314 16.5281 5.74782C16.8995 4.67675 16.7105 3.53379 16.1243 2.78567C15.8262 2.40528 15.3705 2.06666 14.7812 2.0086C14.1685 1.94824 13.6185 2.21081 13.1995 2.63276C12.6705 3.16546 11.1815 4.74022 9.83863 6.16673C9.1641 6.88327 8.52198 7.56716 8.04854 8.07188ZM14.6385 5.09261C14.7922 4.64927 14.7004 4.26454 14.5871 4.0739C14.0547 4.61294 12.6208 6.12911 11.2949 7.53762C10.6214 8.25303 9.98015 8.93601 9.50721 9.44018L9 9.98118V19.0002H16.6667C17.4576 19.0002 17.8454 18.7387 18.1236 18.3948C18.4667 17.9708 18.6867 17.3706 18.9719 16.5482C19.2293 15.8056 19.4904 14.8828 19.6863 14.021C19.8875 13.1362 20 12.401 20 12.0002C20 11.8189 19.8946 11.5436 19.6299 11.2891C19.3677 11.0371 19.0635 10.9173 18.8333 10.9173L13.9091 10.9174C13.5794 10.9174 13.271 10.7549 13.0845 10.4831C12.898 10.2112 12.8576 9.86445 12.9763 9.5569C12.9763 9.55691 12.9761 9.55736 13.9091 9.91738L12.9763 9.5569L13.0254 9.42936C13.0573 9.34648 13.1035 9.22621 13.1606 9.07696C13.2748 8.77839 13.4328 8.36411 13.6076 7.9013C13.9584 6.97233 14.3726 5.85945 14.6385 5.09261Z" fill="#3959CC"/>
<path d="M3 9C2.44772 9 2 9.44771 2 10V20C2 20.5523 2.44772 21 3 21H4C4.55228 21 5 20.5523 5 20V10C5 9.44772 4.55228 9 4 9H3Z" fill="#3959CC"/>
</svg>
