<svg width="24" height="24" viewBox="0 0 24 24" fill="none" xmlns="http://www.w3.org/2000/svg">
<path d="M15.9515 15.928L16.7299 15.0975C16.9034 14.9122 17 14.6678 17 14.414L17 3.99976C17 3.44747 16.5523 2.99976 16 2.99976L7.33333 2.99976C5.95758 2.99976 4.99122 3.51942 4.32156 4.34712C3.73602 5.07084 3.41592 5.99533 3.16336 6.72478L3.13847 6.79641L3.13653 6.80224C2.85303 7.62071 2.57327 8.61248 2.36342 9.5355C2.15833 10.4377 2 11.3592 2 11.9998C2 12.8599 2.43623 13.626 2.98406 14.1526C3.53438 14.6817 4.31346 15.0826 5.16667 15.0826L8.63849 15.0826L8.5214 15.392C8.17053 16.3211 7.74762 17.4568 7.47185 18.2521C7.10047 19.3232 7.28954 20.4661 7.87574 21.2142C8.1738 21.5946 8.62951 21.9333 9.21884 21.9913C9.83152 22.0517 10.3815 21.7891 10.8005 21.3672C11.3295 20.8345 12.8185 19.2597 14.1614 17.8332C14.8359 17.1166 15.478 16.4328 15.9515 15.928Z" fill="#3959CC"/>
<path d="M22 13.9999C22 14.5522 21.5523 14.9999 21 14.9999H20C19.4477 14.9999 19 14.5522 19 13.9999L19 3.99992C19 3.44763 19.4477 2.99992 20 2.99992H21C21.5523 2.99992 22 3.44763 22 3.99992L22 13.9999Z" fill="#3959CC"/>
</svg>
