<svg width="24" height="24" viewBox="0 0 24 24" fill="none" xmlns="http://www.w3.org/2000/svg">
<path fill-rule="evenodd" clip-rule="evenodd" d="M15.9515 15.928L16.7299 15.0975C16.9034 14.9122 17 14.6678 17 14.414L17 3.99976C17 3.44747 16.5516 2.99976 15.9993 2.99976L7.33333 2.99976C5.95756 2.99976 4.9912 3.51943 4.32154 4.34715C3.736 5.07087 3.41591 5.99537 3.16335 6.72481L3.13852 6.79648C2.85434 7.61605 2.57376 8.61032 2.36342 9.5355C2.15833 10.4377 2 11.3592 2 11.9998C2 12.8599 2.43623 13.626 2.98406 14.1526C3.53438 14.6817 4.31346 15.0826 5.16667 15.0826L8.63849 15.0826L8.5214 15.392C8.17053 16.3211 7.74762 17.4568 7.47185 18.2521C7.10047 19.3232 7.28954 20.4661 7.87574 21.2142C8.1738 21.5946 8.62951 21.9333 9.21884 21.9913C9.83152 22.0517 10.3815 21.7891 10.8005 21.3672C11.3295 20.8345 12.8185 19.2597 14.1614 17.8332C14.8359 17.1166 15.478 16.4328 15.9515 15.928ZM9.36148 18.9073C9.20776 19.3506 9.29957 19.7354 9.41292 19.926C9.94532 19.387 11.3792 17.8708 12.7051 16.4623C13.3786 15.7469 14.0199 15.0639 14.4928 14.5597L15 14.0187L15 4.99976L7.33333 4.99976C6.54244 4.99976 6.15464 5.26118 5.87638 5.6051C5.53335 6.02909 5.31329 6.62935 5.02815 7.4517C4.77066 8.19427 4.50958 9.11712 4.31366 9.97888C4.11251 10.8637 4 11.5989 4 11.9998C4 12.181 4.10543 12.4564 4.37011 12.7108C4.63229 12.9628 4.93654 13.0826 5.16667 13.0826L10.0909 13.0825C10.4206 13.0825 10.729 13.245 10.9155 13.5169C11.102 13.7887 11.1424 14.1355 11.0237 14.443C11.0237 14.443 11.0239 14.4426 10.0909 14.0825L11.0237 14.443L10.9746 14.5706C10.9427 14.6534 10.8965 14.7737 10.8394 14.923C10.7252 15.2215 10.5672 15.6358 10.3924 16.0986C10.0416 17.0276 9.62738 18.1405 9.36148 18.9073Z" fill="#3959CC"/>
<path d="M21 14.9999C21.5523 14.9999 22 14.5522 22 13.9999L22 3.99992C22 3.44763 21.5523 2.99992 21 2.99992H20C19.4477 2.99992 19 3.44763 19 3.99992L19 13.9999C19 14.5522 19.4477 14.9999 20 14.9999H21Z" fill="#3959CC"/>
</svg>
