<svg width="24" height="24" viewBox="0 0 24 24" fill="none" xmlns="http://www.w3.org/2000/svg">
<path fill-rule="evenodd" clip-rule="evenodd" d="M9.36148 18.9074C9.20776 19.3508 9.29957 19.7355 9.41292 19.9261C9.94532 19.3871 11.3792 17.8709 12.7051 16.4624C13.3786 15.747 14.0199 15.064 14.4928 14.5599L15 14.0189L15 4.99988L7.33333 4.99988C6.54244 4.99988 6.15464 5.2613 5.87638 5.60522C5.53335 6.02922 5.31329 6.62948 5.02815 7.45183C4.77066 8.19439 4.50958 9.11725 4.31366 9.979C4.11251 10.8638 4 11.599 4 11.9999C4 12.1812 4.10543 12.4565 4.37011 12.7109C4.63229 12.963 4.93654 13.0827 5.16667 13.0827L10.0909 13.0827C10.4206 13.0827 10.729 13.2451 10.9155 13.517C11.102 13.7888 11.1424 14.1356 11.0237 14.4431C11.0237 14.4431 11.0239 14.4427 10.0909 14.0827L11.0237 14.4431L10.9746 14.5707C10.9427 14.6536 10.8965 14.7738 10.8394 14.9231C10.7252 15.2216 10.5672 15.6359 10.3924 16.0987C10.0416 17.0277 9.62738 18.1406 9.36148 18.9074ZM15.9515 15.9282L16.7299 15.0976C16.9034 14.9123 17 14.6679 17 14.4141L17 3.99988C17 3.44759 16.5516 2.99988 15.9993 2.99988L7.33333 2.99988C5.95756 2.99988 4.9912 3.51956 4.32154 4.34727C3.736 5.07099 3.41591 5.99549 3.16335 6.72493L3.16335 6.72493L3.13852 6.7966C2.85434 7.61618 2.57376 8.61044 2.36342 9.53563C2.15833 10.4378 2 11.3593 2 11.9999C2 12.86 2.43623 13.6261 2.98406 14.1528C3.53438 14.6818 4.31346 15.0827 5.16667 15.0827L8.63849 15.0827L8.5214 15.3921C8.17053 16.3212 7.74762 17.4569 7.47185 18.2522C7.10047 19.3233 7.28954 20.4662 7.87574 21.2144C8.1738 21.5948 8.62951 21.9334 9.21884 21.9914C9.83152 22.0518 10.3815 21.7892 10.8005 21.3673C11.3295 20.8346 12.8185 19.2598 14.1614 17.8333C14.8359 17.1168 15.478 16.4329 15.9515 15.9282ZM21 15C21.5523 15 22 14.5523 22 14L22 4.00004C22 3.44775 21.5523 3.00004 21 3.00004H20C19.4477 3.00004 19 3.44775 19 4.00004L19 14C19 14.5523 19.4477 15 20 15H21Z" fill="#3D5FCF"/>
</svg>
