<svg width="24" height="24" viewBox="0 0 24 24" fill="none" xmlns="http://www.w3.org/2000/svg">
<path d="M11 9.1C10.4477 9.1 10 9.54772 10 10.1V10.8C10 11.3523 10.4477 11.8 11 11.8C11.5523 11.8 12 11.3523 12 10.8V10.1C12 9.54772 11.5523 9.1 11 9.1Z" fill="#3959CC"/>
<path d="M10 14.2C10 13.6477 10.4477 13.2 11 13.2C11.5523 13.2 12 13.6477 12 14.2V14.9C12 15.4523 11.5523 15.9 11 15.9C10.4477 15.9 10 15.4523 10 14.9V14.2Z" fill="#3959CC"/>
<path fill-rule="evenodd" clip-rule="evenodd" d="M4 20C2.89543 20 2 19.1046 2 18V15.7924C2 15.0031 2.50223 14.3282 3.09383 13.8058C3.66268 13.3034 4 12.6779 4 12C4 11.3221 3.66268 10.6966 3.09383 10.1942C2.50223 9.67178 2 8.99687 2 8.20758V6C2 4.89543 2.89543 4 4 4H20C21.1046 4 22 4.89543 22 6V8.30741C22 9.09402 21.5029 9.76717 20.9049 10.2782C20.3347 10.7656 20 11.3593 20 12C20 12.6407 20.3347 13.2344 20.9049 13.7218C21.5029 14.2328 22 14.906 22 15.6926V18C22 19.1046 21.1046 20 20 20H4ZM12 6L20 6V8.29156C19.996 8.30303 19.986 8.32677 19.9634 8.36441C19.905 8.46135 19.7918 8.59862 19.6055 8.75784C18.7326 9.5039 18 10.6106 18 12C18 13.3894 18.7326 14.4961 19.6056 15.2422C19.7918 15.4014 19.905 15.5387 19.9634 15.6356C19.986 15.6732 19.996 15.697 20 15.7084V18H11.9542C11.8268 17.5943 11.4478 17.3 11 17.3C10.5522 17.3 10.1732 17.5943 10.0458 18H4V15.8085C4.00417 15.7961 4.01497 15.7698 4.0403 15.7276C4.10305 15.623 4.22245 15.4773 4.41774 15.3048C5.303 14.523 6 13.3872 6 12C6 10.6128 5.303 9.47697 4.41774 8.69516C4.22245 8.52269 4.10305 8.37704 4.0403 8.2724C4.01497 8.23016 4.00417 8.20386 4 8.19154V6L10 6V6.7C10 7.25229 10.4477 7.7 11 7.7C11.5523 7.7 12 7.25228 12 6.7V6ZM20.0015 8.28694C20.0019 8.28459 20.0024 8.28336 20.0024 8.28336L20.0015 8.28694ZM3.9985 8.18678C3.9981 8.18445 3.99768 8.18323 3.99768 8.18323L3.99794 8.18469L3.9985 8.18678Z" fill="#3959CC"/>
</svg>
