<svg width="24" height="24" viewBox="0 0 24 24" fill="none" xmlns="http://www.w3.org/2000/svg">
<path d="M10 10C10.5523 10 11 10.4477 11 11L11 17C11 17.5523 10.5523 18 10 18C9.44772 18 9 17.5523 9 17L9 11C9 10.4477 9.44772 10 10 10Z" fill="#3959CC"/>
<path d="M15 11C15 10.4477 14.5523 10 14 10C13.4477 10 13 10.4477 13 11V17C13 17.5523 13.4477 18 14 18C14.5523 18 15 17.5523 15 17V11Z" fill="#3959CC"/>
<path fill-rule="evenodd" clip-rule="evenodd" d="M17 6V4C17 2.89543 16.1046 2 15 2H9C7.89543 2 7 2.89543 7 4V6H4C3.44772 6 3 6.44772 3 7C3 7.55228 3.44772 8 4 8H5V20C5 21.1046 5.89543 22 7 22H17C18.1046 22 19 21.1046 19 20V8H20C20.5523 8 21 7.55228 21 7C21 6.44772 20.5523 6 20 6H17ZM15 4H9V6H15V4ZM17 8H7V20H17V8Z" fill="#3959CC"/>
</svg>
