<svg width="24" height="24" viewBox="0 0 24 24" fill="none" xmlns="http://www.w3.org/2000/svg">
<path d="M7.93267 17.8172C7.49666 17.2179 7.1442 16.562 6.88497 15.8676C6.81307 15.6743 6.68558 15.5065 6.51854 15.3855L4.36423 13.8267C3.75593 13.3856 3.26565 12.8015 2.93674 12.126C2.60782 11.4504 2.45039 10.7042 2.47837 9.95339C2.50635 9.20254 2.71887 8.47015 3.09715 7.82095C3.47543 7.17175 4.00782 6.62574 4.64726 6.23118C4.81328 6.13065 4.93408 5.9699 4.98445 5.78246C5.03482 5.59503 5.01087 5.39538 4.9176 5.22517C4.8685 5.13941 4.80268 5.06437 4.72405 5.0045C4.64542 4.94463 4.55558 4.90114 4.45984 4.87662C4.3641 4.8521 4.26442 4.84703 4.16669 4.86173C4.06896 4.87643 3.97517 4.91058 3.89088 4.96218C3.04184 5.4824 2.33425 6.20402 1.83079 7.0631C1.32733 7.92218 1.04356 8.89218 1.00463 9.88715C0.965697 10.8821 1.1728 11.8713 1.60759 12.7671C2.04238 13.6629 2.69143 14.4376 3.49722 15.0226L8.03585 18.3066C8.05603 18.3212 8.08076 18.3281 8.10558 18.3261C8.13041 18.3241 8.15371 18.3134 8.17131 18.2957C8.1889 18.2781 8.19963 18.2548 8.20158 18.2299C8.20352 18.2051 8.19654 18.1804 8.1819 18.1603L7.93267 17.8172Z" fill="#3959CC"/>
<path d="M8.3094 7.6989C8.31986 7.68661 8.32735 7.67208 8.33129 7.65643C8.33523 7.64077 8.33551 7.62443 8.33211 7.60865C8.3287 7.59287 8.32171 7.57809 8.31168 7.56546C8.30164 7.55282 8.28883 7.54266 8.27423 7.53578C7.89537 7.35488 7.48053 7.26196 7.06071 7.26395C6.60892 7.26429 6.16359 7.37121 5.76089 7.57603C5.3582 7.78084 5.00951 8.07777 4.74315 8.44269C4.29822 9.05505 4.11439 9.81891 4.23198 10.5667C4.34957 11.3144 4.75898 11.985 5.37039 12.4312L5.37158 12.4321L6.20477 13.0349C6.22044 13.0462 6.23891 13.0529 6.25816 13.0544C6.27741 13.0558 6.29668 13.0519 6.31385 13.0431C6.33101 13.0342 6.34541 13.0208 6.35544 13.0043C6.36547 12.9879 6.37075 12.9689 6.3707 12.9496C6.38274 11.0265 7.06878 9.16842 8.3094 7.6989Z" fill="#3959CC"/>
<path d="M6.3252 5.66115C6.78769 5.66115 7.16261 5.28623 7.16261 4.82374C7.16261 4.36125 6.78769 3.98633 6.3252 3.98633C5.86271 3.98633 5.48779 4.36125 5.48779 4.82374C5.48779 5.28623 5.86271 5.66115 6.3252 5.66115Z" fill="#3959CC"/>
<path d="M13.2952 4.66733L10.1646 6.94185C8.55832 8.1089 7.48141 9.86624 7.17081 11.8273C6.86021 13.7883 7.34136 15.7925 8.5084 17.3988L10.3154 19.8859C10.4438 20.0627 10.6058 20.2124 10.7921 20.3265C10.9784 20.4407 11.1853 20.517 11.4011 20.5512C11.6169 20.5854 11.8373 20.5767 12.0497 20.5257C12.2621 20.4747 12.4624 20.3824 12.6392 20.254L20.4804 14.5569C21.7919 13.6041 22.6711 12.1694 22.9247 10.5683C23.1783 8.96721 22.7855 7.33098 21.8326 6.01954C20.8798 4.70809 19.445 3.82886 17.844 3.57528C16.2429 3.32169 14.6067 3.71452 13.2952 4.66733Z" fill="#3959CC"/>
<path d="M8.25181 5.70101C8.75106 5.83692 9.22357 6.05672 9.64915 6.351C9.66681 6.36337 9.68788 6.36993 9.70944 6.36978C9.731 6.36963 9.75198 6.36277 9.76946 6.35015C10.0042 6.17943 10.8517 5.56318 10.8517 5.56318C10.8651 5.55344 10.876 5.54066 10.8835 5.52589C10.891 5.51112 10.8949 5.49478 10.8949 5.47821C10.8948 5.46164 10.8909 5.44532 10.8833 5.43059C10.8757 5.41586 10.8647 5.40314 10.8513 5.39347L10.6191 5.22669C10.0141 4.78506 9.3322 4.45975 8.60827 4.26735C8.51272 4.24201 8.41305 4.23611 8.31517 4.25001C8.2173 4.2639 8.12321 4.29731 8.03848 4.34825C7.95376 4.39918 7.88013 4.46662 7.82195 4.54654C7.76377 4.62647 7.72224 4.71726 7.69981 4.81354C7.65968 5.0041 7.6947 5.20279 7.79755 5.36815C7.9004 5.53351 8.06315 5.65276 8.25181 5.70101Z" fill="#3959CC"/>
</svg>
