<svg width="24" height="24" viewBox="0 0 24 24" fill="none" xmlns="http://www.w3.org/2000/svg">
<path d="M7.93267 17.3172C7.49666 16.7179 7.1442 16.062 6.88497 15.3676C6.81307 15.1743 6.68558 15.0065 6.51854 14.8855L4.36423 13.3267C3.75593 12.8856 3.26565 12.3015 2.93674 11.626C2.60782 10.9504 2.45039 10.2042 2.47837 9.45339C2.50635 8.70254 2.71887 7.97015 3.09715 7.32095C3.47543 6.67175 4.00782 6.12574 4.64726 5.73118C4.81328 5.63065 4.93408 5.4699 4.98445 5.28246C5.03482 5.09503 5.01087 4.89538 4.9176 4.72517C4.8685 4.63941 4.80268 4.56437 4.72405 4.5045C4.64542 4.44463 4.55558 4.40114 4.45984 4.37662C4.3641 4.3521 4.26442 4.34703 4.16669 4.36173C4.06896 4.37643 3.97517 4.41058 3.89088 4.46218C3.04184 4.9824 2.33425 5.70402 1.83079 6.5631C1.32733 7.42218 1.04356 8.39218 1.00463 9.38715C0.965697 10.3821 1.1728 11.3713 1.60759 12.2671C2.04238 13.1629 2.69143 13.9376 3.49722 14.5226L8.03585 17.8066C8.05603 17.8212 8.08076 17.8281 8.10558 17.8261C8.13041 17.8241 8.15371 17.8134 8.17131 17.7957C8.1889 17.7781 8.19963 17.7548 8.20158 17.7299C8.20352 17.7051 8.19654 17.6804 8.1819 17.6603L7.93267 17.3172Z" fill="#3959CC"/>
<path d="M8.3094 7.1989C8.31986 7.18661 8.32735 7.17208 8.33129 7.15643C8.33523 7.14077 8.33551 7.12443 8.33211 7.10865C8.3287 7.09287 8.32171 7.07809 8.31168 7.06546C8.30164 7.05282 8.28883 7.04266 8.27423 7.03578C7.89537 6.85488 7.48053 6.76196 7.06071 6.76395C6.60892 6.76429 6.16359 6.87121 5.76089 7.07603C5.3582 7.28084 5.00951 7.57777 4.74315 7.94269C4.29822 8.55505 4.11439 9.31891 4.23198 10.0667C4.34957 10.8144 4.75898 11.485 5.37039 11.9312L5.37158 11.9321L6.20477 12.5349C6.22044 12.5462 6.23891 12.5529 6.25816 12.5544C6.27741 12.5558 6.29668 12.5519 6.31385 12.5431C6.33101 12.5342 6.34541 12.5208 6.35544 12.5043C6.36547 12.4879 6.37075 12.4689 6.3707 12.4496C6.38274 10.5265 7.06878 8.66842 8.3094 7.1989Z" fill="#3959CC"/>
<path d="M6.3252 5.16115C6.78769 5.16115 7.16261 4.78623 7.16261 4.32374C7.16261 3.86125 6.78769 3.48633 6.3252 3.48633C5.86271 3.48633 5.48779 3.86125 5.48779 4.32374C5.48779 4.78623 5.86271 5.16115 6.3252 5.16115Z" fill="#3959CC"/>
<path d="M13.2952 4.16733L10.1646 6.44185C8.55832 7.6089 7.48141 9.36624 7.17081 11.3273C6.86021 13.2883 7.34136 15.2925 8.5084 16.8988L10.3154 19.3859C10.4438 19.5627 10.6058 19.7124 10.7921 19.8265C10.9784 19.9407 11.1853 20.017 11.4011 20.0512C11.6169 20.0854 11.8373 20.0767 12.0497 20.0257C12.2621 19.9747 12.4624 19.8824 12.6392 19.754L20.4804 14.0569C21.7919 13.1041 22.6711 11.6694 22.9247 10.0683C23.1783 8.46721 22.7855 6.83098 21.8326 5.51954C20.8798 4.20809 19.445 3.32886 17.844 3.07528C16.2429 2.82169 14.6067 3.21452 13.2952 4.16733Z" fill="#3959CC"/>
<path d="M8.25181 5.20101C8.75106 5.33692 9.22357 5.55672 9.64915 5.851C9.66681 5.86337 9.68788 5.86993 9.70944 5.86978C9.731 5.86963 9.75198 5.86277 9.76946 5.85015C10.0042 5.67943 10.8517 5.06318 10.8517 5.06318C10.8651 5.05344 10.876 5.04066 10.8835 5.02589C10.891 5.01112 10.8949 4.99478 10.8949 4.97821C10.8948 4.96164 10.8909 4.94532 10.8833 4.93059C10.8757 4.91586 10.8647 4.90314 10.8513 4.89347L10.6191 4.72669C10.0141 4.28506 9.3322 3.95975 8.60827 3.76735C8.51272 3.74201 8.41305 3.73611 8.31517 3.75001C8.2173 3.7639 8.12321 3.79731 8.03848 3.84825C7.95376 3.89918 7.88013 3.96662 7.82195 4.04654C7.76377 4.12647 7.72224 4.21726 7.69981 4.31354C7.65968 4.5041 7.6947 4.70279 7.79755 4.86815C7.9004 5.03351 8.06315 5.15276 8.25181 5.20101Z" fill="#3959CC"/>
</svg>
