<svg width="24" height="24" viewBox="0 0 24 24" fill="none" xmlns="http://www.w3.org/2000/svg">
<path fill-rule="evenodd" clip-rule="evenodd" d="M6.88497 15.8676C7.1442 16.562 7.49666 17.2179 7.93267 17.8172L8.1819 18.1603C8.19654 18.1804 8.20352 18.2051 8.20158 18.2299C8.19963 18.2548 8.1889 18.2781 8.17131 18.2957C8.15371 18.3134 8.13041 18.3241 8.10558 18.3261C8.08076 18.3281 8.05603 18.3212 8.03585 18.3066L3.49722 15.0226C2.69143 14.4376 2.04238 13.6629 1.60759 12.7671C1.1728 11.8713 0.965697 10.8821 1.00463 9.88715C1.04356 8.89218 1.32733 7.92218 1.83079 7.0631C2.33425 6.20402 3.04184 5.4824 3.89088 4.96218C3.97517 4.91058 4.06896 4.87643 4.16669 4.86173C4.26442 4.84703 4.3641 4.8521 4.45984 4.87662C4.55558 4.90114 4.64542 4.94463 4.72405 5.0045C4.80268 5.06437 4.8685 5.13941 4.9176 5.22517C5.01087 5.39538 5.03482 5.59503 4.98445 5.78246C4.93408 5.9699 4.81328 6.13065 4.64726 6.23118C4.00782 6.62574 3.47543 7.17175 3.09715 7.82095C2.71887 8.47015 2.50635 9.20254 2.47837 9.95339C2.45039 10.7042 2.60782 11.4504 2.93674 12.126C3.26565 12.8015 3.75593 13.3856 4.36423 13.8267L6.51854 15.3855C6.68558 15.5065 6.81307 15.6743 6.88497 15.8676Z" fill="#3D5FCF"/>
</svg>
