<svg width="24" height="24" viewBox="0 0 24 24" fill="none" xmlns="http://www.w3.org/2000/svg">
<path fill-rule="evenodd" clip-rule="evenodd" d="M11.1161 3.11612C11.6043 2.62796 12.3957 2.62796 12.8839 3.11612L16.8839 7.11612C17.372 7.60427 17.372 8.39573 16.8839 8.88388C16.3957 9.37204 15.6043 9.37204 15.1161 8.88388L12 5.76777L8.88388 8.88388C8.39573 9.37204 7.60427 9.37204 7.11612 8.88388C6.62796 8.39573 6.62796 7.60427 7.11612 7.11612L11.1161 3.11612Z" fill="#3959CC"/>
<path fill-rule="evenodd" clip-rule="evenodd" d="M7.11612 15.1161C7.60427 14.628 8.39573 14.628 8.88388 15.1161L12 18.2322L15.1161 15.1161C15.6043 14.628 16.3957 14.628 16.8839 15.1161C17.372 15.6043 17.372 16.3957 16.8839 16.8839L12.8839 20.8839C12.3957 21.372 11.6043 21.372 11.1161 20.8839L7.11612 16.8839C6.62796 16.3957 6.62796 15.6043 7.11612 15.1161Z" fill="#3959CC"/>
</svg>
