<svg width="24" height="24" viewBox="0 0 24 24" fill="none" xmlns="http://www.w3.org/2000/svg">
<path fill-rule="evenodd" clip-rule="evenodd" d="M5 9.01005L10.2684 3.35595C10.8874 2.69162 12 3.12963 12 4.03766V20.0326C12 20.9423 10.8838 21.3795 10.266 20.7117L5 15.0201L3 15.0201C2.44772 15.0201 2 14.5723 2 14.0201V10.01C2 9.45776 2.44772 9.01005 3 9.01005L5 9.01005ZM5.87009 11.01L4 11.01V13.0201H5.87429L10 17.4792V6.57777L5.87009 11.01Z" fill="#3959CC"/>
<path d="M14.242 6.34781C14.6022 5.92916 15.2336 5.88177 15.6522 6.24197C17.2864 7.648 18.053 9.83576 18.0582 11.9481C18.0634 14.0631 17.3067 16.2753 15.6675 17.7446C15.2562 18.1133 14.624 18.0787 14.2554 17.6675C13.8868 17.2562 13.9213 16.624 14.3325 16.2554C15.4564 15.248 16.0624 13.6326 16.0582 11.953C16.054 10.2708 15.439 8.69694 14.3478 7.75806C13.9292 7.39786 13.8818 6.76647 14.242 6.34781Z" fill="#3959CC"/>
<path d="M18.6088 4.20299C18.1672 3.86947 17.5381 3.95596 17.2036 4.39617C16.8691 4.83638 16.9558 5.46361 17.3974 5.79712C19.0637 7.05584 19.9893 9.34035 19.994 11.8145C19.9986 14.2814 19.0836 16.7287 17.3426 18.2475C16.9257 18.6112 16.8834 19.2429 17.2482 19.6586C17.613 20.0742 18.2467 20.1163 18.6635 19.7526C20.9346 17.7715 22.0054 14.7188 22 11.8107C21.9945 8.90985 20.9141 5.94436 18.6088 4.20299Z" fill="#3959CC"/>
</svg>
