<svg width="24" height="24" viewBox="0 0 24 24" fill="none" xmlns="http://www.w3.org/2000/svg">
<path d="M14 6C15.1046 6 16 5.10457 16 4C16 2.89543 15.1046 2 14 2C12.8954 2 12 2.89543 12 4C12 5.10457 12.8954 6 14 6Z" fill="#3959CC"/>
<path d="M7.69455 8.82971C8.76013 7.84024 10.2134 7.28694 11.8126 7.01746C11.8493 7.01045 11.8865 7.00547 11.9241 7.00262C11.9768 6.99859 12.0303 6.99873 12.0839 7.00329C12.1702 7.01048 12.254 7.02884 12.3337 7.05711L13.8163 7.55131C14.2246 7.68743 14.5 8.06957 14.5 8.5C14.5 10.4477 16.0523 12 18 12C18.5523 12 19 12.4477 19 13C19 13.5523 18.5523 14 18 14C16.1259 14 14.4798 13.0772 13.4881 11.6583L12.9806 14.1961C12.9764 14.2168 12.9717 14.2373 12.9663 14.2574L14.7593 16.3492C14.9146 16.5304 15 16.7613 15 17V21C15 21.5523 14.5523 22 14 22C13.4477 22 13 21.5523 13 21V17.3699L11.3171 15.4065L9.97437 21.2249C9.85018 21.763 9.31326 22.0986 8.77512 21.9744C8.23698 21.8502 7.9014 21.3133 8.02559 20.7751L10.658 9.36799C9.99624 9.60684 9.46172 9.91805 9.05545 10.2953C8.40636 10.898 8 11.7463 8 13C8 13.5523 7.55228 14 7 14C6.44772 14 6 13.5523 6 13C6 11.2537 6.59364 9.85198 7.69455 8.82971Z" fill="#3959CC"/>
</svg>
