<svg width="24" height="24" viewBox="0 0 24 24" fill="none" xmlns="http://www.w3.org/2000/svg">
<path d="M10 16C10 17.1046 9.10457 18 8 18C6.89543 18 6 17.1046 6 16C6 14.8954 6.89543 14 8 14C9.10457 14 10 14.8954 10 16Z" fill="#3959CC"/>
<path fill-rule="evenodd" clip-rule="evenodd" d="M3 3C3 2.44772 3.44772 2 4 2H8C8.55228 2 9 2.44772 9 3V7H16C16.464 7 16.8671 7.31924 16.9734 7.77096L18.9454 16.152C19.8235 16.4433 20.5216 17.1295 20.8293 18H22C22.5523 18 23 18.4477 23 19C23 19.5523 22.5523 20 22 20H20.8293C20.4175 21.1652 19.3062 22 18 22C16.3431 22 15 20.6569 15 19C15 17.7301 15.7891 16.6445 16.9036 16.2067L16.3844 14H13.6586C13.8797 14.6256 14 15.2987 14 16C14 19.3137 11.3137 22 8 22C4.68629 22 2 19.3137 2 16C2 13.027 4.16229 10.559 7 10.083V9H6C5.44772 9 5 8.55228 5 8C5 7.44772 5.44772 7 6 7H7V4H4C3.44772 4 3 3.55228 3 3ZM11.1871 13.5826C11.1955 13.5943 11.2042 13.6059 11.2132 13.6172C11.7075 14.2828 12 15.1072 12 16C12 18.2091 10.2091 20 8 20C5.79086 20 4 18.2091 4 16C4 13.7909 5.79086 12 8 12C9.3008 12 10.4566 12.6209 11.1871 13.5826ZM12.4722 12H15.9138L15.208 9H9V10.083C10.3709 10.313 11.5842 11.0079 12.4722 12ZM18 18C18.5523 18 19 18.4477 19 19C19 19.5523 18.5523 20 18 20C17.4477 20 17 19.5523 17 19C17 18.4477 17.4477 18 18 18Z" fill="#3959CC"/>
</svg>
