<svg width="24" height="24" viewBox="0 0 24 24" fill="none" xmlns="http://www.w3.org/2000/svg">
<path fill-rule="evenodd" clip-rule="evenodd" d="M18 4C16.8964 4 16.0015 4.89392 16 5.99721V6.00279C16.0015 7.10608 16.8964 8 18 8C19.1046 8 20 7.10457 20 6C20 4.89543 19.1046 4 18 4ZM14.126 7C14.3418 7.83831 14.8225 8.57027 15.4735 9.10129L12.5198 16.3762C12.3667 16.7533 12.0003 17 11.5933 17H9.87398C9.42992 15.2748 7.86383 14 6 14C3.79086 14 2 15.7909 2 18C2 20.2091 3.79086 22 6 22C7.86385 22 9.42996 20.7252 9.87399 19H11.5933C12.8143 19 13.9136 18.2599 14.3729 17.1285L17.2925 9.93763C17.5222 9.97861 17.7586 10 18 10C20.2091 10 22 8.20914 22 6C22 3.79086 20.2091 2 18 2C16.1362 2 14.5701 3.27477 14.126 5L9.87398 5C9.42994 3.27477 7.86384 2 6 2C3.79086 2 2 3.79086 2 6C2 8.20914 3.79086 10 6 10C7.86384 10 9.42994 8.72523 9.87398 7H14.126ZM8 6.0014C7.99925 7.10532 7.10411 8 6 8C4.89543 8 4 7.10457 4 6C4 4.89543 4.89543 4 6 4C7.10411 4 7.99925 4.89468 8 5.9986C8 5.99907 8 5.99953 8 6C8 6.00047 8 6.00093 8 6.0014ZM6 16C7.10093 16 7.9941 16.8895 7.99997 17.9891V18.0109C7.9941 19.1105 7.10093 20 6 20C4.89543 20 4 19.1046 4 18C4 16.8954 4.89543 16 6 16Z" fill="#3959CC"/>
</svg>
