<svg width="24" height="24" viewBox="0 0 24 24" fill="none" xmlns="http://www.w3.org/2000/svg">
<path d="M12 2C17.5228 2 22 6.47715 22 12C22 17.5228 17.5228 22 12 22C6.47715 22 2 17.5228 2 12C2 6.47715 6.47715 2 12 2ZM12 4C7.58172 4 4 7.58172 4 12C4 16.4183 7.58172 20 12 20C16.4183 20 20 16.4183 20 12C20 7.58172 16.4183 4 12 4ZM8.29297 7.29297C8.68349 6.90244 9.31651 6.90244 9.70703 7.29297L12.1133 9.69922L14.5166 7.29688C14.9071 6.90635 15.5401 6.90635 15.9307 7.29688C16.321 7.68741 16.3211 8.32047 15.9307 8.71094L13.8281 10.8135H15.2236C15.7758 10.8135 16.2235 11.2613 16.2236 11.8135C16.2236 12.3657 15.7759 12.8134 15.2236 12.8135H13.1113V14H15.2236C15.7759 14.0001 16.2236 14.4478 16.2236 15C16.2236 15.5522 15.7759 15.9999 15.2236 16H13.1113V17L13.1064 17.1016C13.0555 17.6061 12.6293 18 12.1113 18C11.5936 17.9998 11.1672 17.6059 11.1162 17.1016L11.1113 17V16H9L8.89746 15.9951C8.39339 15.9437 8 15.5176 8 15C8 14.4824 8.39339 14.0563 8.89746 14.0049L9 14H11.1113V12.8135H9L8.89746 12.8086C8.39339 12.7572 8 12.3311 8 11.8135C8.00011 11.2959 8.39346 10.8697 8.89746 10.8184L9 10.8135H10.3994L8.29297 8.70703C7.90244 8.31651 7.90244 7.68349 8.29297 7.29297Z" fill="#3959CC"/>
</svg>
